<?xml version="1.0" encoding="UTF-8"?>
<svg version="1.1" xmlns="http://www.w3.org/2000/svg" width="360" height="360">
<path d="M0 0 C118.8 0 237.6 0 360 0 C360 118.8 360 237.6 360 360 C241.2 360 122.4 360 0 360 C0 241.2 0 122.4 0 0 Z " fill="#FEFEFE" transform="translate(0,0)"/>
<path d="M0 0 C27.90605032 20.80569432 46.55741953 48.03476934 52.234375 82.58203125 C52.92129628 88.60372484 52.82491247 94.66635263 52.828125 100.71875 C52.84037109 101.91757813 52.85261719 103.11640625 52.86523438 104.3515625 C52.88293759 115.23313781 51.55037874 125.41412512 48.015625 135.71875 C47.75837646 136.47607422 47.50112793 137.23339844 47.23608398 138.01367188 C43.04819838 149.90761362 37.36315117 160.97890379 29.640625 170.96875 C29.02574219 171.78601563 28.41085937 172.60328125 27.77734375 173.4453125 C8.72754512 198.10697566 -19.50802962 214.34692128 -50.453125 218.5 C-81.1193842 221.84541009 -113.80603879 215.16614455 -138.296875 195.53125 C-140.00058538 194.02859861 -141.68776989 192.50703691 -143.359375 190.96875 C-144.37330594 190.08139389 -145.3890097 189.19606041 -146.40625 188.3125 C-168.61191081 168.80836691 -182.77113649 140.45797065 -185.359375 110.96875 C-187.3000406 77.92680877 -178.57765824 46.26409674 -156.61083984 20.95410156 C-148.72904549 12.31876149 -140.36263957 5.05870042 -130.359375 -1.03125 C-129.73417969 -1.41506836 -129.10898438 -1.79888672 -128.46484375 -2.19433594 C-89.53033485 -25.86605659 -38.13872836 -25.73779215 0 0 Z " fill="#38A9E0" transform="translate(255.359375,73.03125)"/>
<path d="M0 0 C0 25.74 0 51.48 0 78 C1.32 78 2.64 78 4 78 C4 52.59 4 27.18 4 1 C13.07692308 1 13.07692308 1 16.8125 2.3125 C17.54082031 2.55613281 18.26914063 2.79976563 19.01953125 3.05078125 C22.40172592 4.67183313 23.68303527 6.24037764 25.1328125 9.71484375 C25.62394531 11.31005859 25.62394531 11.31005859 26.125 12.9375 C26.62386719 14.49791016 26.62386719 14.49791016 27.1328125 16.08984375 C29.68569949 26.16810298 29.12982804 36.94363156 29.0625 47.25 C29.05746786 48.59244622 29.05290802 49.9348943 29.04882812 51.27734375 C29.03717009 54.5182781 29.02080774 57.75911369 29 61 C32.61287777 52.75059575 36.04646285 44.5131365 39 36 C48.74591803 40.42865981 56.02640266 48.26760388 62 57 C62.33 57.33 62.66 57.66 63 58 C58.56413603 49.21934041 58.56413603 49.21934041 52 42 C51.27167969 41.34 50.54335937 40.68 49.79296875 40 C46.61689828 37.12665676 43.56816158 34.37877438 40 32 C40.66 29.69 41.32 27.38 42 25 C45.29820727 25.60969088 47.30698842 26.75497114 49.9375 28.8125 C50.63617188 29.35777344 51.33484375 29.90304688 52.0546875 30.46484375 C52.69664062 30.97144531 53.33859375 31.47804688 54 32 C54.845625 32.61875 55.69125 33.2375 56.5625 33.875 C62.79314522 39.30684455 67.54216383 45.96713876 72.30078125 52.6796875 C73.93958549 55.04138995 73.93958549 55.04138995 76 57 C69.47365027 42.27591828 60.71406651 31.76483468 48 22 C46.33133088 20.6691736 44.66400201 19.33665735 43 18 C43.33 16.35 43.66 14.7 44 13 C46.2109375 12.296875 46.2109375 12.296875 49 12 C52.76454087 14.0814185 55.82350669 17.11720806 59 20 C59.91652344 20.82242188 60.83304688 21.64484375 61.77734375 22.4921875 C73.22480898 33.31349404 83.43210963 48.41733717 86.625 64.0625 C85.63728844 70.28508285 81.68437607 73.97738499 77 78 C74.0153712 79.54820632 71.37976601 80 68 80 C68.33 80.99 68.66 81.98 69 83 C64.60546875 87.00390625 64.60546875 87.00390625 63 88 C62.01 87.67 61.02 87.34 60 87 C59.67 87.99 59.34 88.98 59 90 C58.4225 90.12375 57.845 90.2475 57.25 90.375 C54.71099342 90.87708537 54.71099342 90.87708537 52.5625 93.5 C49.71309794 96.27990445 48.83230405 96.55654767 45 97 C42.89237945 96.91802229 40.78647374 96.77009081 38.6875 96.5625 C37.61886719 96.46066406 36.55023438 96.35882813 35.44921875 96.25390625 C34.23685547 96.12822266 34.23685547 96.12822266 33 96 C33 96.66 33 97.32 33 98 C33.99 98 34.98 98 36 98 C36 98.99 36 99.98 36 101 C34.35 101 32.7 101 31 101 C31 101.66 31 102.32 31 103 C43.69009387 100.74853173 56.36346071 97.6104743 68 92 C68.66 92 69.32 92 70 92 C73.78086992 103.34260977 68.62763961 117.1840118 65 128 C69.50617451 118.95931025 72.82187871 111.0676393 73.15625 100.9296875 C73.19818481 99.85037964 73.19818481 99.85037964 73.2409668 98.74926758 C73.28789078 97.31480304 73.31100404 95.87932018 73.30786133 94.4440918 C73.36328125 92.44140625 73.36328125 92.44140625 74 89 C76.41789029 87.02740776 77.85657347 86 81 86 C86.08305256 101.24915769 78.88836126 120.47016733 74 135 C83.75785726 117.82901331 86.84514221 101.64955649 86 82 C88.3125 81.375 88.3125 81.375 91 81 C91.99 81.66 92.98 82.32 94 83 C98.08121093 104.27212557 91.68946454 128.20311859 80 146 C77.03651571 147.9756562 76.31979627 148.26376859 72.98828125 148.4140625 C72.23095703 148.45273438 71.47363281 148.49140625 70.69335938 148.53125 C69.51483398 148.57765625 69.51483398 148.57765625 68.3125 148.625 C67.51521484 148.66367188 66.71792969 148.70234375 65.89648438 148.7421875 C63.93136525 148.83632494 61.9657146 148.91924632 60 149 C60 149.33 60 149.66 60 150 C58.33388095 150.042721 56.66617115 150.04063832 55 150 C54.67 149.67 54.34 149.34 54 149 C51.67182036 148.63239269 49.3381615 148.29758419 47 148 C47 147.34 47 146.68 47 146 C44.7763932 147.9254644 44.7763932 147.9254644 44 151 C45.65 151.99 47.3 152.98 49 154 C43.26399931 161.34381907 37.31721503 167.05891354 28 169 C28 169.66 28 170.32 28 171 C37.33739599 167.68610163 45.27827034 163.37221963 52 156 C57.75 157.75 57.75 157.75 60 160 C53.17670817 167.63558848 45.69021693 172.78788613 37 178 C36.13632813 178.55300781 35.27265625 179.10601562 34.3828125 179.67578125 C29.32619406 182.78148981 25.92975414 183.53906856 20 183 C20 183.99 20 184.98 20 186 C36.45404802 181.2495571 49.39762555 175.80038473 61.73828125 163.7578125 C64 162 64 162 68 162 C70 164 70 164 70.34375 166.37890625 C69.70127877 171.27774941 65.55776968 173.88077484 62 177 C61.4225 177.51691406 60.845 178.03382813 60.25 178.56640625 C49.36429779 187.48393462 33.45343726 194.66880075 19.375 195.5 C16 195 16 195 13.5 193.5625 C11.28647574 189.78106272 11.67082764 186.2792407 12 182 C11.01 182.33 10.02 182.66 9 183 C5.9328548 180.25336617 4.2425842 178.4499396 3.55307007 174.32867432 C3.42185163 171.00338999 3.43846393 167.70993942 3.51171875 164.3828125 C3.51879349 163.17051971 3.52586823 161.95822693 3.53315735 160.709198 C3.56108718 156.84716413 3.62382887 152.98659378 3.6875 149.125 C3.71258443 146.50262514 3.73539734 143.8802275 3.75585938 141.2578125 C3.81090964 134.83804453 3.89452453 128.41912684 4 122 C2.68 122 1.36 122 0 122 C0 148.07 0 174.14 0 201 C-5 199 -5 199 -7 196 C-7.31884766 193.9152832 -7.31884766 193.9152832 -7.4140625 191.55078125 C-7.45273438 190.70322266 -7.49140625 189.85566406 -7.53125 188.98242188 C-7.5621875 188.10134766 -7.593125 187.22027344 -7.625 186.3125 C-7.66367188 185.41982422 -7.70234375 184.52714844 -7.7421875 183.60742188 C-7.83640218 181.4051538 -7.92201588 179.20289278 -8 177 C-8.65226562 177.721875 -9.30453125 178.44375 -9.9765625 179.1875 C-10.85054688 180.115625 -11.72453125 181.04375 -12.625 182 C-13.91277344 183.3921875 -13.91277344 183.3921875 -15.2265625 184.8125 C-18 187 -18 187 -21.21875 187.37890625 C-24 187 -24 187 -25.875 185.9375 C-27.20150991 183.65295516 -27.67637526 181.7248122 -27.63330078 179.07983398 C-25.86848976 173.28398777 -19.12631877 169.01184383 -14.75390625 165.11523438 C-10.05474978 161.03484854 -10.05474978 161.03484854 -7.40625 155.62060547 C-7.34269166 153.19092254 -7.34269166 153.19092254 -8 150 C-8.50789063 150.56589844 -9.01578125 151.13179687 -9.5390625 151.71484375 C-15.14412098 157.68727497 -15.14412098 157.68727497 -19.25 159.1875 C-22 159 -22 159 -24.375 158 C-26 156 -26 156 -26.5625 152.6875 C-25.27985768 144.27906704 -16.41162619 138.68574827 -10.0625 133.6875 C-7.04296852 129.75295898 -7.10353799 125.84746054 -7 121 C-13.91820434 121.81848301 -18.34784586 126.66390193 -23.25 131.25 C-23.75811218 131.72331757 -24.26622437 132.19663513 -24.78973389 132.68429565 C-32.06736134 139.69250547 -35.23570853 145.2619682 -35.69824219 155.67285156 C-35.60712784 160.5116306 -35.34929816 165.31000393 -34.80322266 170.11938477 C-35.06142717 173.89922976 -36.32616912 175.38576549 -39 178 C-42.09791263 178.50578165 -43.95591623 178.63669594 -46.671875 176.98046875 C-48.78364311 173.83144983 -48.3118687 170.46383755 -48.1875 166.8125 C-48.17396484 166.06291016 -48.16042969 165.31332031 -48.14648438 164.54101562 C-48.11118539 162.69370233 -48.05737917 160.84675934 -48 159 C-52.06640831 162.47493074 -55.98924639 165.94643401 -59.625 169.875 C-61.92105646 172.19197724 -63.0370145 173.01378971 -66.1875 174.1875 C-69 174 -69 174 -71.375 172.4375 C-73.48639623 169.27040565 -73.68702001 167.74044227 -73 164 C-71.38707176 162.0748921 -69.87462873 160.63869148 -68 159 C-66.40689392 157.44746539 -64.82420601 155.88419531 -63.25 154.3125 C-62.08210938 153.16201172 -62.08210938 153.16201172 -60.890625 151.98828125 C-58.94769385 150.1389301 -58.94769385 150.1389301 -58 148 C-59.19238281 148.03480469 -60.38476562 148.06960937 -61.61328125 148.10546875 C-63.17967342 148.13360753 -64.74608081 148.1609076 -66.3125 148.1875 C-67.09818359 148.21263672 -67.88386719 148.23777344 -68.69335938 148.26367188 C-69.8293457 148.27817383 -69.8293457 148.27817383 -70.98828125 148.29296875 C-72.03302612 148.31653442 -72.03302612 148.31653442 -73.09887695 148.34057617 C-75.62033015 147.88887112 -76.47604129 147.02990484 -78 145 C-78.4375 141.5 -78.4375 141.5 -78 138 C-76.37255859 136.26489258 -76.37255859 136.26489258 -74 135 C-71.04931641 134.91674805 -71.04931641 134.91674805 -67.6015625 135.26171875 C-50.71940963 136.50315594 -50.71940963 136.50315594 -36.05859375 129.1875 C-33.95963056 127.27281788 -31.99187189 125.27218768 -30.0625 123.1875 C-29.5908844 122.67988129 -29.1192688 122.17226257 -28.63336182 121.64926147 C-22.81907662 115.67876306 -22.81907662 115.67876306 -21 108 C-23.30531951 107.63596246 -23.30531951 107.63596246 -26 108 C-28.40917584 109.81678829 -28.40917584 109.81678829 -30.6171875 112.33984375 C-31.47183594 113.23767578 -32.32648438 114.13550781 -33.20703125 115.06054688 C-34.98011851 116.97252164 -36.7509685 118.8865737 -38.51953125 120.80273438 C-39.37675781 121.70185547 -40.23398438 122.60097656 -41.1171875 123.52734375 C-42.27130127 124.77632446 -42.27130127 124.77632446 -43.44873047 126.05053711 C-46.66476278 128.5079551 -48.9922819 128.84846236 -53 129 C-55.5 127.5 -55.5 127.5 -57 125 C-56.88316666 120.68732589 -56.42589307 118.53509642 -53.71484375 115.12890625 C-52.79832031 114.28199219 -51.88179687 113.43507813 -50.9375 112.5625 C-50.01839844 111.69753906 -49.09929687 110.83257812 -48.15234375 109.94140625 C-47.44207031 109.30074219 -46.73179687 108.66007812 -46 108 C-51.33379561 107.21869232 -56.03171745 106.68130491 -60.65869141 109.78125 C-63.18431204 112.25649053 -65.51570386 114.81116123 -67.8125 117.5 C-75.81015571 126.6346092 -75.81015571 126.6346092 -79.06225586 127.63330078 C-81.71190735 127.6764068 -83.64868654 127.20398846 -85.9375 125.875 C-87.5146777 123.09174524 -87.34153068 121.1591588 -87 118 C-85.06640625 115.515625 -85.06640625 115.515625 -82.5625 113.25 C-79.34651547 110.45379075 -79.34651547 110.45379075 -77 107 C-78.31355469 107.04640625 -79.62710938 107.0928125 -80.98046875 107.140625 C-82.71612304 107.17815266 -84.45180199 107.21455175 -86.1875 107.25 C-87.05181641 107.28351563 -87.91613281 107.31703125 -88.80664062 107.3515625 C-93.01478283 107.4160551 -95.39849981 107.34522191 -99.1171875 105.2109375 C-101 103 -101 103 -100.9375 99.375 C-100 96 -100 96 -98 94 C-95.66162109 93.77294922 -95.66162109 93.77294922 -92.7734375 93.8046875 C-91.7421875 93.81113281 -90.7109375 93.81757813 -89.6484375 93.82421875 C-88.02808594 93.84935547 -88.02808594 93.84935547 -86.375 93.875 C-85.28703125 93.88402344 -84.1990625 93.89304687 -83.078125 93.90234375 C-80.38519848 93.92596591 -77.69270745 93.95890444 -75 94 C-75 93.34 -75 92.68 -75 92 C-75.85851562 91.63648438 -75.85851562 91.63648438 -76.734375 91.265625 C-79.4295077 89.76006811 -81.1634219 88.0220517 -83.25 85.75 C-83.95640625 85.00234375 -84.6628125 84.2546875 -85.390625 83.484375 C-87.38239965 80.40969374 -87.42312266 78.59903156 -87 75 C-85.4375 73.0625 -85.4375 73.0625 -83 72 C-78.80003553 71.73513738 -76.94853828 72.19697211 -73.7019043 74.94555664 C-70.22149252 78.49410954 -66.88330271 82.15744144 -63.55859375 85.8515625 C-58.20505551 91.7580049 -58.20505551 91.7580049 -50.8671875 94.125 C-49.59101563 94.08375 -48.31484375 94.0425 -47 94 C-47 93.34 -47 92.68 -47 92 C-47.99 91.67 -48.98 91.34 -50 91 C-50 90.34 -50 89.68 -50 89 C-50.8971875 88.62875 -50.8971875 88.62875 -51.8125 88.25 C-54.45537263 86.73978707 -55.60337792 85.71973773 -57 83 C-56.67272727 76.67272727 -56.67272727 76.67272727 -54 74 C-51.375 73.4375 -51.375 73.4375 -48 74 C-44.9994216 75.98287676 -42.54757539 78.47405089 -40 81 C-39.01488703 81.9485029 -38.0291759 82.89638482 -37.04296875 83.84375 C-36.02722694 84.83187688 -35.01289633 85.82145653 -34 86.8125 C-33.50669189 87.29243408 -33.01338379 87.77236816 -32.50512695 88.2668457 C-31.29708024 89.47275542 -30.14338182 90.73261169 -29 92 C-29 92.66 -29 93.32 -29 94 C-26.36 94 -23.72 94 -21 94 C-20.58428206 90.60148649 -20.88131518 89.18931857 -22.72705078 86.24511719 C-25.44769193 82.99541763 -28.21348098 79.82941229 -31.125 76.75 C-31.64589203 76.19486725 -32.16678406 75.6397345 -32.70346069 75.06777954 C-40.15721294 67.36193732 -46.42404391 63.43318884 -57.27099609 63.11230469 C-62.29518233 63.14222945 -67.29639767 63.4712148 -72.28637695 64.05151367 C-75 64 -75 64 -76.84838867 62.73950195 C-78.78244137 59.81812703 -78.42260563 57.38084506 -78 54 C-74.79597868 50.65565658 -71.73910415 50.53695521 -67.25 50.3125 C-65.49429688 50.21388672 -65.49429688 50.21388672 -63.703125 50.11328125 C-62.36507812 50.05720703 -62.36507812 50.05720703 -61 50 C-62.06012706 48.76878615 -63.12324005 47.54014315 -64.1875 46.3125 C-64.82171875 45.57773438 -65.4559375 44.84296875 -66.109375 44.0859375 C-68.08272765 41.82706135 -68.08272765 41.82706135 -70.9375 39.4375 C-73 37 -73 37 -73.5 33.375 C-73 30 -73 30 -71.9375 28 C-68.66648846 26.31173598 -66.50709964 27.08401971 -63 28 C-60.21187253 30.07184158 -57.91482136 32.51601878 -55.5625 35.0625 C-54.60827148 36.05733398 -54.60827148 36.05733398 -53.63476562 37.07226562 C-52.07532388 38.70205813 -50.53165061 40.34413568 -49 42 C-48.96132812 40.10314453 -48.96132812 40.10314453 -48.921875 38.16796875 C-48.86559734 36.50777782 -48.80824993 34.8476229 -48.75 33.1875 C-48.73582031 32.35412109 -48.72164062 31.52074219 -48.70703125 30.66210938 C-48.4601753 24.51539634 -48.4601753 24.51539634 -46.14453125 21.921875 C-43.0333869 20.58447961 -41.19080129 20.98165916 -38 22 C-35.58036163 24.36091097 -35.01305334 25.53735281 -34.91674805 28.95068359 C-35.03058838 30.08844238 -35.14442871 31.22620117 -35.26171875 32.3984375 C-36.49709082 49.26780448 -36.49709082 49.26780448 -29.22265625 63.94140625 C-27.31750266 66.04039347 -25.32525888 68.00740758 -23.25 69.9375 C-22.74665131 70.4091156 -22.24330261 70.8807312 -21.72470093 71.36663818 C-16.19542192 76.81186735 -16.19542192 76.81186735 -9.17089844 79.23266602 C-8.09630371 79.11749634 -8.09630371 79.11749634 -7 79 C-7.23879479 74.94048865 -7.49189873 72.61271035 -10.125 69.4375 C-11.62502683 68.16573812 -13.12631172 66.89534172 -14.640625 65.640625 C-26.51451592 55.69222991 -26.51451592 55.69222991 -27.6875 49.1875 C-27 46 -27 46 -25.375 44 C-22.1269637 42.63240577 -20.38661285 43.0904765 -17 44 C-14.4453125 46.06640625 -14.4453125 46.06640625 -12.125 48.5625 C-11.34382813 49.38878906 -10.56265625 50.21507812 -9.7578125 51.06640625 C-8.88769531 52.02353516 -8.88769531 52.02353516 -8 53 C-7.24490141 48.02526736 -6.84031242 43.77832314 -9.67138672 39.43701172 C-11.99226798 36.96272574 -14.39945764 34.68821681 -16.9375 32.4375 C-18.61446142 30.87496355 -20.29030209 29.31122313 -21.96484375 27.74609375 C-22.7137085 27.07247803 -23.46257324 26.3988623 -24.23413086 25.70483398 C-26.6176595 23.40368916 -26.96612589 22.39802083 -27.25 19.0625 C-27 16 -27 16 -25.875 14.125 C-23.08813861 12.45288316 -21.21036051 12.64935383 -18 13 C-15.2265625 14.96875 -15.2265625 14.96875 -12.625 17.5 C-11.75101562 18.3353125 -10.87703125 19.170625 -9.9765625 20.03125 C-8.99816406 21.00578125 -8.99816406 21.00578125 -8 22 C-7.96261719 20.74703125 -7.92523438 19.4940625 -7.88671875 18.203125 C-7.82105115 16.55205379 -7.75460407 14.90101345 -7.6875 13.25 C-7.66494141 12.425 -7.64238281 11.6 -7.61914062 10.75 C-7.46240836 7.21639988 -7.30701085 4.61216664 -5.70703125 1.421875 C-4 0 -4 0 0 0 Z " fill="#F8FBFC" transform="translate(188,73)"/>
<path d="M0 0 C5.71428571 0.71428571 5.71428571 0.71428571 7 2 C9.09181646 24.50688595 5.49632041 45.9747032 -7 65 C-9.96348429 66.9756562 -10.68020373 67.26376859 -14.01171875 67.4140625 C-14.76904297 67.45273438 -15.52636719 67.49140625 -16.30664062 67.53125 C-17.09232422 67.5621875 -17.87800781 67.593125 -18.6875 67.625 C-19.48478516 67.66367188 -20.28207031 67.70234375 -21.10351562 67.7421875 C-23.06863475 67.83632494 -25.0342854 67.91924632 -27 68 C-27 68.33 -27 68.66 -27 69 C-28.66611905 69.042721 -30.33382885 69.04063832 -32 69 C-32.33 68.67 -32.66 68.34 -33 68 C-35.32817964 67.63239269 -37.6618385 67.29758419 -40 67 C-40 66.34 -40 65.68 -40 65 C-42.2236068 66.9254644 -42.2236068 66.9254644 -43 70 C-41.35 70.99 -39.7 71.98 -38 73 C-43.73600069 80.34381907 -49.68278497 86.05891354 -59 88 C-59 88.66 -59 89.32 -59 90 C-49.66260401 86.68610163 -41.72172966 82.37221963 -35 75 C-29.25 76.75 -29.25 76.75 -27 79 C-33.82329183 86.63558848 -41.30978307 91.78788613 -50 97 C-51.29550781 97.82951172 -51.29550781 97.82951172 -52.6171875 98.67578125 C-57.67380594 101.78148981 -61.07024586 102.53906856 -67 102 C-67 102.99 -67 103.98 -67 105 C-50.54595198 100.2495571 -37.60237445 94.80038473 -25.26171875 82.7578125 C-23 81 -23 81 -19 81 C-17 83 -17 83 -16.65625 85.37890625 C-17.29872123 90.27774941 -21.44223032 92.88077484 -25 96 C-25.5775 96.51691406 -26.155 97.03382813 -26.75 97.56640625 C-37.63570221 106.48393462 -53.54656274 113.66880075 -67.625 114.5 C-71 114 -71 114 -73.5 112.5625 C-75.71352426 108.78106272 -75.32917236 105.2792407 -75 101 C-76.485 101.495 -76.485 101.495 -78 102 C-81.0671452 99.25336617 -82.7574158 97.4499396 -83.44692993 93.32867432 C-83.57814837 90.00338999 -83.56153607 86.70993942 -83.48828125 83.3828125 C-83.48120651 82.17051971 -83.47413177 80.95822693 -83.46684265 79.709198 C-83.43891282 75.84716413 -83.37617113 71.98659378 -83.3125 68.125 C-83.28741557 65.50262514 -83.26460266 62.8802275 -83.24414062 60.2578125 C-83.18909036 53.83804453 -83.10547547 47.41912684 -83 41 C-84.485 40.505 -84.485 40.505 -86 40 C-85.01 40 -84.02 40 -83 40 C-82.67 39.01 -82.34 38.02 -82 37 C-83.08667969 36.96132812 -83.08667969 36.96132812 -84.1953125 36.921875 C-91.71806685 36.48054008 -96.00224626 35.24756655 -101.25 29.5625 C-104.76326986 24.41806914 -105.43926416 20.728075 -104.67578125 14.57421875 C-103.39059585 9.67862811 -100.41930028 5.6058696 -96.19921875 2.8046875 C-91.37256238 1.03862851 -86.0430821 1.48501528 -81 2 C-77.4375 3.75 -77.4375 3.75 -75 6 C-74.236875 6.680625 -73.47375 7.36125 -72.6875 8.0625 C-69.15313241 12.1204776 -69.67387472 16.9322116 -69.7109375 22.046875 C-70.0936229 25.95647181 -71.39639147 28.09883621 -74 31 C-74.804375 31.928125 -74.804375 31.928125 -75.625 32.875 C-77 34 -77 34 -79 34 C-78.855625 34.556875 -78.71125 35.11375 -78.5625 35.6875 C-77.97230872 38.11384195 -77.476571 40.54906345 -77 43 C-76.608125 41.906875 -76.21625 40.81375 -75.8125 39.6875 C-74.24312775 35.98615034 -72.51047485 34.96929077 -69 33 C-67.6296945 31.02514795 -66.29327628 29.02613283 -65 27 C-64.01 26.34 -63.02 25.68 -62 25 C-61.01 25.33 -60.02 25.66 -59 26 C-58.505 24.515 -58.505 24.515 -58 23 C-54.60629351 20.66321426 -50.66876147 20.32203447 -46.6875 19.6875 C-38.45115742 18.26858641 -30.8607224 15.81536512 -23 13 C-21.00159897 12.32855546 -19.00211971 11.66027352 -17 11 C-13.21913008 22.34260977 -18.37236039 36.1840118 -22 47 C-17.49382549 37.95931025 -14.17812129 30.0676393 -13.84375 19.9296875 C-13.80181519 18.85037964 -13.80181519 18.85037964 -13.7590332 17.74926758 C-13.71210922 16.31480304 -13.68899596 14.87932018 -13.69213867 13.4440918 C-13.63671875 11.44140625 -13.63671875 11.44140625 -13 8 C-10.58210971 6.02740776 -9.14342653 5 -6 5 C-0.91694744 20.24915769 -8.11163874 39.47016733 -13 54 C-3.88218138 37.9552949 -0.32192578 22.80613784 -0.95703125 4.3671875 C-0.97121094 3.25601563 -0.98539062 2.14484375 -1 1 C-0.67 0.67 -0.34 0.34 0 0 Z " fill="#C3DFF4" transform="translate(275,154)"/>
<path d="M0 0 C9.07692308 0 9.07692308 0 12.8125 1.3125 C13.54082031 1.55613281 14.26914063 1.79976563 15.01953125 2.05078125 C18.40172592 3.67183313 19.68303527 5.24037764 21.1328125 8.71484375 C21.46023437 9.77832031 21.78765625 10.84179688 22.125 11.9375 C22.45757812 12.97777344 22.79015625 14.01804687 23.1328125 15.08984375 C25.68569949 25.16810298 25.12982804 35.94363156 25.0625 46.25 C25.05746786 47.59244622 25.05290802 48.9348943 25.04882812 50.27734375 C25.03717009 53.5182781 25.02080774 56.75911369 25 60 C28.61287777 51.75059575 32.04646285 43.5131365 35 35 C44.74591803 39.42865981 52.02640266 47.26760388 58 56 C58.33 56.33 58.66 56.66 59 57 C54.56413603 48.21934041 54.56413603 48.21934041 48 41 C47.27167969 40.34 46.54335937 39.68 45.79296875 39 C42.61689828 36.12665676 39.56816158 33.37877438 36 31 C36.66 28.69 37.32 26.38 38 24 C41.29820727 24.60969088 43.30698842 25.75497114 45.9375 27.8125 C46.63617188 28.35777344 47.33484375 28.90304688 48.0546875 29.46484375 C48.69664062 29.97144531 49.33859375 30.47804688 50 31 C50.845625 31.61875 51.69125 32.2375 52.5625 32.875 C58.79314522 38.30684455 63.54216383 44.96713876 68.30078125 51.6796875 C69.93958549 54.04138995 69.93958549 54.04138995 72 56 C65.47365027 41.27591828 56.71406651 30.76483468 44 21 C42.33133088 19.6691736 40.66400201 18.33665735 39 17 C39.33 15.35 39.66 13.7 40 12 C42.2109375 11.296875 42.2109375 11.296875 45 11 C48.76454087 13.0814185 51.82350669 16.11720806 55 19 C55.91652344 19.82242188 56.83304688 20.64484375 57.77734375 21.4921875 C69.22480898 32.31349404 79.43210963 47.41733717 82.625 63.0625 C81.63728844 69.28508285 77.68437607 72.97738499 73 77 C70.0153712 78.54820632 67.37976601 79 64 79 C64.33 79.99 64.66 80.98 65 82 C60.60546875 86.00390625 60.60546875 86.00390625 59 87 C58.01 86.67 57.02 86.34 56 86 C55.505 87.485 55.505 87.485 55 89 C54.4225 89.12375 53.845 89.2475 53.25 89.375 C50.71099342 89.87708537 50.71099342 89.87708537 48.5625 92.5 C45.71309794 95.27990445 44.83230405 95.55654767 41 96 C38.89237945 95.91802229 36.78647374 95.77009081 34.6875 95.5625 C33.61886719 95.46066406 32.55023438 95.35882813 31.44921875 95.25390625 C30.23685547 95.12822266 30.23685547 95.12822266 29 95 C29 95.66 29 96.32 29 97 C29.99 97 30.98 97 32 97 C32 97.99 32 98.98 32 100 C30.35 100 28.7 100 27 100 C27 100.66 27 101.32 27 102 C24.03 102 21.06 102 18 102 C17.92652344 100.58847656 17.92652344 100.58847656 17.8515625 99.1484375 C17.77679688 97.90320313 17.70203125 96.65796875 17.625 95.375 C17.55539063 94.14523438 17.48578125 92.91546875 17.4140625 91.6484375 C17.01782446 88.157057 16.18070118 85.29252443 15 82 C15 79.75 15 79.75 16 78 C19.0625 76.75 19.0625 76.75 22 76 C22 76.66 22 77.32 22 78 C22.66 78 23.32 78 24 78 C23.505 77.4225 23.01 76.845 22.5 76.25 C21 74 21 74 21 70 C21.99 70 22.98 70 24 70 C23.67 68.35 23.34 66.7 23 65 C19.04 70.28 15.08 75.56 11 81 C6 80 6 80 -1 78 C-0.67 52.26 -0.34 26.52 0 0 Z " fill="#B3D7F1" transform="translate(192,74)"/>
<path d="M0 0 C4.78489356 14.35468069 -1.26939583 34.52958594 -7 48 C-8.65625 49.91796875 -8.65625 49.91796875 -10 51 C-10.33 50.67 -10.66 50.34 -11 50 C-12.33333333 53 -12.33333333 53 -11 56 C-12 58.6875 -12 58.6875 -14 61 C-18.39092112 61.54886514 -20.28500878 61.47666082 -24 59 C-27.75139819 58.26443173 -31.26037873 57.97932486 -35.0625 58.125 C-39.23032459 57.99268811 -41.46372476 57.12176514 -45 55 C-45 53.02 -45 51.04 -45 49 C-48.96 49 -52.92 49 -57 49 C-56.34 47.35 -55.68 45.7 -55 44 C-56.65 44.66 -58.3 45.32 -60 46 C-60.268125 45.360625 -60.53625 44.72125 -60.8125 44.0625 C-61.88667752 41.66868314 -61.88667752 41.66868314 -65 41 C-65 41.66 -65 42.32 -65 43 C-65.66 43 -66.32 43 -67 43 C-68.72043288 40.04085545 -69.98012931 37.83456919 -70.0625 34.375 C-68.55032188 30.99483714 -66.07549026 29.99002311 -63 28 C-61.62156808 26.03081154 -60.28189588 24.03335209 -59 22 C-58.01 21.34 -57.02 20.68 -56 20 C-55.01 20.33 -54.02 20.66 -53 21 C-52.67 20.01 -52.34 19.02 -52 18 C-48.60629351 15.66321426 -44.66876147 15.32203447 -40.6875 14.6875 C-32.45115742 13.26858641 -24.8607224 10.81536512 -17 8 C-15.00159897 7.32855546 -13.00211971 6.66027352 -11 6 C-7.21913008 17.34260977 -12.37236039 31.1840118 -16 42 C-11.49382549 32.95931025 -8.17812129 25.0676393 -7.84375 14.9296875 C-7.81579346 14.21014893 -7.78783691 13.49061035 -7.7590332 12.74926758 C-7.71210922 11.31480304 -7.68899596 9.87932018 -7.69213867 8.4440918 C-7.63671875 6.44140625 -7.63671875 6.44140625 -7 3 C-4.58210971 1.02740776 -3.14342653 0 0 0 Z " fill="#C3DFF4" transform="translate(269,159)"/>
<path d="M0 0 C3.5625 1.75 3.5625 1.75 6 4 C6.763125 4.680625 7.52625 5.36125 8.3125 6.0625 C11.84722363 10.12088639 11.33061538 14.93529338 11.28125 20.05078125 C10.77540299 25.35514925 8.22984831 27.91656221 4.375 31.3125 C-0.74472202 34.95019722 -5.86997606 34.57769859 -12 34 C-17.28001186 31.45427999 -20.33270462 27.77882563 -23.3125 22.8125 C-24.59568077 17.56312411 -24.32086355 12.45070991 -21.73046875 7.64453125 C-15.83825774 -0.5448962 -9.82697277 -1.00350158 0 0 Z " fill="#37A9DF" transform="translate(194,156)"/>
<path d="M0 0 C5.71428571 0.71428571 5.71428571 0.71428571 7 2 C9.09181646 24.50688595 5.49632041 45.9747032 -7 65 C-9.96348429 66.9756562 -10.68020373 67.26376859 -14.01171875 67.4140625 C-14.76904297 67.45273438 -15.52636719 67.49140625 -16.30664062 67.53125 C-17.09232422 67.5621875 -17.87800781 67.593125 -18.6875 67.625 C-19.48478516 67.66367188 -20.28207031 67.70234375 -21.10351562 67.7421875 C-23.06863475 67.83632494 -25.0342854 67.91924632 -27 68 C-27 68.33 -27 68.66 -27 69 C-28.66611905 69.042721 -30.33382885 69.04063832 -32 69 C-32.33 68.67 -32.66 68.34 -33 68 C-35.32817964 67.63239269 -37.6618385 67.29758419 -40 67 C-40 66.34 -40 65.68 -40 65 C-40.99 65.99 -40.99 65.99 -42 67 C-42 67.66 -42 68.32 -42 69 C-43.485 69.495 -43.485 69.495 -45 70 C-52.78636952 65.56915412 -59.5116077 59.11495965 -66 53 C-66.57234375 52.46890625 -67.1446875 51.9378125 -67.734375 51.390625 C-68.86915316 50.3068481 -69.94446217 49.16109161 -71 48 C-71 47.34 -71 46.68 -71 46 C-69.35 46.33 -67.7 46.66 -66 47 C-66 48.32 -66 49.64 -66 51 C-64.35 50.34 -62.7 49.68 -61 49 C-61.33 50.32 -61.66 51.64 -62 53 C-58.37 53.33 -54.74 53.66 -51 54 C-51 55.98 -51 57.96 -51 60 C-46.47305527 61.64616172 -42.76927746 62.09627452 -37.9375 62 C-32.64853779 61.90070784 -28.7475526 62.6262237 -24 65 C-22.68 65 -21.36 65 -20 65 C-18.12456646 61.13236554 -18.12456646 61.13236554 -19 57 C-18.34 56.01 -17.68 55.02 -17 54 C-15.68 54 -14.36 54 -13 54 C-3.88218138 37.9552949 -0.32192578 22.80613784 -0.95703125 4.3671875 C-0.97121094 3.25601563 -0.98539062 2.14484375 -1 1 C-0.67 0.67 -0.34 0.34 0 0 Z " fill="#3CAADE" transform="translate(275,154)"/>
<path d="M0 0 C3.55858509 0.0113392 7.11686912 0.00466548 10.67544365 -0.00688934 C50.47182099 -0.11624522 50.47182099 -0.11624522 60.6027832 3.26074219 C60.2727832 4.25074219 59.9427832 5.24074219 59.6027832 6.26074219 C42.50528154 9.00334484 25.63439947 9.5497344 8.3527832 9.51074219 C6.84977661 9.50917114 6.84977661 9.50917114 5.31640625 9.50756836 C-5.82019834 9.48300834 -16.94158518 9.26443969 -28.0690918 8.80761719 C-29.03244446 8.76936829 -29.99579712 8.73111938 -30.98834229 8.69171143 C-31.88736267 8.65100525 -32.78638306 8.61029907 -33.71264648 8.56835938 C-34.89198761 8.51575958 -34.89198761 8.51575958 -36.09515381 8.46209717 C-38.58280918 8.24450894 -40.95887448 7.79186025 -43.3972168 7.26074219 C-43.3972168 5.61074219 -43.3972168 3.96074219 -43.3972168 2.26074219 C-29.03459536 -0.31991506 -14.5355949 -0.04692142 0 0 Z " fill="#BDE6F9" transform="translate(179.397216796875,301.7392578125)"/>
<path d="M0 0 C1.45375586 -0.00067654 2.90751161 -0.00164946 4.36126709 -0.00289917 C7.40036095 -0.00436531 10.43942524 -0.00226049 13.47851562 0.00244141 C17.30049757 0.00807766 21.12240899 0.00479418 24.94438839 -0.00099468 C38.6467763 -0.0186574 52.34246704 -0.00989035 66.03515625 0.57421875 C66.93208191 0.61243744 67.82900757 0.65065613 68.75311279 0.69003296 C75.54316105 1.02573053 82.18337061 1.81298822 88.859375 3.1328125 C88.859375 3.4628125 88.859375 3.7928125 88.859375 4.1328125 C86.219375 4.1328125 83.579375 4.1328125 80.859375 4.1328125 C80.859375 5.4528125 80.859375 6.7728125 80.859375 8.1328125 C83.829375 8.1328125 86.799375 8.1328125 89.859375 8.1328125 C89.859375 8.7928125 89.859375 9.4528125 89.859375 10.1328125 C74.73224544 11.99566101 59.82804805 12.414731 44.59765625 12.36328125 C42.22641525 12.36208538 39.85517378 12.36163715 37.4839325 12.3618927 C32.5567216 12.36034223 27.62958484 12.35215904 22.70239258 12.33862305 C16.4037979 12.32153205 10.10528344 12.31781253 3.80666828 12.31856823 C-1.07217669 12.31829594 -5.95100433 12.31280688 -10.82984352 12.30556679 C-13.15296104 12.30239945 -15.4760805 12.30041727 -17.79920006 12.29967308 C-21.04023955 12.29749469 -24.28119543 12.2887212 -27.5222168 12.27807617 C-28.46831818 12.27852936 -29.41441956 12.27898254 -30.38919067 12.27944946 C-34.66307939 12.25901893 -38.91781591 12.14992521 -43.17927551 11.81123352 C-43.89557034 11.75453649 -44.61186518 11.69783945 -45.34986591 11.63942432 C-47.140625 11.1328125 -47.140625 11.1328125 -49.140625 8.1328125 C-48.24085937 8.19339844 -47.34109375 8.25398438 -46.4140625 8.31640625 C9.08491544 13.49770751 9.08491544 13.49770751 63.859375 7.1328125 C64.189375 6.4728125 64.519375 5.8128125 64.859375 5.1328125 C46.56344831 3.16514928 28.38400673 2.84946329 10.00976562 2.93719482 C7.10870922 2.94814625 4.2076989 2.94765914 1.30662537 2.94705677 C-1.52109073 2.94732943 -4.34877702 2.95282188 -7.17648315 2.96005821 C-9.14833215 2.96471437 -11.12018726 2.96650609 -13.09204102 2.96821594 C-19.21460341 3.00067864 -25.08254012 3.27641192 -31.140625 4.1328125 C-33.14996806 4.20612893 -35.16122451 4.2413962 -37.171875 4.23046875 C-38.22890625 4.22724609 -39.2859375 4.22402344 -40.375 4.22070312 C-41.99148437 4.20813477 -41.99148437 4.20813477 -43.640625 4.1953125 C-44.74921875 4.19080078 -45.8578125 4.18628906 -47 4.18164062 C-49.71359899 4.16994408 -52.42708261 4.15355336 -55.140625 4.1328125 C-54.810625 3.4728125 -54.480625 2.8128125 -54.140625 2.1328125 C-53.35002686 2.10775635 -52.55942871 2.0827002 -51.74487305 2.05688477 C-48.10584198 1.93966815 -44.46699175 1.81752005 -40.828125 1.6953125 C-39.58482422 1.65599609 -38.34152344 1.61667969 -37.06054688 1.57617188 C-35.21879883 1.51333008 -35.21879883 1.51333008 -33.33984375 1.44921875 C-32.22440186 1.41256104 -31.10895996 1.37590332 -29.9597168 1.33813477 C-26.99405364 1.17869459 -24.08800805 0.92723413 -21.13696289 0.62133789 C-14.09569118 -0.03755222 -7.06606282 -0.01179042 0 0 Z " fill="#E0F3FD" transform="translate(175.140625,299.8671875)"/>
<path d="M0 0 C0.5534764 2.07553648 1 3.84365964 1 6 C0.34 6.66 -0.32 7.32 -1 8 C-0.34 9.98 0.32 11.96 1 14 C0.01 13.67 -0.98 13.34 -2 13 C-4.6569191 13.87914688 -4.6569191 13.87914688 -7 15 C-6.855625 16.299375 -6.71125 17.59875 -6.5625 18.9375 C-6.48128906 19.66839844 -6.40007812 20.39929688 -6.31640625 21.15234375 C-6.18113386 23.01140229 -6.18113386 23.01140229 -5 24 C-4.92728259 26.35313555 -4.91629132 28.70833668 -4.9375 31.0625 C-4.94652344 32.35285156 -4.95554688 33.64320313 -4.96484375 34.97265625 C-4.97644531 35.97167969 -4.98804688 36.97070312 -5 38 C-2.03 38 0.94 38 4 38 C2.8125 39.9375 2.8125 39.9375 1 42 C0.236875 42.0825 -0.52625 42.165 -1.3125 42.25 C-5.17396576 43.32761835 -6.33394995 45.82550256 -8.47265625 49.08984375 C-10 51 -10 51 -12.13671875 52.05859375 C-12.75160156 52.36925781 -13.36648437 52.67992187 -14 53 C-14.81584568 56.05908413 -14.81584568 56.05908413 -15 59 C-15.66 59 -16.32 59 -17 59 C-17.99 56.69 -18.98 54.38 -20 52 C-19.2575 51.29875 -18.515 50.5975 -17.75 49.875 C-11.98474093 43.8476837 -10.55577253 40.16474268 -10.56640625 31.90234375 C-11.249804 27.32788851 -13.13030902 24.76363111 -16.5625 21.75 C-20.46238201 18.95008471 -22.58157496 18.88902716 -27.375 18.9375 C-28.51710937 18.94652344 -29.65921875 18.95554688 -30.8359375 18.96484375 C-31.88007813 18.97644531 -32.92421875 18.98804688 -34 19 C-35.32 19 -36.64 19 -38 19 C-38.33 17.68 -38.66 16.36 -39 15 C-37.35 14.67 -35.7 14.34 -34 14 C-34.33 14.66 -34.66 15.32 -35 16 C-33.08364783 16.05423638 -31.16685075 16.09289963 -29.25 16.125 C-28.18265625 16.14820313 -27.1153125 16.17140625 -26.015625 16.1953125 C-23.03560316 16.0023059 -21.56982813 15.38330839 -19 14 C-17.65022151 14.63270867 -16.31647119 15.30062468 -15 16 C-12.49802467 15.71465955 -11.31435768 15.32007232 -9.53613281 13.50952148 C-8.87629395 12.57474976 -8.87629395 12.57474976 -8.203125 11.62109375 C-7.71972656 10.94755859 -7.23632812 10.27402344 -6.73828125 9.58007812 C-6.24714844 8.87302734 -5.75601563 8.16597656 -5.25 7.4375 C-4.74339844 6.72658203 -4.23679688 6.01566406 -3.71484375 5.28320312 C-2.46687697 3.52898568 -1.23214503 1.76536641 0 0 Z " fill="#EAF6FA" transform="translate(215,138)"/>
<path d="M0 0 C1.54412567 -0.00287018 1.54412567 -0.00287018 3.1194458 -0.00579834 C5.29122157 -0.00715501 7.46300559 -0.0034949 9.63476562 0.00488281 C12.92857481 0.01554553 16.22183314 0.00499231 19.515625 -0.0078125 C21.63541785 -0.00648996 23.75521037 -0.00392561 25.875 0 C27.33181183 -0.00607269 27.33181183 -0.00607269 28.8180542 -0.01226807 C35.46417498 0.0324211 41.70565048 0.88017913 48.203125 2.265625 C48.203125 2.925625 48.203125 3.585625 48.203125 4.265625 C44.73071413 6.58056558 43.40573173 6.51400934 39.31054688 6.50854492 C38.09919067 6.51162155 36.88783447 6.51469818 35.63977051 6.51786804 C34.33036499 6.51068253 33.02095947 6.50349701 31.671875 6.49609375 C30.31571496 6.49490138 28.95955409 6.49444891 27.60339355 6.4947052 C24.762073 6.49314149 21.92087865 6.48486075 19.07958984 6.47143555 C15.43779859 6.45444588 11.796146 6.4506213 8.15431976 6.45138073 C5.35421424 6.45110877 2.55413902 6.44562347 -0.24595642 6.43837929 C-2.24180737 6.43365019 -4.23766468 6.43191777 -6.23352051 6.43022156 C-8.05055481 6.42065178 -8.05055481 6.42065178 -9.90429688 6.41088867 C-10.97224487 6.40707687 -12.04019287 6.40326508 -13.14050293 6.39933777 C-15.796875 6.265625 -15.796875 6.265625 -18.796875 5.265625 C-18.466875 4.275625 -18.136875 3.285625 -17.796875 2.265625 C-11.95417496 -0.1034644 -6.23517214 -0.0257763 0 0 Z " fill="#8ED5F6" transform="translate(170.796875,302.734375)"/>
<path d="M0 0 C3.29820727 0.60969088 5.30698842 1.75497114 7.9375 3.8125 C8.63617188 4.35777344 9.33484375 4.90304688 10.0546875 5.46484375 C10.69664062 5.97144531 11.33859375 6.47804688 12 7 C13.2684375 7.928125 13.2684375 7.928125 14.5625 8.875 C18.08283841 11.94401297 21.03742923 15.39778327 24 19 C24.5259375 19.63808594 25.051875 20.27617188 25.59375 20.93359375 C27 22.75 27 22.75 29 26 C28.6796875 28.03515625 28.6796875 28.03515625 28 30 C27.566875 31.3303125 27.566875 31.3303125 27.125 32.6875 C26.75375 33.450625 26.3825 34.21375 26 35 C24.515 35.495 24.515 35.495 23 36 C22.48050781 35.04738281 21.96101563 34.09476563 21.42578125 33.11328125 C20.72179634 31.84610841 20.01734428 30.57919502 19.3125 29.3125 C18.80299805 28.37374023 18.80299805 28.37374023 18.28320312 27.41601562 C15.98279876 23.30968634 13.5064734 20.2074718 10 17 C9.22398437 16.28457031 8.44796875 15.56914063 7.6484375 14.83203125 C6.52308594 13.83236328 6.52308594 13.83236328 5.375 12.8125 C4.61960938 12.13832031 3.86421875 11.46414062 3.0859375 10.76953125 C0.92108134 8.86414749 0.92108134 8.86414749 -2 7 C-1.34 4.69 -0.68 2.38 0 0 Z " fill="#F1F8F9" transform="translate(230,98)"/>
<path d="M0 0 C2.23140012 1.7544817 4.22108012 3.47516629 6.25 5.4375 C7.10053955 6.24296265 7.10053955 6.24296265 7.96826172 7.06469727 C21.15580996 19.69484137 21.15580996 19.69484137 25 27 C24.9375 29.6875 24.9375 29.6875 24 32 C21.94140625 33.14453125 21.94140625 33.14453125 20 34 C19.39414062 33.09378906 18.78828125 32.18757813 18.1640625 31.25390625 C10.86259526 20.5533279 2.57256754 12.53073945 -8 5 C-7.625 2.5625 -7.625 2.5625 -7 0 C-4.16926641 -1.41536679 -3.00735506 -0.9812133 0 0 Z " fill="#F5FAFA" transform="translate(239,86)"/>
<path d="M0 0 C5.71428571 0.71428571 5.71428571 0.71428571 7 2 C7.28548028 5.92967927 7.23202497 9.87372183 7.25 13.8125 C7.270625 14.89982422 7.29125 15.98714844 7.3125 17.10742188 C7.34914679 24.81698935 6.21087722 31.61957164 4 39 C0.15478516 38.22363281 0.15478516 38.22363281 -1.23828125 36.2109375 C-2.04886938 33.85815348 -2.23537303 32.10569322 -2.1875 29.625 C-2.18105469 28.89539063 -2.17460937 28.16578125 -2.16796875 27.4140625 C-2 25 -2 25 -1.48828125 22.29296875 C-0.86113602 18.06350131 -0.93156476 13.95443752 -1 9.6875 C-1.04544225 6.7860122 -1.04743901 3.90267421 -1 1 C-0.67 0.67 -0.34 0.34 0 0 Z " fill="#FCFDFC" transform="translate(275,154)"/>
<path d="M0 0 C3.875 1.875 3.875 1.875 5 3 C5.37081449 6.05406937 5.36135695 7.50121208 3.53125 10.02734375 C-1.98981253 15.21926602 -7.69577447 19.79718298 -14 24 C-17.84927445 23.70390197 -20.08761258 22.48092261 -23 20 C-20.80326229 16.79642417 -18.69605821 14.6794407 -15.375 12.75 C-9.60085506 9.35728207 -4.72159738 4.72159738 0 0 Z " fill="#F0F8F8" transform="translate(253,234)"/>
<path d="M0 0 C0.11214844 0.62390625 0.22429687 1.2478125 0.33984375 1.890625 C0.85026199 4.28581702 0.85026199 4.28581702 3.5625 5.75 C4.366875 6.1625 5.17125 6.575 6 7 C-1.57709117 13.30811231 -13.51746363 16.82491644 -23.3125 17.375 C-27 17 -27 17 -29 15 C-29.33 14.34 -29.66 13.68 -30 13 C-26.535 12.505 -26.535 12.505 -23 12 C-23 10.68 -23 9.36 -23 8 C-21.76636719 7.63648438 -21.76636719 7.63648438 -20.5078125 7.265625 C-13.51529956 5.16625622 -6.72135672 2.8524042 0 0 Z " fill="#7DBCE9" transform="translate(231,251)"/>
<path d="M0 0 C5.75 1.75 5.75 1.75 8 4 C3.07386163 9.51258341 -2.12674253 14.05267369 -8.3125 18.0625 C-8.91078613 18.45622803 -9.50907227 18.84995605 -10.12548828 19.25561523 C-13.45538758 21.34814678 -14.95416662 22 -19 22 C-20.28631735 19.88135965 -21.03522934 18.53804807 -20.87109375 16.03125 C-19.60956319 13.08956439 -17.85881583 12.59999636 -15 11.25 C-9.16426329 8.27491854 -4.67535883 4.54837377 0 0 Z " fill="#F0F7FA" transform="translate(240,229)"/>
<path d="M0 0 C2.69055371 3.27860887 4.37928781 6.70702005 6.125 10.5625 C6.90230469 12.26599609 6.90230469 12.26599609 7.6953125 14.00390625 C9.70658744 18.62261246 10.09485915 21.97246495 10 27 C9.34 27.33 8.68 27.66 8 28 C7.67 26.02 7.34 24.04 7 22 C4.69 22.33 2.38 22.66 0 23 C0 22.34 0 21.68 0 21 C-0.93972656 21.34224609 -0.93972656 21.34224609 -1.8984375 21.69140625 C-2.71570313 21.97886719 -3.53296875 22.26632813 -4.375 22.5625 C-5.59316406 22.99755859 -5.59316406 22.99755859 -6.8359375 23.44140625 C-9 24 -9 24 -11 23 C-10.67 21.35 -10.34 19.7 -10 18 C-9.34 18 -8.68 18 -8 18 C-7.01 15.69 -6.02 13.38 -5 11 C-3.33333333 12.66666667 -1.66666667 14.33333333 0 16 C-0.31195313 15.46890625 -0.62390625 14.9378125 -0.9453125 14.390625 C-1.52925781 13.33101562 -1.52925781 13.33101562 -2.125 12.25 C-2.51945312 11.55390625 -2.91390625 10.8578125 -3.3203125 10.140625 C-4 8 -4 8 -3.1875 5.875 C-2.795625 5.25625 -2.40375 4.6375 -2 4 C-1.62875 3.2575 -1.2575 2.515 -0.875 1.75 C-0.58625 1.1725 -0.2975 0.595 0 0 Z " fill="#A4D0F0" transform="translate(264,114)"/>
<path d="M0 0 C-1.66666667 1.66666667 -3.33333333 3.33333333 -5 5 C-5.721875 5.763125 -6.44375 6.52625 -7.1875 7.3125 C-9 9 -9 9 -11 9 C-11 9.66 -11 10.32 -11 11 C-10.01 10.34 -9.02 9.68 -8 9 C-7.34 8.67 -6.68 8.34 -6 8 C-6 9.32 -6 10.64 -6 12 C-6.99 12.66 -7.98 13.32 -9 14 C-9.66 14.66 -10.32 15.32 -11 16 C-13.72131624 17.08498849 -16.41243384 18.07345371 -19.1875 19 C-19.98526855 19.2676416 -20.78303711 19.5352832 -21.60498047 19.81103516 C-29.01012506 22.18931905 -36.25925271 23.33781218 -44 24 C-44 23.34 -44 22.68 -44 22 C-42.35 22 -40.7 22 -39 22 C-39 21.01 -39 20.02 -39 19 C-39.99 19 -40.98 19 -42 19 C-42 18.34 -42 17.68 -42 17 C-38.42932634 16.19659843 -35.56968233 15.98657605 -32 16.625 C-27.86853573 17.24116484 -25.53988384 16.30504064 -22 14 C-21.443125 13.443125 -20.88625 12.88625 -20.3125 12.3125 C-19.879375 11.879375 -19.44625 11.44625 -19 11 C-18.01 11 -17.02 11 -16 11 C-15.67 9.68 -15.34 8.36 -15 7 C-14.67 7.66 -14.34 8.32 -14 9 C-12.82512964 8.24172908 -11.66027408 7.46792245 -10.5 6.6875 C-9.8503125 6.25824219 -9.200625 5.82898438 -8.53125 5.38671875 C-8.0259375 4.92910156 -7.520625 4.47148437 -7 4 C-7 3.01 -7 2.02 -7 1 C-4.53721199 -0.231394 -2.7204945 -0.07159196 0 0 Z " fill="#3FAAE1" transform="translate(263,152)"/>
<path d="M0 0 C1.45375586 -0.00067654 2.90751161 -0.00164946 4.36126709 -0.00289917 C7.40036095 -0.00436531 10.43942524 -0.00226049 13.47851562 0.00244141 C17.30049757 0.00807766 21.12240899 0.00479418 24.94438839 -0.00099468 C38.6467763 -0.0186574 52.34246704 -0.00989035 66.03515625 0.57421875 C66.93208191 0.61243744 67.82900757 0.65065613 68.75311279 0.69003296 C75.54316105 1.02573053 82.18337061 1.81298822 88.859375 3.1328125 C88.859375 3.4628125 88.859375 3.7928125 88.859375 4.1328125 C79.7830583 4.22835268 70.73587048 4.22944262 61.671875 3.6953125 C60.99068604 3.65607666 60.30949707 3.61684082 59.60766602 3.57641602 C56.67002057 3.38758032 53.80182942 3.12291065 50.8996582 2.62353516 C45.44489061 1.8326832 39.94546693 1.97019028 34.4453125 1.96484375 C33.23984772 1.96151535 32.03438293 1.95818695 30.79238892 1.95475769 C28.23887512 1.94970267 25.68535473 1.94734892 23.13183594 1.94750977 C19.29610694 1.9453473 15.46067726 1.92724304 11.625 1.90820312 C-1.2457293 1.87959211 -13.86171471 2.28343844 -26.65527344 3.68530273 C-32.59000596 4.32074206 -38.48994371 4.360968 -44.453125 4.2578125 C-45.50306641 4.24878906 -46.55300781 4.23976563 -47.63476562 4.23046875 C-50.13700412 4.20761726 -52.6386572 4.17527964 -55.140625 4.1328125 C-54.810625 3.4728125 -54.480625 2.8128125 -54.140625 2.1328125 C-53.35002686 2.10775635 -52.55942871 2.0827002 -51.74487305 2.05688477 C-48.10584198 1.93966815 -44.46699175 1.81752005 -40.828125 1.6953125 C-39.58482422 1.65599609 -38.34152344 1.61667969 -37.06054688 1.57617188 C-35.21879883 1.51333008 -35.21879883 1.51333008 -33.33984375 1.44921875 C-32.22440186 1.41256104 -31.10895996 1.37590332 -29.9597168 1.33813477 C-26.99405364 1.17869459 -24.08800805 0.92723413 -21.13696289 0.62133789 C-14.09569118 -0.03755222 -7.06606282 -0.01179042 0 0 Z " fill="#E6F5FD" transform="translate(175.140625,299.8671875)"/>
<path d="M0 0 C2.68895721 8.06687163 2.1541142 21.06813475 -1 29 C-3.58203125 30.328125 -3.58203125 30.328125 -6 31 C-9.03462007 25.9323266 -8.15561882 20.65221316 -7.9375 14.9375 C-7.92267578 13.83599609 -7.90785156 12.73449219 -7.89257812 11.59960938 C-7.85455078 10.54451172 -7.81652344 9.48941406 -7.77734375 8.40234375 C-7.74890381 7.43804443 -7.72046387 6.47374512 -7.69116211 5.48022461 C-7 3 -7 3 -4.57641602 1.16235352 C-2 0 -2 0 0 0 Z " fill="#EDF7FA" transform="translate(269,159)"/>
<path d="M0 0 C1.41377341 2.63904371 2.37240135 5.07120629 3 8 C3.66 8 4.32 8 5 8 C5.33 7.01 5.66 6.02 6 5 C7.47684655 9.66467387 6.32195722 13.17835858 4.75 17.625 C4.53214844 18.29273438 4.31429688 18.96046875 4.08984375 19.6484375 C2.91737679 23.07670347 1.89956576 25.7315162 -1 28 C-1.78375 27.67 -2.5675 27.34 -3.375 27 C-5.84332497 25.88133489 -5.84332497 25.88133489 -8 26 C-8.33 25.34 -8.66 24.68 -9 24 C-9 24.66 -9 25.32 -9 26 C-9.99 26 -10.98 26 -12 26 C-11.75 23.625 -11.75 23.625 -11 21 C-10.39027344 20.74476563 -9.78054687 20.48953125 -9.15234375 20.2265625 C-5.97621597 18.41657316 -5.2772086 16.04841834 -3.8125 12.75 C-3.30332031 11.63109375 -2.79414063 10.5121875 -2.26953125 9.359375 C-1.07483028 6.19801242 -0.4204299 3.34317754 0 0 Z " fill="#A4CFF1" transform="translate(260,182)"/>
<path d="M0 0 C7.3109749 -0.02324056 14.62194175 -0.04097456 21.93294621 -0.05181217 C25.3282763 -0.05701547 28.723581 -0.06406641 32.11889648 -0.07543945 C36.02847991 -0.08845213 39.93805329 -0.09324932 43.84765625 -0.09765625 C45.05833267 -0.10281754 46.26900909 -0.10797882 47.51637268 -0.11329651 C53.12503089 -0.1136679 58.45641121 0.05387549 64 1 C66.19482203 1.19923163 68.39165195 1.37739129 70.58984375 1.53515625 C72.38325195 1.66567383 72.38325195 1.66567383 74.21289062 1.79882812 C75.44201172 1.88583984 76.67113281 1.97285156 77.9375 2.0625 C79.82178711 2.19881836 79.82178711 2.19881836 81.74414062 2.33789062 C84.82927722 2.56077122 87.91455717 2.7814067 91 3 C91 4.32 91 5.64 91 7 C82.50103234 8.70479066 74.405878 9.25785291 65.75 9.125 C64.61175781 9.11597656 63.47351563 9.10695313 62.30078125 9.09765625 C59.53362119 9.0744028 56.7669324 9.04172868 54 9 C54 8.67 54 8.34 54 8 C54.90093384 7.92483154 54.90093384 7.92483154 55.82006836 7.84814453 C58.52681499 7.61683453 61.23206122 7.37111595 63.9375 7.125 C64.88302734 7.04636719 65.82855469 6.96773438 66.80273438 6.88671875 C67.70185547 6.80292969 68.60097656 6.71914063 69.52734375 6.6328125 C70.77632446 6.52283936 70.77632446 6.52283936 72.05053711 6.41064453 C72.69385986 6.27513184 73.33718262 6.13961914 74 6 C74.33 5.34 74.66 4.68 75 4 C57.99112073 2.33543933 41.08377538 1.61053676 24 1.375 C21.65233171 1.33666807 19.30467518 1.2976086 16.95703125 1.2578125 C11.30479471 1.16353725 5.65248269 1.0780531 0 1 C0 0.67 0 0.34 0 0 Z " fill="#CCEBFB" transform="translate(165,301)"/>
<path d="M0 0 C1.41377341 2.63904371 2.37240135 5.07120629 3 8 C4.32 8.33 5.64 8.66 7 9 C5.89061647 15.30596952 4.06802099 20.37529486 1 26 C-1.33333333 26 -3.66666667 26 -6 26 C-6.66 26.66 -7.32 27.32 -8 28 C-8.33 27.67 -8.66 27.34 -9 27 C-8.86284398 20.82797911 -6.26429564 16.35369312 -3.43359375 10.95703125 C-1.66767376 7.31452053 -0.76171139 3.96089925 0 0 Z " fill="#9DCDEE" transform="translate(272,184)"/>
<path d="M0 0 C0.66 0.33 1.32 0.66 2 1 C2 4.96 2 8.92 2 13 C5.3 12.67 8.6 12.34 12 12 C11.01 13.32 10.02 14.64 9 16 C8.236875 16.0825 7.47375 16.165 6.6875 16.25 C2.82603424 17.32761835 1.66605005 19.82550256 -0.47265625 23.08984375 C-2 25 -2 25 -4.13671875 26.05859375 C-4.75160156 26.36925781 -5.36648437 26.67992187 -6 27 C-6.81584568 30.05908413 -6.81584568 30.05908413 -7 33 C-7.66 33 -8.32 33 -9 33 C-9.99 30.69 -10.98 28.38 -12 26 C-11.2575 25.278125 -10.515 24.55625 -9.75 23.8125 C-7.30506867 21.31200205 -5.15419518 18.74845592 -3 16 C-2.34 15.34 -1.68 14.68 -1 14 C-0.79454782 11.16790836 -0.79454782 11.16790836 -0.9375 8 C-1.09794989 2.19589977 -1.09794989 2.19589977 0 0 Z " fill="#F7FBFB" transform="translate(207,164)"/>
<path d="M0 0 C2 0 4 0 6 0 C6.33 0.99 6.66 1.98 7 3 C8.32 2.01 9.64 1.02 11 0 C11 0.66 11 1.32 11 2 C12.32 2 13.64 2 15 2 C11.57894737 11.21052632 11.57894737 11.21052632 8 13 C5.11629667 13.07194869 2.25760336 13.09291708 -0.625 13.0625 C-1.42679688 13.05798828 -2.22859375 13.05347656 -3.0546875 13.04882812 C-5.03649006 13.03703168 -7.01825433 13.01909605 -9 13 C-6 11 -6 11 -2 11 C-0.12456646 7.13236554 -0.12456646 7.13236554 -1 3 C-0.67 2.01 -0.34 1.02 0 0 Z " fill="#7EBCE9" transform="translate(257,208)"/>
<path d="M0 0 C3.93748458 -0.02898816 7.87494179 -0.04679464 11.8125 -0.0625 C12.93205078 -0.07087891 14.05160156 -0.07925781 15.20507812 -0.08789062 C16.81479492 -0.09272461 16.81479492 -0.09272461 18.45703125 -0.09765625 C19.9416687 -0.10551147 19.9416687 -0.10551147 21.45629883 -0.11352539 C24 0 24 0 27 1 C26.67 1.99 26.34 2.98 26 4 C11.69514762 5.73291506 -2.34951544 6.25486654 -16.75 6.125 C-18.73046412 6.11493039 -20.71093332 6.10581171 -22.69140625 6.09765625 C-27.46106691 6.0760033 -32.23047427 6.04170288 -37 6 C-37 5.67 -37 5.34 -37 5 C-35.20598755 4.96241577 -35.20598755 4.96241577 -33.37573242 4.92407227 C-28.94202805 4.82996148 -24.508479 4.72974964 -20.07495117 4.62768555 C-18.15539175 4.5843506 -16.23579415 4.54267448 -14.31616211 4.50268555 C-11.55831386 4.44494822 -8.80065759 4.38126365 -6.04296875 4.31640625 C-5.18350143 4.29969376 -4.32403412 4.28298126 -3.43852234 4.26576233 C-2.63791885 4.24581711 -1.83731537 4.22587189 -1.01245117 4.20532227 C-0.3085173 4.18977798 0.39541656 4.1742337 1.12068176 4.15821838 C3.22699083 4.05518396 3.22699083 4.05518396 6 3 C6 2.34 6 1.68 6 1 C4.02 1 2.04 1 0 1 C0 0.67 0 0.34 0 0 Z " fill="#AEE0F7" transform="translate(213,304)"/>
<path d="M0 0 C0.5534764 2.07553648 1 3.84365964 1 6 C0.34 6.66 -0.32 7.32 -1 8 C-0.34 9.98 0.32 11.96 1 14 C0.01 13.67 -0.98 13.34 -2 13 C-4.6569191 13.87914688 -4.6569191 13.87914688 -7 15 C-6.855625 16.299375 -6.71125 17.59875 -6.5625 18.9375 C-6.48128906 19.66839844 -6.40007812 20.39929688 -6.31640625 21.15234375 C-6.18113386 23.01140229 -6.18113386 23.01140229 -5 24 C-4.92728259 26.35313555 -4.91629132 28.70833668 -4.9375 31.0625 C-4.94652344 32.35285156 -4.95554688 33.64320313 -4.96484375 34.97265625 C-4.97644531 35.97167969 -4.98804688 36.97070312 -5 38 C-3.02 38 -1.04 38 1 38 C1 38.33 1 38.66 1 39 C-1.31 39 -3.62 39 -6 39 C-6.02578125 38.20335937 -6.0515625 37.40671875 -6.078125 36.5859375 C-6.42605605 30.0859528 -6.85486377 26.05188479 -11 21 C-11.33 20.01 -11.66 19.02 -12 18 C-12.66 17.67 -13.32 17.34 -14 17 C-12.91138672 15.95779297 -12.91138672 15.95779297 -11.80078125 14.89453125 C-8.95103872 12.04478872 -6.57772831 8.9339295 -4.1875 5.6875 C-3.78080078 5.13771484 -3.37410156 4.58792969 -2.95507812 4.02148438 C-1.96631389 2.68374453 -0.98261415 1.34226377 0 0 Z " fill="#DBECF7" transform="translate(215,138)"/>
<path d="M0 0 C6.37675351 6.20440882 6.37675351 6.20440882 8 9 C7.8125 10.9375 7.8125 10.9375 7 13 C6.566875 14.3303125 6.566875 14.3303125 6.125 15.6875 C5.75375 16.450625 5.3825 17.21375 5 18 C4.01 18.33 3.02 18.66 2 19 C0.99267601 17.06629769 -0.00563288 15.12789694 -1 13.1875 C-1.556875 12.10855469 -2.11375 11.02960938 -2.6875 9.91796875 C-4 7 -4 7 -4 4 C-3.01 4 -2.02 4 -1 4 C-0.67 2.68 -0.34 1.36 0 0 Z " fill="#DEEFF8" transform="translate(251,115)"/>
<path d="M0 0 C3.81001125 3.59229632 7.56388896 7.31021795 10 12 C10.0625 14.8125 10.0625 14.8125 9 17 C7.02 17.99 7.02 17.99 5 19 C2.36 15.37 -0.28 11.74 -3 8 C-2.34 7.67 -1.68 7.34 -1 7 C-0.59270772 4.67843403 -0.25561323 2.3431213 0 0 Z " fill="#EFF7FA" transform="translate(254,101)"/>
<path d="M0 0 C8.60626006 5.34494046 13.7415683 11.79597041 18.8125 20.5 C19.39386719 21.37398437 19.97523438 22.24796875 20.57421875 23.1484375 C20.98285156 23.92445313 21.39148438 24.70046875 21.8125 25.5 C21.4825 26.49 21.1525 27.48 20.8125 28.5 C20.48378906 27.96632812 20.15507812 27.43265625 19.81640625 26.8828125 C13.65933471 17.23840234 6.77042934 9.29113621 -3.1875 3.5 C-3.8475 4.16 -4.5075 4.82 -5.1875 5.5 C-5.5175 3.52 -5.8475 1.54 -6.1875 -0.5 C-3.1875 -1.5 -3.1875 -1.5 0 0 Z " fill="#43ADDE" transform="translate(231.1875,106.5)"/>
<path d="M0 0 C3.73915208 4.48698249 7.14340956 9.41862791 6.8125 15.375 C6 18 6 18 5 20 C4.01 20 3.02 20 2 20 C-0.77779423 15.46293609 -3.22250616 11.34527016 -4 6 C-2.125 2.5625 -2.125 2.5625 0 0 Z " fill="#A2D0F0" transform="translate(264,114)"/>
<path d="M0 0 C4 1 4 1 6.0625 2.5625 C7.99946028 4.29792346 7.99946028 4.29792346 11 4 C11.28875 5.134375 11.5775 6.26875 11.875 7.4375 C12.24625 8.613125 12.6175 9.78875 13 11 C13.66 11.33 14.32 11.66 15 12 C9.7265625 15.22265625 9.7265625 15.22265625 8 16 C7.34 15.67 6.68 15.34 6 15 C6 12.69 6 10.38 6 8 C4.8553125 8.2784375 4.8553125 8.2784375 3.6875 8.5625 C1 9 1 9 -2 8 C-1.34 5.36 -0.68 2.72 0 0 Z " fill="#A7D1F0" transform="translate(208,240)"/>
<path d="M0 0 C0.81700882 0.0028299 1.63401764 0.00565979 2.4757843 0.00857544 C5.08426584 0.01976709 7.69240355 0.0448696 10.30078125 0.0703125 C12.0696565 0.08034362 13.83853713 0.08946924 15.60742188 0.09765625 C19.94284074 0.11970308 24.2780027 0.1542258 28.61328125 0.1953125 C28.61328125 1.1853125 28.61328125 2.1753125 28.61328125 3.1953125 C24.20247771 3.22021714 19.79171254 3.23826854 15.38085938 3.25024414 C13.88345628 3.25524193 12.38605798 3.2620424 10.88867188 3.27075195 C8.7239462 3.28301873 6.5592856 3.28858647 4.39453125 3.29296875 C2.44643555 3.30082397 2.44643555 3.30082397 0.45898438 3.30883789 C-3.56758548 3.1899733 -7.40086971 2.75558019 -11.38671875 2.1953125 C-7.54999592 -0.36250272 -4.44135888 -0.05775206 0 0 Z " fill="#6DCBF2" transform="translate(179.38671875,304.8046875)"/>
<path d="M0 0 C2.475 0.495 2.475 0.495 5 1 C5 2.32 5 3.64 5 5 C6.65 4.34 8.3 3.68 10 3 C9.67 4.32 9.34 5.64 9 7 C12.63 7.33 16.26 7.66 20 8 C20 9.98 20 11.96 20 14 C21.98 14.66 23.96 15.32 26 16 C21.13716412 17.59167314 17.50423553 16.10706611 13 14 C10.4207488 12.22480686 8.22379782 10.19732403 6 8 C5.41734375 7.45472656 4.8346875 6.90945312 4.234375 6.34765625 C2.77181695 4.95002484 1.37911751 3.48002855 0 2 C0 1.34 0 0.68 0 0 Z " fill="#91C4EA" transform="translate(204,200)"/>
<path d="M0 0 C2.64 0 5.28 0 8 0 C4.46262953 7.04072777 0.06490004 12.97993271 -5 19 C-5.66 18.67 -6.32 18.34 -7 18 C-7 15 -7 12 -7 9 C-4.92446352 8.4465236 -3.15634036 8 -1 8 C-0.67 5.36 -0.34 2.72 0 0 Z " fill="#83BDE6" transform="translate(208,136)"/>
<path d="M0 0 C1.58325829 0.00424484 1.58325829 0.00424484 3.19850159 0.00857544 C6.55042129 0.01971835 9.90206809 0.04481226 13.25390625 0.0703125 C15.53450133 0.0803499 17.81510063 0.08947442 20.09570312 0.09765625 C25.66936303 0.11963838 31.24286514 0.15305713 36.81640625 0.1953125 C36.81640625 0.5253125 36.81640625 0.8553125 36.81640625 1.1953125 C35.49922607 1.22036865 34.1820459 1.2454248 32.82495117 1.27124023 C27.94399063 1.36532132 23.06317217 1.46554042 18.18237305 1.56762695 C16.06880005 1.61097314 13.95519211 1.65264844 11.84155273 1.69262695 C8.80571961 1.75033699 5.77006236 1.81402951 2.734375 1.87890625 C1.78741257 1.89561874 0.84045013 1.91233124 -0.13520813 1.92955017 C-1.01589462 1.94949539 -1.89658112 1.96944061 -2.80395508 1.98999023 C-3.57894852 2.00553452 -4.35394196 2.0210788 -5.15242004 2.03709412 C-7.38691868 2.12886627 -7.38691868 2.12886627 -10.18359375 3.1953125 C-10.51359375 3.8553125 -10.84359375 4.5153125 -11.18359375 5.1953125 C-6.56359375 5.1953125 -1.94359375 5.1953125 2.81640625 5.1953125 C2.81640625 5.5253125 2.81640625 5.8553125 2.81640625 6.1953125 C-0.28774077 6.22434827 -3.39185284 6.2421232 -6.49609375 6.2578125 C-7.81770508 6.27038086 -7.81770508 6.27038086 -9.16601562 6.28320312 C-10.01357422 6.28642578 -10.86113281 6.28964844 -11.734375 6.29296875 C-12.51466064 6.29820557 -13.29494629 6.30344238 -14.09887695 6.30883789 C-16.18359375 6.1953125 -16.18359375 6.1953125 -19.18359375 5.1953125 C-18.85359375 4.2053125 -18.52359375 3.2153125 -18.18359375 2.1953125 C-12.22866951 -0.24880083 -6.35857385 -0.06474258 0 0 Z " fill="#A4DDF6" transform="translate(171.18359375,302.8046875)"/>
<path d="M0 0 C2.59947787 2.59947787 3.0684435 4.92738453 4.125 8.4375 C4.47820312 9.59121094 4.83140625 10.74492188 5.1953125 11.93359375 C6 15 6 15 6 18 C4.35 18.66 2.7 19.32 1 20 C0.67 19.34 0.34 18.68 0 18 C-0.66 18 -1.32 18 -2 18 C-2.054348 15.9377952 -2.09294961 13.87517184 -2.125 11.8125 C-2.14820313 10.66394531 -2.17140625 9.51539062 -2.1953125 8.33203125 C-2.00484152 5.08259628 -1.39360127 2.91339479 0 0 Z " fill="#A6D0EF" transform="translate(210,78)"/>
<path d="M0 0 C0.78375 0.598125 1.5675 1.19625 2.375 1.8125 C3.69856839 2.49834907 5.0305139 3.16862164 6.375 3.8125 C4.79856682 4.82334265 3.2135483 5.82080511 1.625 6.8125 C0.74328125 7.369375 -0.1384375 7.92625 -1.046875 8.5 C-3.625 9.8125 -3.625 9.8125 -7.625 9.8125 C-8.91524129 7.6873967 -9.625 6.25904501 -9.625 3.75 C-7.56954259 -0.23244872 -4.07100507 -1.84164515 0 0 Z " fill="#D4E7F7" transform="translate(228.625,241.1875)"/>
<path d="M0 0 C0.33 0 0.66 0 1 0 C1.33 18.48 1.66 36.96 2 56 C2.99 56.33 3.98 56.66 5 57 C5.66 57.66 6.32 58.32 7 59 C7.66 59 8.32 59 9 59 C9 61.31 9 63.62 9 66 C7.125 65.375 7.125 65.375 5 64 C3.75 60.875 3.75 60.875 3 58 C2.01 58 1.02 58 0 58 C0 38.86 0 19.72 0 0 Z " fill="#4AB2E0" transform="translate(191,196)"/>
<path d="M0 0 C1.41377341 2.63904371 2.37240135 5.07120629 3 8 C4.32 8.33 5.64 8.66 7 9 C6.34 11.31 5.68 13.62 5 16 C4.67 15.34 4.34 14.68 4 14 C3.34 14 2.68 14 2 14 C2 14.66 2 15.32 2 16 C0.68 16 -0.64 16 -2 16 C-2.66 16.66 -3.32 17.32 -4 18 C-4.42743816 12.44330386 -2.88325643 8.12284781 -1 3 C-0.67 2.01 -0.34 1.02 0 0 Z " fill="#C2DFF4" transform="translate(272,184)"/>
<path d="M0 0 C0.061875 0.598125 0.12375 1.19625 0.1875 1.8125 C1.3236757 4.87143458 3.17330142 5.55041099 6 7 C2.57837746 10.14789274 -0.4217178 10.66086799 -5 11 C-5.66 10.67 -6.32 10.34 -7 10 C-7 9.01 -7 8.02 -7 7 C-7.99 6.67 -8.98 6.34 -10 6 C-7.27521226 2.63408573 -3.93143208 1.55773724 0 0 Z " fill="#A7CFEF" transform="translate(231,251)"/>
<path d="M0 0 C3.85913184 1.51608751 5.45507368 3.80066405 8 7 C10.26749444 9.08139338 12.6172185 11.05227692 15 13 C14.34 13.66 13.68 14.32 13 15 C12.01 14.34 11.02 13.68 10 13 C9.67 13.66 9.34 14.32 9 15 C9.66 15.33 10.32 15.66 11 16 C10.34 17.32 9.68 18.64 9 20 C7.99403703 19.0479279 6.99538437 18.08812654 6 17.125 C5.443125 16.59132812 4.88625 16.05765625 4.3125 15.5078125 C3 14 3 14 3 12 C3.99 12 4.98 12 6 12 C5.58259614 7.13028826 3.45534852 5.27815116 0 2 C0 1.34 0 0.68 0 0 Z " fill="#3FADE2" transform="translate(161,127)"/>
<path d="M0 0 C0.99 0 1.98 0 3 0 C2.54775239 5.91492272 1.8417395 11.35199888 0 17 C-1.875 16.75 -1.875 16.75 -4 16 C-5.91184226 13.02602316 -6.22778191 10.74458497 -6.125 7.25 C-6.10695313 6.45078125 -6.08890625 5.6515625 -6.0703125 4.828125 C-6.04710937 4.22484375 -6.02390625 3.6215625 -6 3 C-5.3503125 3.7425 -5.3503125 3.7425 -4.6875 4.5 C-3.00259517 6.33218192 -3.00259517 6.33218192 0 6 C0 4.02 0 2.04 0 0 Z " fill="#DAECF9" transform="translate(279,176)"/>
<path d="M0 0 C1.17046875 0.10183594 2.3409375 0.20367187 3.546875 0.30859375 C4.43890625 0.39238281 5.3309375 0.47617188 6.25 0.5625 C5.25 2.5625 5.25 2.5625 2.25 4.5625 C2.25 4.8925 2.25 5.2225 2.25 5.5625 C-2.7 6.2225 -7.65 6.8825 -12.75 7.5625 C-12.75 6.9025 -12.75 6.2425 -12.75 5.5625 C-11.1 5.5625 -9.45 5.5625 -7.75 5.5625 C-7.75 4.5725 -7.75 3.5825 -7.75 2.5625 C-8.74 2.5625 -9.73 2.5625 -10.75 2.5625 C-10.75 1.9025 -10.75 1.2425 -10.75 0.5625 C-7.06599416 -0.66854155 -3.83525024 -0.34517252 0 0 Z " fill="#7FBDE8" transform="translate(231.75,168.4375)"/>
<path d="M0 0 C1.41377341 2.63904371 2.37240135 5.07120629 3 8 C3.66 8 4.32 8 5 8 C5.33 7.01 5.66 6.02 6 5 C7.71050559 9.97601626 6.00885647 13.42616295 4 18 C3.7525 17.360625 3.505 16.72125 3.25 16.0625 C2.18437567 13.81258459 2.18437567 13.81258459 -0.125 13.25 C-0.74375 13.1675 -1.3625 13.085 -2 13 C-1.39174965 8.65535464 -0.73832608 4.32448133 0 0 Z " fill="#C4E2F7" transform="translate(260,182)"/>
<path d="M0 0 C0.70511719 0.39832031 1.41023438 0.79664063 2.13671875 1.20703125 C-1.46152927 4.31928214 -5.401539 5.77038074 -9.80078125 7.39453125 C-10.50396484 7.66716797 -11.20714844 7.93980469 -11.93164062 8.22070312 C-15.70063735 9.63010302 -18.77266343 10.56726178 -22.86328125 10.20703125 C-22.86328125 9.21703125 -22.86328125 8.22703125 -22.86328125 7.20703125 C-21.79078125 7.18640625 -20.71828125 7.16578125 -19.61328125 7.14453125 C-14.14949043 6.54068984 -10.16464467 3.52446527 -5.6953125 0.5078125 C-2.86328125 -0.79296875 -2.86328125 -0.79296875 0 0 Z " fill="#42ABDF" transform="translate(230.86328125,248.79296875)"/>
<path d="M0 0 C0.99 0.33 1.98 0.66 3 1 C3 1.99 3 2.98 3 4 C5.475 4.99 5.475 4.99 8 6 C3.73847262 10.01801153 3.73847262 10.01801153 0.4375 9.9375 C-2.11718977 8.95492701 -3.92313706 7.76917954 -6 6 C-2.25 1.125 -2.25 1.125 0 0 Z " fill="#C9E2F7" transform="translate(236,248)"/>
<path d="M0 0 C-6.50542376 6.69675975 -13.61135443 12.75958576 -22 17 C-22.99 16.67 -23.98 16.34 -25 16 C-19.375 11 -19.375 11 -16 11 C-15.67 9.68 -15.34 8.36 -15 7 C-14.67 7.66 -14.34 8.32 -14 9 C-12.82512964 8.24172908 -11.66027408 7.46792245 -10.5 6.6875 C-9.8503125 6.25824219 -9.200625 5.82898438 -8.53125 5.38671875 C-8.0259375 4.92910156 -7.520625 4.47148437 -7 4 C-7 3.01 -7 2.02 -7 1 C-4.53721199 -0.231394 -2.7204945 -0.07159196 0 0 Z " fill="#7BBBEA" transform="translate(263,152)"/>
<path d="M0 0 C1.02230258 3.06690775 1.46591175 4.81626968 1 8 C-1.5 10.3125 -1.5 10.3125 -4 12 C-4.33 11.34 -4.66 10.68 -5 10 C-6.65 10 -8.3 10 -10 10 C-10 9.01 -10 8.02 -10 7 C-9.01 7.33 -8.02 7.66 -7 8 C-7 7.34 -7 6.68 -7 6 C-6.34 6 -5.68 6 -5 6 C-4.9175 5.38125 -4.835 4.7625 -4.75 4.125 C-4 2 -4 2 -1.9375 0.75 C-1.298125 0.5025 -0.65875 0.255 0 0 Z " fill="#F8FBFA" transform="translate(252,239)"/>
<path d="M0 0 C4.35346904 -0.20427229 8.70569897 -0.32796524 13.0625 -0.4375 C14.29162109 -0.49615234 15.52074219 -0.55480469 16.78710938 -0.61523438 C25.79788157 -0.78524894 25.79788157 -0.78524894 29.43310547 1.58935547 C31.1526256 3.3088756 32.62482514 4.99801624 34 7 C32.35 8.32 30.7 9.64 29 11 C28.7525 9.88625 28.505 8.7725 28.25 7.625 C27.41110048 4.03007103 27.41110048 4.03007103 25.26074219 2.79931641 C22.61158784 1.86267155 20.3862198 1.67954066 17.578125 1.5859375 C16.04091797 1.52792969 16.04091797 1.52792969 14.47265625 1.46875 C13.40917969 1.4378125 12.34570312 1.406875 11.25 1.375 C9.63158203 1.31699219 9.63158203 1.31699219 7.98046875 1.2578125 C5.32048225 1.16365369 2.6605006 1.07802613 0 1 C0 0.67 0 0.34 0 0 Z " fill="#4AB1E1" transform="translate(116,137)"/>
<path d="M0 0 C7.75 -0.125 7.75 -0.125 10 1 C10 1.99 10 2.98 10 4 C10.99 4 11.98 4 13 4 C12.67 4.99 12.34 5.98 12 7 C12 6.34 12 5.68 12 5 C9.69 5.66 7.38 6.32 5 7 C5 6.34 5 5.68 5 5 C3.35 5.66 1.7 6.32 0 7 C0 4.69 0 2.38 0 0 Z " fill="#DAECF8" transform="translate(192,74)"/>
<path d="M0 0 C2.83022097 3.99560608 1.76210446 7.42737323 1 12 C-0.65 12.66 -2.3 13.32 -4 14 C-6.60018816 10.09971775 -6.15085514 6.52565431 -6 2 C-5.34 3.32 -4.68 4.64 -4 6 C-3.34 6 -2.68 6 -2 6 C-1.855625 5.38125 -1.71125 4.7625 -1.5625 4.125 C-1 2 -1 2 0 0 Z " fill="#DCEBF7" transform="translate(267,176)"/>
<path d="M0 0 C-0.33 0.33 -0.66 0.66 -1 1 C-0.34 1.33 0.32 1.66 1 2 C1 2.99 1 3.98 1 5 C2.65 5.33 4.3 5.66 6 6 C2.55549263 8.29633824 0.06187717 8.54016485 -4 9 C-4 7.02 -4 5.04 -4 3 C-5.32 3 -6.64 3 -8 3 C-8 2.34 -8 1.68 -8 1 C-2.25 -1.125 -2.25 -1.125 0 0 Z " fill="#8BC4EC" transform="translate(223,256)"/>
<path d="M0 0 C0 0.99 0 1.98 0 3 C0.66 3 1.32 3 2 3 C2.33 2.34 2.66 1.68 3 1 C3.66 2.32 4.32 3.64 5 5 C4.01 5.99 3.02 6.98 2 8 C0.824375 7.505 0.824375 7.505 -0.375 7 C-2.84332497 5.88133489 -2.84332497 5.88133489 -5 6 C-5.33 5.34 -5.66 4.68 -6 4 C-6 4.66 -6 5.32 -6 6 C-6.99 6 -7.98 6 -9 6 C-8.625 3.5625 -8.625 3.5625 -8 1 C-5.29120665 -0.35439668 -2.99066732 -0.06501451 0 0 Z " fill="#97C8EB" transform="translate(257,202)"/>
<path d="M0 0 C1.62463842 -0.05395478 3.24978541 -0.09277195 4.875 -0.125 C5.77992187 -0.14820313 6.68484375 -0.17140625 7.6171875 -0.1953125 C10 0 10 0 12 2 C9.875 4.0625 9.875 4.0625 7 6 C3.6875 5.75 3.6875 5.75 1 5 C0.67 3.35 0.34 1.7 0 0 Z " fill="#F4F9FB" transform="translate(116,241)"/>
<path d="M0 0 C0.99 0.33 1.98 0.66 3 1 C-0.96 4.96 -4.92 8.92 -9 13 C-9.99 12.01 -10.98 11.02 -12 10 C-11.34 9.34 -10.68 8.68 -10 8 C-9.01 8.33 -8.02 8.66 -7 9 C-7.66 7.02 -8.32 5.04 -9 3 C-7.88625 3.0928125 -7.88625 3.0928125 -6.75 3.1875 C-3.50680777 2.96637326 -2.51492951 1.92811262 0 0 Z " fill="#48B1E4" transform="translate(178,203)"/>
<path d="M0 0 C0.33 0 0.66 0 1 0 C1 1.65 1 3.3 1 5 C1.66 5.33 2.32 5.66 3 6 C1.59014224 13.33126033 -1.51807217 19.43032485 -5 26 C-6.42375288 23.15249424 -5.31247387 21.41402825 -4.359375 18.52734375 C-3.87776927 17.11582907 -3.39600399 15.70436882 -2.9140625 14.29296875 C-1.33389263 9.50756794 -0.48509484 5.02016749 0 0 Z " fill="#48AFE2" transform="translate(258,176)"/>
<path d="M0 0 C1.5625 1.25 1.5625 1.25 3 3 C2.8125 4.875 2.8125 4.875 2 7 C1.566875 8.3303125 1.566875 8.3303125 1.125 9.6875 C0.75375 10.450625 0.3825 11.21375 0 12 C-0.99 12.33 -1.98 12.66 -3 13 C-7 6.25 -7 6.25 -7 4 C-4.525 4.99 -4.525 4.99 -2 6 C-0.42726432 3.1575146 -0.42726432 3.1575146 0 0 Z " fill="#BBDCF3" transform="translate(256,121)"/>
<path d="M0 0 C0.33 0 0.66 0 1 0 C2.22833173 6.70960376 2.46721552 13.38342948 2.75 20.1875 C2.81832031 21.47076172 2.88664063 22.75402344 2.95703125 24.07617188 C3.00730469 25.30271484 3.05757812 26.52925781 3.109375 27.79296875 C3.16061523 28.9121167 3.21185547 30.03126465 3.26464844 31.18432617 C3 34 3 34 0 37 C0 24.79 0 12.58 0 0 Z " fill="#77BBEA" transform="translate(216,98)"/>
<path d="M0 0 C3.02990095 1.71967351 5.76327296 3.29238306 8 6 C8 6.66 8 7.32 8 8 C5.03 8 2.06 8 -1 8 C-1.66 6.68 -2.32 5.36 -3 4 C-2.67 3.34 -2.34 2.68 -2 2 C-1.34 2 -0.68 2 0 2 C0 1.34 0 0.68 0 0 Z " fill="#39A9DF" transform="translate(133,159)"/>
<path d="M0 0 C3.01111938 4.51667907 3.10067926 7.6639991 3 13 C2.01 13.495 2.01 13.495 1 14 C0.67 12.02 0.34 10.04 0 8 C-2.31 8.33 -4.62 8.66 -7 9 C-7 8.34 -7 7.68 -7 7 C-7.66 7 -8.32 7 -9 7 C-8 5 -8 5 -5 4 C-5 4.66 -5 5.32 -5 6 C-4.01 6 -3.02 6 -2 6 C-1.34 4.02 -0.68 2.04 0 0 Z " fill="#85C0E7" transform="translate(271,128)"/>
<path d="M0 0 C2.50298434 2.93828597 3.46930939 5.17902761 4 9 C3.34 9 2.68 9 2 9 C2 9.66 2 10.32 2 11 C1.01 11.33 0.02 11.66 -1 12 C-1.99 10.68 -2.98 9.36 -4 8 C-2.66666667 5.33333333 -1.33333333 2.66666667 0 0 Z " fill="#C3E1F5" transform="translate(264,114)"/>
<path d="M0 0 C2.24973447 -0.054138 4.49984383 -0.09285491 6.75 -0.125 C8.00296875 -0.14820313 9.2559375 -0.17140625 10.546875 -0.1953125 C13.72820492 -0.01537302 15.36521896 0.31001418 18 2 C17.67 2.66 17.34 3.32 17 4 C12.71 4 8.42 4 4 4 C4.66 3.67 5.32 3.34 6 3 C6 2.34 6 1.68 6 1 C4.02 1 2.04 1 0 1 C0 0.67 0 0.34 0 0 Z " fill="#9EDBF6" transform="translate(213,304)"/>
<path d="M0 0 C1.45742463 -0.08096803 2.91612807 -0.13917774 4.375 -0.1875 C5.18710938 -0.22230469 5.99921875 -0.25710937 6.8359375 -0.29296875 C7.55007812 -0.19628906 8.26421875 -0.09960938 9 0 C9.66 0.99 10.32 1.98 11 3 C8.06171403 5.50298434 5.82097239 6.46930939 2 7 C1.34 4.69 0.68 2.38 0 0 Z " fill="#E7F4FA" transform="translate(218,232)"/>
<path d="M0 0 C4 4.24242424 4 4.24242424 4 7.6875 C3 10 3 10 0.9375 11.3125 C0.298125 11.539375 -0.34125 11.76625 -1 12 C-2.125 10.25 -2.125 10.25 -3 8 C-2.1875 6 -2.1875 6 -1 4 C-0.63215869 2.6757713 -0.28797019 1.34386088 0 0 Z " fill="#DEEFF7" transform="translate(260,108)"/>
<path d="M0 0 C2.00293347 3.00440021 2.49271626 4.70993945 3.125 8.1875 C3.29257813 9.08855469 3.46015625 9.98960938 3.6328125 10.91796875 C3.75398437 11.60503906 3.87515625 12.29210937 4 13 C2.35 13.66 0.7 14.32 -1 15 C-1.02693575 12.87506859 -1.04636628 10.75004088 -1.0625 8.625 C-1.07410156 7.44164063 -1.08570313 6.25828125 -1.09765625 5.0390625 C-1 2 -1 2 0 0 Z " fill="#89C3EA" transform="translate(212,83)"/>
<path d="M0 0 C4.95 0.33 9.9 0.66 15 1 C15 1.66 15 2.32 15 3 C18.63 3 22.26 3 26 3 C26 3.33 26 3.66 26 4 C8.47804054 4.20777027 8.47804054 4.20777027 2 3 C1.34 2.01 0.68 1.02 0 0 Z " fill="#E9F6FC" transform="translate(126,308)"/>
<path d="M0 0 C12.66970387 -0.3690205 12.66970387 -0.3690205 18 2 C17.67 2.66 17.34 3.32 17 4 C10.9981863 4.21824777 5.80766296 3.5056904 0 2 C0 1.34 0 0.68 0 0 Z " fill="#7BBBEA" transform="translate(231,216)"/>
<path d="M0 0 C1.65 0 3.3 0 5 0 C5.33 0.66 5.66 1.32 6 2 C6.99 1.67 7.98 1.34 9 1 C8.67 2.65 8.34 4.3 8 6 C7.67 5.34 7.34 4.68 7 4 C6.34 4 5.68 4 5 4 C5 4.66 5 5.32 5 6 C3.68 6 2.36 6 1 6 C0.34 6.66 -0.32 7.32 -1 8 C-1.125 2.25 -1.125 2.25 0 0 Z " fill="#B3D6F1" transform="translate(269,194)"/>
<path d="M0 0 C-2.1875 2.5625 -2.1875 2.5625 -5 5 C-7.8125 4.8125 -7.8125 4.8125 -10 4 C-10.33 4.66 -10.66 5.32 -11 6 C-11.33 4.68 -11.66 3.36 -12 2 C-10.75579353 1.4654744 -9.50429064 0.94791389 -8.25 0.4375 C-7.55390625 0.14746094 -6.8578125 -0.14257812 -6.140625 -0.44140625 C-3.69987216 -1.07831803 -2.3596345 -0.80248831 0 0 Z " fill="#F1F9F9" transform="translate(251,170)"/>
<path d="M0 0 C0.061875 0.598125 0.12375 1.19625 0.1875 1.8125 C1.3236757 4.87143458 3.17330142 5.55041099 6 7 C4 9 4 9 1.375 9.125 C0.59125 9.08375 -0.1925 9.0425 -1 9 C-1.28875 8.195625 -1.5775 7.39125 -1.875 6.5625 C-2.73262568 3.8673532 -2.73262568 3.8673532 -5 3 C-3.35 2.01 -1.7 1.02 0 0 Z " fill="#B8DBF4" transform="translate(231,251)"/>
<path d="M0 0 C0.66 0 1.32 0 2 0 C2.06058594 1.13179687 2.12117187 2.26359375 2.18359375 3.4296875 C2.26799917 4.91147145 2.35264717 6.3932416 2.4375 7.875 C2.47681641 8.62136719 2.51613281 9.36773437 2.55664062 10.13671875 C2.71573624 14.19986864 2.71573624 14.19986864 4 18 C2.125 18.625 2.125 18.625 0 19 C-2 17 -2 17 -2.265625 14.90625 C-2.25789062 13.71515625 -2.25789062 13.71515625 -2.25 12.5 C-2.25515625 11.7059375 -2.2603125 10.911875 -2.265625 10.09375 C-2 8 -2 8 0 6 C0.16681109 2.91652174 0.16681109 2.91652174 0 0 Z " fill="#59B5E5" transform="translate(138,232)"/>
<path d="M0 0 C5.75 1.75 5.75 1.75 8 4 C6.68 4.99 5.36 5.98 4 7 C3.67 6.34 3.34 5.68 3 5 C0.36 5.33 -2.28 5.66 -5 6 C-3.35 4.02 -1.7 2.04 0 0 Z " fill="#E7F3F8" transform="translate(240,229)"/>
<path d="M0 0 C0.66 0.33 1.32 0.66 2 1 C0.68 1.99 -0.64 2.98 -2 4 C-1.34 2.68 -0.68 1.36 0 0 Z M-8 2 C-6.02 2.66 -4.04 3.32 -2 4 C-2.66 4.5775 -3.32 5.155 -4 5.75 C-6.44290923 7.99653977 -6.44290923 7.99653977 -6 12 C-6.66 12 -7.32 12 -8 12 C-8.99 9.69 -9.98 7.38 -11 5 C-10.01 4.01 -9.02 3.02 -8 2 Z " fill="#ECF5FA" transform="translate(206,185)"/>
<path d="M0 0 C0.66 0.99 1.32 1.98 2 3 C1.01 3.495 1.01 3.495 0 4 C-0.33 3.34 -0.66 2.68 -1 2 C-2.32 2 -3.64 2 -5 2 C-5.12375 2.598125 -5.2475 3.19625 -5.375 3.8125 C-6 6 -6 6 -8 9 C-10 7 -10 7 -10.375 4.5625 C-10 2 -10 2 -8.375 0.125 C-5.16017375 -1.39781243 -3.36182684 -1.02316469 0 0 Z " fill="#E9F7FB" transform="translate(150,95)"/>
<path d="M0 0 C3.70488428 0.92622107 5.16604069 1.67210485 8 4 C7.401875 4.28875 6.80375 4.5775 6.1875 4.875 C3.80672208 6.04742026 3.80672208 6.04742026 1 8 C0.01 8 -0.98 8 -2 8 C-1.34 5.36 -0.68 2.72 0 0 Z " fill="#9FCFEF" transform="translate(208,240)"/>
<path d="M0 0 C1.2065625 0.0309375 1.2065625 0.0309375 2.4375 0.0625 C2.7675 0.7225 3.0975 1.3825 3.4375 2.0625 C2.7775 2.0625 2.1175 2.0625 1.4375 2.0625 C1.355 3.17625 1.2725 4.29 1.1875 5.4375 C0.4375 9.0625 0.4375 9.0625 -1.625 10.5 C-2.5840625 10.7784375 -2.5840625 10.7784375 -3.5625 11.0625 C-3.5625 10.0725 -3.5625 9.0825 -3.5625 8.0625 C-3.5934375 6.268125 -3.5934375 6.268125 -3.625 4.4375 C-3.54442499 0.08644939 -3.54442499 0.08644939 0 0 Z " fill="#95C7EA" transform="translate(204.5625,143.9375)"/>
<path d="M0 0 C4.02222388 2.01111194 5.48314253 3.40448933 8 7 C8 7.66 8 8.32 8 9 C5.69 9 3.38 9 1 9 C0.67 6.03 0.34 3.06 0 0 Z " fill="#E3F1F8" transform="translate(239,119)"/>
<path d="M0 0 C0.99 0.33 1.98 0.66 3 1 C2.67 1.99 2.34 2.98 2 4 C2.39397335 6.63804589 2.39397335 6.63804589 3 9 C2.401875 8.814375 1.80375 8.62875 1.1875 8.4375 C-1.16408762 7.77906313 -1.16408762 7.77906313 -4 9 C-2.25 2.25 -2.25 2.25 0 0 Z " fill="#F4F9F9" transform="translate(221,127)"/>
<path d="M0 0 C-0.61454696 3.99455527 -2.70646737 6.74466336 -5 10 C-5.66 9.67 -6.32 9.34 -7 9 C-6.34 7.02 -5.68 5.04 -5 3 C-5.66 3 -6.32 3 -7 3 C-7 2.34 -7 1.68 -7 1 C-4.53721199 -0.231394 -2.7204945 -0.07159196 0 0 Z " fill="#F0F8F9" transform="translate(96,96)"/>
<path d="M0 0 C3.63 0.33 7.26 0.66 11 1 C11 1.33 11 1.66 11 2 C8.36 2 5.72 2 3 2 C2.34 5.96 1.68 9.92 1 14 C0.67 14 0.34 14 0 14 C0 11.03 0 8.06 0 5 C-1.32 4.34 -2.64 3.68 -4 3 C-2.68 2.67 -1.36 2.34 0 2 C0 1.34 0 0.68 0 0 Z " fill="#D2ECF7" transform="translate(181,189)"/>
<path d="M0 0 C0.33 0 0.66 0 1 0 C1 5.61 1 11.22 1 17 C-0.98 15.35 -2.96 13.7 -5 12 C-4.34 11.34 -3.68 10.68 -3 10 C-2.35232207 7.42938689 -2.35232207 7.42938689 -2 5 C-1.67 5 -1.34 5 -1 5 C-0.67 3.35 -0.34 1.7 0 0 Z " fill="#5FB8E2" transform="translate(139,99)"/>
<path d="M0 0 C2.97 0.495 2.97 0.495 6 1 C6 1.66 6 2.32 6 3 C6.99 2.67 7.98 2.34 9 2 C8.67 3.65 8.34 5.3 8 7 C8.99 7.33 9.98 7.66 11 8 C10.67 8.99 10.34 9.98 10 11 C8.33035479 9.35718838 6.6643536 7.71067239 5 6.0625 C4.071875 5.14597656 3.14375 4.22945313 2.1875 3.28515625 C0 1 0 1 0 0 Z " fill="#43AADB" transform="translate(248,94)"/>
<path d="M0 0 C0.33 0.66 0.66 1.32 1 2 C1.99 2.33 2.98 2.66 4 3 C4.66 3.66 5.32 4.32 6 5 C6.66 5 7.32 5 8 5 C8 7.31 8 9.62 8 12 C4.74905801 10.95505436 3.43126714 9.40864509 1.75 6.5625 C0 3 0 3 0 0 Z " fill="#78BBE9" transform="translate(192,250)"/>
<path d="M0 0 C0.33 0.99 0.66 1.98 1 3 C2.65 3.33 4.3 3.66 6 4 C5.6875 5.9375 5.6875 5.9375 5 8 C4.01 8.33 3.02 8.66 2 9 C1.01 8.34 0.02 7.68 -1 7 C-0.67 4.69 -0.34 2.38 0 0 Z " fill="#B1D7F3" transform="translate(257,192)"/>
<path d="M0 0 C-0.33 0.99 -0.66 1.98 -1 3 C-3.31 3.33 -5.62 3.66 -8 4 C-8.33 5.65 -8.66 7.3 -9 9 C-9.33 9 -9.66 9 -10 9 C-10.35807422 2.67402207 -10.35807422 2.67402207 -8.9375 0 C-5.86664787 -1.58495594 -3.27813225 -0.68036707 0 0 Z " fill="#DFF1F6" transform="translate(125,101)"/>
<path d="M0 0 C0.33 0.66 0.66 1.32 1 2 C1.99 1.67 2.98 1.34 4 1 C4.061875 1.928125 4.061875 1.928125 4.125 2.875 C4.41375 3.57625 4.7025 4.2775 5 5 C7.99615946 6.3045656 7.99615946 6.3045656 11 7 C7.62700256 8.15006091 5.65146785 7.85199953 2.3125 6.6875 C1.52488281 6.42324219 0.73726562 6.15898437 -0.07421875 5.88671875 C-2 5 -2 5 -3 3 C-2.34 3 -1.68 3 -1 3 C-0.67 2.01 -0.34 1.02 0 0 Z " fill="#76BBE9" transform="translate(219,209)"/>
<path d="M0 0 C0.66 0.66 1.32 1.32 2 2 C2.99 1.34 3.98 0.68 5 0 C4.38461538 7.50769231 4.38461538 7.50769231 2.4375 10 C1.963125 10.33 1.48875 10.66 1 11 C-0.17571451 7.32589215 -0.07366746 3.83070817 0 0 Z " fill="#B4DAF1" transform="translate(249,192)"/>
<path d="M0 0 C0.33 1.32 0.66 2.64 1 4 C-0.32 4.33 -1.64 4.66 -3 5 C-2.01 5.9590625 -2.01 5.9590625 -1 6.9375 C1 9 1 9 1 10 C-0.98 10 -2.96 10 -5 10 C-5 7.36 -5 4.72 -5 2 C-3.35 2 -1.7 2 0 2 C0 1.34 0 0.68 0 0 Z " fill="#91C5EA" transform="translate(215,166)"/>
<path d="M0 0 C2.00720923 0.28674418 4.0085944 0.61866701 6 1 C6.33 2.65 6.66 4.3 7 6 C6.67 5.34 6.34 4.68 6 4 C5.01 4 4.02 4 3 4 C3 4.66 3 5.32 3 6 C2.01 5.67 1.02 5.34 0 5 C-0.75 3 -0.75 3 -1 1 C-0.67 0.67 -0.34 0.34 0 0 Z " fill="#E2F4F9" transform="translate(275,154)"/>
<path d="M0 0 C0.66 0.33 1.32 0.66 2 1 C1.67 1.99 1.34 2.98 1 4 C0.34 4 -0.32 4 -1 4 C-1.66 5.98 -2.32 7.96 -3 10 C-4.32 9.67 -5.64 9.34 -7 9 C-4.69 6.03 -2.38 3.06 0 0 Z " fill="#ECF7F7" transform="translate(286,242)"/>
<path d="M0 0 C0.33 0.99 0.66 1.98 1 3 C1.66 3 2.32 3 3 3 C3.33 3.99 3.66 4.98 4 6 C4.66 6.33 5.32 6.66 6 7 C5.67 7.99 5.34 8.98 5 10 C3.35 10.33 1.7 10.66 0 11 C0 7.37 0 3.74 0 0 Z " fill="#EBF5FC" transform="translate(274,173)"/>
<path d="M0 0 C2.45605371 2.55274874 2.98802939 3.85890643 3.29296875 7.453125 C3.24076172 9.33257812 3.24076172 9.33257812 3.1875 11.25 C3.14689453 13.14492187 3.14689453 13.14492187 3.10546875 15.078125 C3.07066406 16.04234375 3.03585938 17.0065625 3 18 C4.98 18 6.96 18 9 18 C9 18.33 9 18.66 9 19 C6.69 19 4.38 19 2 19 C1.95101562 18.20335937 1.90203125 17.40671875 1.8515625 16.5859375 C1.29970605 8.61842686 1.29970605 8.61842686 -1 1 C-0.67 0.67 -0.34 0.34 0 0 Z " fill="#CFE5F4" transform="translate(207,158)"/>
<path d="M0 0 C0.66 0 1.32 0 2 0 C2.33 1.98 2.66 3.96 3 6 C1.02 6.99 1.02 6.99 -1 8 C-1 7.34 -1 6.68 -1 6 C-2.32 5.34 -3.64 4.68 -5 4 C-4.67 3.34 -4.34 2.68 -4 2 C-2.68 2 -1.36 2 0 2 C0 1.34 0 0.68 0 0 Z " fill="#D2E5F6" transform="translate(254,120)"/>
<path d="M0 0 C0.99 0 1.98 0 3 0 C3.33 0.66 3.66 1.32 4 2 C5.97888961 2.72693904 7.97954558 3.39816251 10 4 C9.67 4.66 9.34 5.32 9 6 C3.52173913 6.36521739 3.52173913 6.36521739 1.125 4.6875 C0 3 0 3 0 0 Z " fill="#E4F3F9" transform="translate(161,254)"/>
<path d="M0 0 C0.99 0.33 1.98 0.66 3 1 C3 1.99 3 2.98 3 4 C5.475 4.99 5.475 4.99 8 6 C7.34 6.66 6.68 7.32 6 8 C2.98694043 7.61121812 1.60314689 6.73543126 -1 5 C-0.67 3.35 -0.34 1.7 0 0 Z " fill="#D6E9F7" transform="translate(236,248)"/>
<path d="M0 0 C1.98 0.99 3.96 1.98 6 3 C6 3.66 6 4.32 6 5 C3.1875 5.6875 3.1875 5.6875 0 6 C-1.875 4.5625 -1.875 4.5625 -3 3 C-2.34 3 -1.68 3 -1 3 C-0.67 2.01 -0.34 1.02 0 0 Z " fill="#E7F5F8" transform="translate(166,226)"/>
<path d="M0 0 C2.475 0.495 2.475 0.495 5 1 C5 2.32 5 3.64 5 5 C6.65 4.34 8.3 3.68 10 3 C9.67 3.99 9.34 4.98 9 6 C8.34 6 7.68 6 7 6 C6.67 6.66 6.34 7.32 6 8 C4.99403703 7.0479279 3.99538437 6.08812654 3 5.125 C2.443125 4.59132812 1.88625 4.05765625 1.3125 3.5078125 C0 2 0 2 0 0 Z " fill="#A7CFEB" transform="translate(204,200)"/>
<path d="M0 0 C0.66 0 1.32 0 2 0 C2 1.32 2 2.64 2 4 C4.475 4.99 4.475 4.99 7 6 C6.34 6.66 5.68 7.32 5 8 C3.68 8 2.36 8 1 8 C-0.42944945 5.64561267 -1.08661261 4.51967567 -0.625 1.75 C-0.41875 1.1725 -0.2125 0.595 0 0 Z " fill="#B6DAF4" transform="translate(220,243)"/>
<path d="M0 0 C3.36591866 1.44253657 5.51047079 3.33264727 8 6 C5.39417629 6.93065133 4.35801776 7.14917407 1.75 6.0625 C1.1725 5.711875 0.595 5.36125 0 5 C0 3.35 0 1.7 0 0 Z " fill="#C6E1F3" transform="translate(222,242)"/>
<path d="M0 0 C0.33 0.66 0.66 1.32 1 2 C1.66 2 2.32 2 3 2 C2.50168276 5.68754757 1.89932357 7.60490662 -1 10 C-1.33 9.67 -1.66 9.34 -2 9 C-1.30232558 2.60465116 -1.30232558 2.60465116 0 0 Z " fill="#8EC3EB" transform="translate(265,202)"/>
<path d="M0 0 C1.61949011 2.57213134 2.04408751 3.67669159 1.625 6.75 C1.41875 7.4925 1.2125 8.235 1 9 C-0.32 8.67 -1.64 8.34 -3 8 C-3.33 6.35 -3.66 4.7 -4 3 C-3.01 2.67 -2.02 2.34 -1 2 C-0.67 1.34 -0.34 0.68 0 0 Z " fill="#D0E6F8" transform="translate(278,184)"/>
<path d="M0 0 C0.66 0 1.32 0 2 0 C2.33 1.65 2.66 3.3 3 5 C1.68 5.99 0.36 6.98 -1 8 C-1.33 7.01 -1.66 6.02 -2 5 C-3.65 4.67 -5.3 4.34 -7 4 C-7 3.67 -7 3.34 -7 3 C-5.5459375 2.5359375 -5.5459375 2.5359375 -4.0625 2.0625 C-1.15934208 1.30476658 -1.15934208 1.30476658 0 0 Z " fill="#E2F3F8" transform="translate(169,176)"/>
<path d="M0 0 C0.66 0.33 1.32 0.66 2 1 C1.67 1.33 1.34 1.66 1 2 C4.96 2.33 8.92 2.66 13 3 C13 3.33 13 3.66 13 4 C11.25021843 4.16894443 9.50016388 4.33506309 7.75 4.5 C6.77546875 4.5928125 5.8009375 4.685625 4.796875 4.78125 C2.53697847 4.95800168 0.26679807 5 -2 5 C-2.33 3.68 -2.66 2.36 -3 1 C-2.01 0.67 -1.02 0.34 0 0 Z " fill="#CDEAF7" transform="translate(179,152)"/>
<path d="M0 0 C2.31 1.98 4.62 3.96 7 6 C6.34 6.66 5.68 7.32 5 8 C5 7.34 5 6.68 5 6 C3.02 6.33 1.04 6.66 -1 7 C-1 6.34 -1 5.68 -1 5 C-1.99 4.67 -2.98 4.34 -4 4 C-2.68 4 -1.36 4 0 4 C0 2.68 0 1.36 0 0 Z " fill="#48ADE2" transform="translate(120,115)"/>
<path d="M0 0 C0.99 1.32 1.98 2.64 3 4 C2.67 4.66 2.34 5.32 2 6 C1.67 6.99 1.34 7.98 1 9 C0.01 9.33 -0.98 9.66 -2 10 C-2.66 9.01 -3.32 8.02 -4 7 C-2.68 4.69 -1.36 2.38 0 0 Z " fill="#EFF8F8" transform="translate(293,230)"/>
<path d="M0 0 C4.29 0 8.58 0 13 0 C13 0.33 13 0.66 13 1 C11.23050388 1.50471197 9.45934777 2.00360685 7.6875 2.5 C6.20830078 2.91765625 6.20830078 2.91765625 4.69921875 3.34375 C2 4 2 4 -1 4 C-0.67 2.68 -0.34 1.36 0 0 Z " fill="#EBF6FB" transform="translate(147,57)"/>
<path d="M0 0 C0 3.19219704 -0.23605791 4.39608549 -2 7 C-4.4375 8.3125 -4.4375 8.3125 -7 9 C-7.99 8.67 -8.98 8.34 -10 8 C-6.7 5.36 -3.4 2.72 0 0 Z " fill="#F0F8F7" transform="translate(269,261)"/>
<path d="M0 0 C5.02692063 0.45699278 8.14896261 2.99241748 12 6 C10.265625 6.6796875 10.265625 6.6796875 8 7 C5.859375 5.8203125 5.859375 5.8203125 3.75 4.125 C3.04359375 3.57070312 2.3371875 3.01640625 1.609375 2.4453125 C1.07828125 1.96835938 0.5471875 1.49140625 0 1 C0 0.67 0 0.34 0 0 Z " fill="#EEF6F7" transform="translate(218,217)"/>
<path d="M0 0 C1.32 0.33 2.64 0.66 4 1 C3.34 2.98 2.68 4.96 2 7 C0.35 7 -1.3 7 -3 7 C-2.690625 6.401875 -2.38125 5.80375 -2.0625 5.1875 C-0.89790296 2.91043228 -0.89790296 2.91043228 0 0 Z " fill="#8EC6ED" transform="translate(271,203)"/>
<path d="M0 0 C0.66 0 1.32 0 2 0 C0.61811547 3.21043882 -0.92421903 5.04936365 -3.625 7.25 C-4.57246094 8.03117188 -4.57246094 8.03117188 -5.5390625 8.828125 C-6.02117187 9.21484375 -6.50328125 9.6015625 -7 10 C-7.33 8.68 -7.66 7.36 -8 6 C-5.99967627 4.99983813 -4.16874252 4.50603992 -2 4 C-2 3.34 -2 2.68 -2 2 C-1.34 2 -0.68 2 0 2 C0 1.34 0 0.68 0 0 Z " fill="#4AB2E0" transform="translate(109,180)"/>
<path d="M0 0 C0.99 0.33 1.98 0.66 3 1 C0.11658466 5.21422242 -2.04303419 6.76075855 -7 8 C-6.02133662 6.85373678 -5.04205413 5.70800212 -4.0625 4.5625 C-3.51722656 3.92441406 -2.97195312 3.28632813 -2.41015625 2.62890625 C-1.63204305 1.73008851 -0.84063472 0.84063472 0 0 Z " fill="#E0F2F7" transform="translate(253,234)"/>
<path d="M0 0 C-7.28571429 3.42857143 -7.28571429 3.42857143 -12 3 C-12 2.01 -12 1.02 -12 0 C-3.42857143 -1.28571429 -3.42857143 -1.28571429 0 0 Z " fill="#55B0E2" transform="translate(220,256)"/>
<path d="M0 0 C1.485 0.99 1.485 0.99 3 2 C2.67 4.64 2.34 7.28 2 10 C1.01 10 0.02 10 -1 10 C-0.67 6.7 -0.34 3.4 0 0 Z " fill="#4CB1E2" transform="translate(171,166)"/>
<path d="M0 0 C1.65 0 3.3 0 5 0 C5.33 1.32 5.66 2.64 6 4 C4.02 4.99 2.04 5.98 0 7 C0 4.69 0 2.38 0 0 Z " fill="#F7FAFB" transform="translate(192,74)"/>
<path d="M0 0 C-1.26239712 0.86658615 -2.53527501 1.71792059 -3.8125 2.5625 C-4.87404297 3.27599609 -4.87404297 3.27599609 -5.95703125 4.00390625 C-8 5 -8 5 -11 4 C-10.67 3.34 -10.34 2.68 -10 2 C-9.34 2 -8.68 2 -8 2 C-8 1.34 -8 0.68 -8 0 C-4.90645403 -0.99435406 -3.09720845 -0.87840996 0 0 Z " fill="#E7F6F9" transform="translate(130,70)"/>
<path d="M0 0 C0.33 0 0.66 0 1 0 C1 2.64 1 5.28 1 8 C-0.32 7.67 -1.64 7.34 -3 7 C-2.25 2.25 -2.25 2.25 0 0 Z " fill="#34A8DE" transform="translate(180,222)"/>
<path d="M0 0 C0.66 1.32 1.32 2.64 2 4 C0.35 5.32 -1.3 6.64 -3 8 C-3 7.01 -3 6.02 -3 5 C-3.66 5 -4.32 5 -5 5 C-5 4.34 -5 3.68 -5 3 C-2.5 1.375 -2.5 1.375 0 0 Z " fill="#43AFE1" transform="translate(164,183)"/>
<path d="M0 0 C0.66 0.66 1.32 1.32 2 2 C3.31747324 2.69748583 4.64914193 3.36959957 6 4 C6 4.66 6 5.32 6 6 C4.02 6.66 2.04 7.32 0 8 C0 5.36 0 2.72 0 0 Z " fill="#96C9EC" transform="translate(214,248)"/>
<path d="M0 0 C3 1 3 1 4 2 C4.99 2 5.98 2 7 2 C7 2.99 7 3.98 7 5 C6.34 5.66 5.68 6.32 5 7 C2.875 6.625 2.875 6.625 1 6 C0.67 4.02 0.34 2.04 0 0 Z " fill="#31A7D9" transform="translate(157,214)"/>
<path d="M0 0 C0.99 0.66 1.98 1.32 3 2 C2.67 3.32 2.34 4.64 2 6 C-0.31 6 -2.62 6 -5 6 C-5 5.67 -5 5.34 -5 5 C-3.02 5 -1.04 5 1 5 C-0.32 4.67 -1.64 4.34 -3 4 C-2.67 3.01 -2.34 2.02 -2 1 C-1.34 0.67 -0.68 0.34 0 0 Z " fill="#40ABDC" transform="translate(165,160)"/>
<path d="M0 0 C-3.465 2.97 -3.465 2.97 -7 6 C-7 4.02 -7 2.04 -7 0 C-4 -1 -4 -1 0 0 Z " fill="#7BBBEA" transform="translate(271,145)"/>
<path d="M0 0 C0.5534764 2.07553648 1 3.84365964 1 6 C0.01 6 -0.98 6 -2 6 C-2.66 7.32 -3.32 8.64 -4 10 C-4.33 9.01 -4.66 8.02 -5 7 C-4.00390625 5.17578125 -4.00390625 5.17578125 -2.5625 3.3125 C-2.08941406 2.68988281 -1.61632812 2.06726563 -1.12890625 1.42578125 C-0.75636719 0.95527344 -0.38382813 0.48476562 0 0 Z " fill="#E9F6FA" transform="translate(215,138)"/>
<path d="M0 0 C2.4375 0.75 2.4375 0.75 5 2 C5.8125 4.125 5.8125 4.125 6 6 C5.01 6.495 5.01 6.495 4 7 C3.34 6.67 2.68 6.34 2 6 C2 5.34 2 4.68 2 4 C1.34 4 0.68 4 0 4 C0 2.68 0 1.36 0 0 Z " fill="#F3F9F8" transform="translate(232,113)"/>
<path d="M0 0 C0.99 0.495 0.99 0.495 2 1 C2.13277344 1.62390625 2.26554688 2.2478125 2.40234375 2.890625 C3.1716486 5.60581857 4.23461005 6.22629021 6.5625 7.75 C7.20316406 8.17796875 7.84382812 8.6059375 8.50390625 9.046875 C8.99761719 9.36140625 9.49132812 9.6759375 10 10 C9.01 10.495 9.01 10.495 8 11 C7.01 10.67 6.02 10.34 5 10 C5 9.34 5 8.68 5 8 C3.68 7.67 2.36 7.34 1 7 C0.67 4.69 0.34 2.38 0 0 Z " fill="#4DB0DE" transform="translate(230,87)"/>
<path d="M0 0 C3.45925163 1.2491742 6.14693203 2.67527795 9 5 C6.36 5 3.72 5 1 5 C0.67 3.35 0.34 1.7 0 0 Z " fill="#F0F8F7" transform="translate(125,274)"/>
<path d="M0 0 C1.98 0.66 3.96 1.32 6 2 C6 2.99 6 3.98 6 5 C4.02 5.99 4.02 5.99 2 7 C1.34 4.69 0.68 2.38 0 0 Z " fill="#E3F3F7" transform="translate(230,224)"/>
<path d="M0 0 C0.66 0.66 1.32 1.32 2 2 C1 5 1 5 -1.9375 6.75 C-3.4534375 7.36875 -3.4534375 7.36875 -5 8 C-5.66 7.67 -6.32 7.34 -7 7 C-4.69 4.69 -2.38 2.38 0 0 Z " fill="#41ADE1" transform="translate(175,195)"/>
<path d="M0 0 C1.32 0 2.64 0 4 0 C4 0.66 4 1.32 4 2 C4.66 2 5.32 2 6 2 C5.67 3.98 5.34 5.96 5 8 C4.7525 7.38125 4.505 6.7625 4.25 6.125 C2.79371361 3.64931313 1.62187494 3.04874998 -1 2 C-0.67 1.34 -0.34 0.68 0 0 Z " fill="#BFDBF0" transform="translate(259,192)"/>
<path d="M0 0 C2.475 0.99 2.475 0.99 5 2 C5 2.66 5 3.32 5 4 C2.03 4 -0.94 4 -4 4 C-3.67 3.01 -3.34 2.02 -3 1 C-2.01 1.33 -1.02 1.66 0 2 C0 1.34 0 0.68 0 0 Z " fill="#54B4E5" transform="translate(136,163)"/>
<path d="M0 0 C0.33 0 0.66 0 1 0 C1.268125 0.9075 1.53625 1.815 1.8125 2.75 C2.89576294 5.71471963 3.98359457 7.6169754 6 10 C3.625 9.75 3.625 9.75 1 9 C-0.375 7.25 -0.375 7.25 -1 5 C-0.625 2.25 -0.625 2.25 0 0 Z " fill="#51B1E3" transform="translate(114,105)"/>
<path d="M0 0 C1.32 0 2.64 0 4 0 C3.60196439 2.88575819 3.20990931 3.82189513 0.9375 5.75 C0.298125 6.1625 -0.34125 6.575 -1 7 C-1 4.37886292 -0.68707555 2.49064888 0 0 Z " fill="#F2F9F9" transform="translate(106,81)"/>
<path d="M0 0 C0.99 0 1.98 0 3 0 C3 0.99 3 1.98 3 3 C3.99 3.33 4.98 3.66 6 4 C6.33 4.66 6.66 5.32 7 6 C4.03 5.505 4.03 5.505 1 5 C0.67 3.35 0.34 1.7 0 0 Z " fill="#E3F1F7" transform="translate(116,241)"/>
<path d="M0 0 C0.33 1.32 0.66 2.64 1 4 C1.66 4 2.32 4 3 4 C3 6.97 3 9.94 3 13 C2.67 13 2.34 13 2 13 C1.67 10.69 1.34 8.38 1 6 C0.01 6 -0.98 6 -2 6 C-1.34 4.02 -0.68 2.04 0 0 Z " fill="#D9EFF7" transform="translate(179,217)"/>
<path d="M0 0 C0.93065133 2.60582371 1.14917407 3.64198224 0.0625 6.25 C-0.4634375 7.11625 -0.4634375 7.11625 -1 8 C-1.99 8 -2.98 8 -4 8 C-4.33 7.01 -4.66 6.02 -5 5 C-3.35 3.35 -1.7 1.7 0 0 Z " fill="#94C5EE" transform="translate(270,126)"/>
<path d="M0 0 C7.75 0.875 7.75 0.875 10 2 C9.67 2.99 9.34 3.98 9 5 C5.54074837 3.7508258 2.85306797 2.32472205 0 0 Z " fill="#EAF6FA" transform="translate(243,66)"/>
<path d="M0 0 C0.66 0.33 1.32 0.66 2 1 C1.67 1.66 1.34 2.32 1 3 C1.66 3.33 2.32 3.66 3 4 C2.67 4.66 2.34 5.32 2 6 C-0.35171131 5.40138258 -2.6859378 4.73075648 -5 4 C-5.33 3.34 -5.66 2.68 -6 2 C-4.35 2 -2.7 2 -1 2 C-0.67 1.34 -0.34 0.68 0 0 Z " fill="#F1F7FB" transform="translate(234,57)"/>
<path d="M0 0 C3.63094642 2.64960955 5.89851796 5.01824456 8 9 C7.01 9 6.02 9 5 9 C3.95374591 7.70264493 2.95298777 6.36733028 2 5 C1.34 4.67 0.68 4.34 0 4 C0 2.68 0 1.36 0 0 Z " fill="#43ACDD" transform="translate(280,97)"/>
<path d="M0 0 C2.30019361 3.45029042 2.43132515 4.94554358 2 9 C1.01 9.66 0.02 10.32 -1 11 C-1.0270043 9.54176788 -1.04639787 8.08339325 -1.0625 6.625 C-1.07410156 5.81289062 -1.08570313 5.00078125 -1.09765625 4.1640625 C-1 2 -1 2 0 0 Z " fill="#92CAEF" transform="translate(212,83)"/>
<path d="M0 0 C0.66 0 1.32 0 2 0 C2.66 0.99 3.32 1.98 4 3 C4.99 3.33 5.98 3.66 7 4 C7 4.66 7 5.32 7 6 C5.35 6.33 3.7 6.66 2 7 C1.34 4.69 0.68 2.38 0 0 Z " fill="#DEEAF8" transform="translate(218,232)"/>
<path d="M0 0 C0 2.31 0 4.62 0 7 C-1.65 5.68 -3.3 4.36 -5 3 C-2.25 0 -2.25 0 0 0 Z " fill="#35AADF" transform="translate(176,228)"/>
<path d="M0 0 C0.99 0.33 1.98 0.66 3 1 C0.69 3.31 -1.62 5.62 -4 8 C-4.33 7.01 -4.66 6.02 -5 5 C-4.34 5 -3.68 5 -3 5 C-2.5359375 4.0409375 -2.5359375 4.0409375 -2.0625 3.0625 C-1 1 -1 1 0 0 Z " fill="#E5F5FC" transform="translate(147,192)"/>
<path d="M0 0 C0.66 0.33 1.32 0.66 2 1 C1.34 3.97 0.68 6.94 0 10 C-0.66 9.34 -1.32 8.68 -2 8 C-1.42307692 1.42307692 -1.42307692 1.42307692 0 0 Z " fill="#E6F1F8" transform="translate(133,190)"/>
<path d="M0 0 C0.99 0.33 1.98 0.66 3 1 C0.69 3.31 -1.62 5.62 -4 8 C-4.33 7.01 -4.66 6.02 -5 5 C-4.34 5 -3.68 5 -3 5 C-2.5359375 4.0409375 -2.5359375 4.0409375 -2.0625 3.0625 C-1 1 -1 1 0 0 Z " fill="#E5F6FB" transform="translate(155,184)"/>
<path d="M0 0 C0.99 0 1.98 0 3 0 C3 0.66 3 1.32 3 2 C2.01 2.66 1.02 3.32 0 4 C-0.73343428 7.06556598 -0.73343428 7.06556598 -1 10 C-1.66 10 -2.32 10 -3 10 C-2.25 2.25 -2.25 2.25 0 0 Z " fill="#45AEDD" transform="translate(111,123)"/>
<path d="M0 0 C2 2 2 2 2 5 C1.34 5 0.68 5 0 5 C0 5.66 0 6.32 0 7 C-0.99 7.33 -1.98 7.66 -3 8 C-2.45276317 4.62537285 -1.9451 2.91765 0 0 Z " fill="#B5D8F4" transform="translate(266,118)"/>
<path d="M0 0 C2 3 2 3 1.625 5.6875 C1.41875 6.450625 1.2125 7.21375 1 8 C1.66 8.33 2.32 8.66 3 9 C1.68 9 0.36 9 -1 9 C-0.67 6.03 -0.34 3.06 0 0 Z " fill="#A2CFF3" transform="translate(200,144)"/>
<path d="M0 0 C3.375 0.3125 3.375 0.3125 7 1 C7.66 1.99 8.32 2.98 9 4 C8.01 4.33 7.02 4.66 6 5 C5.566875 4.54625 5.13375 4.0925 4.6875 3.625 C2.89201658 1.79975666 2.89201658 1.79975666 0 0 Z " fill="#E1F3FB" transform="translate(105,145)"/>
<path d="M0 0 C2.4294516 3.6441774 2.16179575 5.71241272 2 10 C1.01 10.495 1.01 10.495 0 11 C-1.125 3.375 -1.125 3.375 0 0 Z " fill="#7BBCEB" transform="translate(272,131)"/>
<path d="M0 0 C3.36720387 1.39332574 4.9859524 2.9789286 7 6 C6.01 6.495 6.01 6.495 5 7 C3.29115995 5.37660195 1.62553283 3.70680947 0 2 C0 1.34 0 0.68 0 0 Z " fill="#4EB3E0" transform="translate(161,127)"/>
<path d="M0 0 C0.66 0 1.32 0 2 0 C2.33 1.32 2.66 2.64 3 4 C0.69 4.33 -1.62 4.66 -4 5 C-2.71937515 3.2925002 -1.38232443 1.62626404 0 0 Z " fill="#46ADDF" transform="translate(112,81)"/>
<path d="M0 0 C4.875 2.75 4.875 2.75 6 5 C3.0625 4.625 3.0625 4.625 0 4 C-0.33 3.34 -0.66 2.68 -1 2 C-0.67 1.34 -0.34 0.68 0 0 Z " fill="#EFFAF7" transform="translate(114,266)"/>
<path d="M0 0 C3.16115776 1.36983503 3.9927092 1.9890638 6 5 C3.03 4.505 3.03 4.505 0 4 C0 2.68 0 1.36 0 0 Z " fill="#E3F1F8" transform="translate(239,249)"/>
<path d="M0 0 C2.86724686 0.57344937 3.8614515 0.8614515 6 3 C5.67 3.99 5.34 4.98 5 6 C2.5 4.6875 2.5 4.6875 0 3 C0 2.01 0 1.02 0 0 Z " fill="#F4F8F8" transform="translate(211,211)"/>
<path d="M0 0 C0.33 1.32 0.66 2.64 1 4 C-0.98 4.99 -0.98 4.99 -3 6 C-3.66 4.68 -4.32 3.36 -5 2 C-4.360625 1.855625 -3.72125 1.71125 -3.0625 1.5625 C-1.02454854 1.18992819 -1.02454854 1.18992819 0 0 Z " fill="#D5E6F9" transform="translate(262,114)"/>
<path d="M0 0 C1.32 0.99 2.64 1.98 4 3 C3.67 4.32 3.34 5.64 3 7 C2.01 6.34 1.02 5.68 0 5 C-0.1875 2.375 -0.1875 2.375 0 0 Z " fill="#38AADE" transform="translate(253,112)"/>
<path d="M0 0 C1.32 0.66 2.64 1.32 4 2 C3.01 2.495 3.01 2.495 2 3 C2 3.99 2 4.98 2 6 C1.01 6.33 0.02 6.66 -1 7 C-0.67 4.69 -0.34 2.38 0 0 Z " fill="#EFF8FA" transform="translate(227,109)"/>
<path d="M0 0 C2.97 0.495 2.97 0.495 6 1 C6 1.99 6 2.98 6 4 C3.03 3.505 3.03 3.505 0 3 C0 2.01 0 1.02 0 0 Z " fill="#C1DEF5" transform="translate(202,75)"/>
<path d="M0 0 C0.66 0 1.32 0 2 0 C2 0.99 2 1.98 2 3 C2.66 3.66 3.32 4.32 4 5 C1.36 4.67 -1.28 4.34 -4 4 C-3.67 3.34 -3.34 2.68 -3 2 C-2.01 2 -1.02 2 0 2 C0 1.34 0 0.68 0 0 Z " fill="#DCF0F6" transform="translate(208,51)"/>
<path d="M0 0 C2.64 0.33 5.28 0.66 8 1 C4.77208445 3.1519437 3.71599191 3.20086443 0 3 C0 2.01 0 1.02 0 0 Z " fill="#81D1F2" transform="translate(208,305)"/>
<path d="M0 0 C1.65 0.99 3.3 1.98 5 3 C2 5 2 5 -1 5 C-0.67 3.35 -0.34 1.7 0 0 Z " fill="#83C1EB" transform="translate(207,243)"/>
<path d="M0 0 C0.66 0.66 1.32 1.32 2 2 C1.01 4.31 0.02 6.62 -1 9 C-2.0625 7.1875 -2.0625 7.1875 -3 5 C-2.67 4.01 -2.34 3.02 -2 2 C-1.34 2 -0.68 2 0 2 C0 1.34 0 0.68 0 0 Z " fill="#E4F7FC" transform="translate(172,161)"/>
<path d="M0 0 C0.66 0.33 1.32 0.66 2 1 C0.68 3.64 -0.64 6.28 -2 9 C-2.33 9 -2.66 9 -3 9 C-3.26218749 5.85375007 -3.24754367 4.38162983 -1.5 1.6875 C-1.005 1.130625 -0.51 0.57375 0 0 Z " fill="#E0F3F6" transform="translate(85,111)"/>
<path d="M0 0 C1.98 0.66 3.96 1.32 6 2 C6 2.99 6 3.98 6 5 C4.125 4.75 4.125 4.75 2 4 C0.75 1.9375 0.75 1.9375 0 0 Z " fill="#EEF7F5" transform="translate(281,96)"/>
<path d="M0 0 C-0.8125 1.9375 -0.8125 1.9375 -2 4 C-2.99 4.33 -3.98 4.66 -5 5 C-5.33 4.34 -5.66 3.68 -6 3 C-3.375 0 -3.375 0 0 0 Z " fill="#E2F1F8" transform="translate(237,85)"/>
</svg>
