<?xml version="1.0" standalone="no"?>
<!DOCTYPE svg PUBLIC "-//W3C//DTD SVG 20010904//EN"
 "http://www.w3.org/TR/2001/REC-SVG-20010904/DTD/svg10.dtd">
<svg version="1.0" xmlns="http://www.w3.org/2000/svg"
 width="1920.000000pt" height="1080.000000pt" viewBox="0 0 1920.000000 1080.000000"
 preserveAspectRatio="xMidYMid meet">

<g transform="translate(0.000000,1080.000000) scale(0.100000,-0.100000)"
fill="#000000" stroke="none">
<path d="M3915 9150 c-74 -29 -146 -88 -183 -150 -42 -71 -52 -108 -52 -202 0
-102 26 -171 91 -243 198 -216 545 -140 631 139 53 173 -22 349 -184 437 -57
30 -72 33 -158 36 -76 3 -105 -1 -145 -17z m283 -25 c78 -35 153 -115 183
-195 26 -67 29 -184 5 -249 -39 -107 -141 -198 -256 -227 -125 -32 -249 6
-343 105 -182 191 -99 504 156 587 69 22 181 13 255 -21z"/>
<path d="M5269 9152 c-104 -42 -166 -101 -213 -202 -21 -46 -26 -70 -26 -142
0 -115 24 -179 96 -257 196 -212 540 -133 625 143 54 172 -21 349 -183 437
-57 30 -72 34 -158 36 -74 3 -105 -1 -141 -15z m279 -27 c78 -35 153 -115 183
-195 26 -67 29 -184 5 -249 -54 -149 -222 -255 -376 -237 -120 14 -237 98
-289 206 -36 77 -41 192 -11 272 75 200 294 292 488 203z"/>
<path d="M6598 9151 c-108 -43 -182 -114 -219 -210 -32 -80 -32 -207 -1 -276
34 -74 66 -116 122 -159 97 -74 225 -94 347 -54 89 29 178 111 217 199 26 55
27 69 24 162 -2 84 -7 111 -28 152 -33 67 -108 140 -178 173 -76 36 -212 42
-284 13z m280 -26 c70 -32 128 -89 170 -170 24 -44 27 -61 27 -150 0 -87 -3
-107 -26 -155 -72 -152 -248 -237 -409 -196 -183 47 -299 220 -269 404 21 134
106 233 248 288 60 23 184 13 259 -21z"/>
<path d="M8027 9151 c-104 -42 -187 -130 -223 -235 -26 -74 -16 -205 21 -279
35 -71 107 -140 183 -175 50 -24 69 -27 152 -26 80 0 104 4 150 26 81 37 144
98 182 176 30 61 33 74 33 162 0 84 -3 102 -29 158 -33 72 -107 146 -183 182
-68 33 -217 39 -286 11z m237 -6 c129 -39 232 -161 251 -297 4 -27 2 -76 -5
-113 -42 -225 -290 -355 -496 -261 -232 106 -286 399 -108 580 50 50 85 72
149 92 55 17 150 17 209 -1z"/>
<path d="M9378 9151 c-107 -43 -188 -128 -224 -235 -25 -72 -16 -204 19 -277
33 -70 108 -141 185 -177 50 -24 69 -27 152 -26 80 0 104 4 150 26 81 37 144
98 182 176 30 61 33 74 33 162 0 88 -3 101 -33 162 -37 75 -104 142 -179 179
-67 32 -217 38 -285 10z m236 -6 c129 -39 232 -161 251 -297 10 -68 -11 -168
-49 -230 -68 -114 -211 -188 -339 -174 -114 12 -225 83 -281 181 -112 196 -10
452 209 521 55 17 150 17 209 -1z"/>
<path d="M10698 9147 c-103 -44 -174 -116 -213 -219 -14 -37 -16 -68 -13 -145
5 -121 29 -174 116 -255 146 -135 369 -130 511 12 183 183 128 488 -107 598
-83 39 -213 42 -294 9z m290 -21 c104 -48 183 -153 201 -268 30 -184 -86 -357
-269 -404 -161 -41 -338 44 -409 196 -37 78 -41 193 -11 273 27 71 92 154 146
185 106 61 233 67 342 18z"/>
<path d="M5883 8873 c-7 -3 -13 -9 -13 -15 0 -7 5 -6 14 1 27 23 29 -10 2 -38
-34 -36 -33 -41 12 -40 34 1 35 2 8 8 l-28 6 21 19 c34 31 22 72 -16 59z"/>
<path d="M7243 8873 c-7 -3 -13 -9 -13 -15 0 -7 5 -6 14 1 19 16 32 -5 16 -24
-9 -11 -9 -15 -1 -15 6 0 11 -7 11 -16 0 -11 -6 -14 -22 -9 -18 6 -20 5 -12
-5 15 -15 54 -4 54 15 0 8 -5 17 -10 20 -8 5 -8 11 0 20 9 10 7 16 -7 23 -10
5 -24 7 -30 5z"/>
<path d="M11297 8868 c-37 -20 -10 -99 29 -84 24 9 14 50 -14 54 -18 3 -21 6
-12 17 6 8 18 11 26 8 8 -3 14 -3 14 0 0 11 -27 14 -43 5z m31 -55 c-5 -25
-28 -28 -28 -4 0 12 6 21 16 21 9 0 14 -7 12 -17z"/>
<path d="M4528 8863 c19 -8 15 -71 -5 -76 -10 -3 -2 -5 17 -5 19 0 29 2 23 5
-8 2 -13 22 -13 44 0 31 -4 39 -17 38 -11 0 -13 -3 -5 -6z"/>
<path d="M8624 8858 c-4 -7 -3 -8 4 -4 8 5 12 -2 12 -18 0 -17 -5 -26 -16 -26
-10 0 -14 5 -10 16 3 8 2 12 -4 9 -17 -11 -11 -35 9 -35 11 0 21 -4 23 -9 2
-5 9 -3 16 5 7 8 8 14 2 14 -5 0 -10 14 -10 30 0 30 -13 40 -26 18z"/>
<path d="M9978 8864 c-17 -16 -7 -34 18 -34 19 0 25 -4 22 -17 -3 -12 -12 -17
-28 -15 -18 2 -22 0 -13 -9 19 -19 48 -6 51 24 3 21 -1 27 -17 27 -11 0 -21 7
-23 16 -2 9 -6 12 -10 8z"/>
<path d="M14085 8759 c-4 -5 -4 -20 -1 -32 3 -12 6 -53 6 -92 1 -38 4 -88 8
-109 l5 -40 34 39 c18 21 33 48 33 59 0 36 15 48 56 44 l39 -3 0 -200 c0 -200
0 -200 -22 -203 -22 -3 -23 -1 -23 77 0 71 -2 82 -22 95 -12 9 -41 16 -63 16
-22 0 -51 -7 -63 -16 -20 -14 -22 -23 -22 -115 0 -87 -3 -105 -21 -127 -16
-21 -20 -39 -18 -94 1 -38 -1 -71 -4 -75 -4 -3 -7 1 -7 10 0 9 -4 17 -10 17
-5 0 -10 -7 -10 -15 0 -21 -30 -19 -30 3 -1 16 -1 16 -14 0 -11 -15 -37 -18
-202 -21 l-189 -2 193 -3 192 -2 0 -34 c0 -19 5 -38 10 -41 6 -4 10 10 10 34
0 30 4 41 15 41 10 0 15 -11 15 -35 0 -19 5 -35 10 -35 6 0 10 16 10 35 0 44
15 46 18 3 2 -18 4 -33 5 -34 3 -3 137 -7 169 -5 25 1 27 5 30 49 3 45 4 47
38 53 l35 6 -37 2 c-21 0 -38 5 -38 10 0 6 17 12 38 14 l37 4 -37 1 c-21 1
-38 6 -38 11 0 6 17 12 38 14 l37 4 -38 1 c-38 2 -38 2 -35 40 l3 37 60 6 60
6 -62 1 c-73 2 -86 22 -29 46 42 18 43 20 36 254 -6 191 -6 192 -72 192 l-38
0 0 60 0 60 -44 0 c-25 0 -48 -5 -51 -11z"/>
<path d="M13252 8668 c-7 -7 -12 -33 -12 -59 0 -46 -1 -47 -35 -53 l-35 -7 -1
-177 c-2 -305 -2 -314 12 -323 17 -11 110 -11 126 -1 13 8 16 62 14 334 l-1
167 -32 9 c-35 9 -45 32 -33 79 5 21 10 24 48 21 l42 -3 5 -160 c3 -88 9 -166
13 -172 9 -15 47 -18 47 -4 0 5 -9 11 -20 14 -19 5 -20 14 -20 166 0 148 -1
161 -19 171 -27 14 -84 13 -99 -2z"/>
<path d="M14353 8401 l11 -29 13 25 c17 33 17 33 -11 33 -23 0 -24 -2 -13 -29z"/>
<path d="M14457 8390 c3 -11 7 -20 8 -20 1 0 5 9 8 20 3 12 0 20 -8 20 -8 0
-11 -8 -8 -20z"/>
<path d="M13516 8336 c-12 -26 -14 -41 -6 -60 11 -29 38 -45 49 -28 5 9 7 78
2 115 -3 20 -31 3 -45 -27z"/>
<path d="M13616 8362 c-11 -18 -9 -103 3 -115 10 -9 16 -7 32 12 23 28 24 59
3 89 -16 23 -29 28 -38 14z"/>
<path d="M9555 8215 c-25 -24 -25 -25 -25 -225 0 -200 0 -201 25 -225 l24 -25
771 0 771 0 24 25 c25 24 25 25 25 225 0 200 0 201 -25 225 l-24 25 -771 0
-771 0 -24 -25z m523 -189 c-12 -8 -18 -27 -18 -50 0 -25 -4 -36 -15 -36 -11
0 -15 11 -15 40 0 22 -4 40 -10 40 -5 0 -10 5 -10 10 0 6 19 10 43 10 37 -1
40 -2 25 -14z m318 -27 c1 -20 4 -41 8 -48 4 -6 1 -11 -9 -11 -8 0 -18 7 -21
15 -4 8 -10 15 -15 15 -5 0 -9 -7 -9 -15 0 -8 -7 -15 -15 -15 -11 0 -15 12
-15 51 l0 50 38 -3 c35 -3 37 -5 38 -39z m44 -9 c0 -27 -4 -50 -10 -50 -5 0
-10 23 -10 50 0 28 5 50 10 50 6 0 10 -22 10 -50z m140 34 c0 -8 5 -12 10 -9
18 11 40 -15 40 -46 0 -19 -5 -29 -15 -29 -9 0 -15 9 -15 25 0 14 -4 25 -10
25 -5 0 -10 -11 -10 -25 0 -16 -6 -25 -15 -25 -11 0 -15 12 -15 50 0 38 4 50
15 50 8 0 15 -7 15 -16z m95 -3 c3 -10 3 -26 -1 -35 -3 -9 0 -23 7 -32 11 -14
10 -15 -11 -12 -19 2 -26 11 -30 33 -8 39 -1 65 15 65 8 0 16 -8 20 -19z
m-521 -14 c11 -8 17 -23 14 -38 -2 -19 -10 -25 -35 -27 -28 -3 -33 0 -39 24
-5 20 -2 31 11 41 23 16 27 16 49 0z m104 -1 c28 -17 5 -66 -30 -66 -10 0 -18
-7 -18 -15 0 -8 -7 -15 -15 -15 -11 0 -15 12 -15 48 0 27 2 51 5 54 7 7 59 3
73 -6z m280 -30 c2 -21 -2 -44 -9 -52 -18 -22 -62 -14 -64 11 -2 11 -6 27 -9
36 -10 23 19 48 52 45 23 -3 27 -8 30 -40z"/>
<path d="M10350 8010 c0 -5 7 -10 16 -10 8 0 12 5 9 10 -3 6 -10 10 -16 10 -5
0 -9 -4 -9 -10z"/>
<path d="M10115 7981 c-7 -12 12 -24 25 -16 11 7 4 25 -10 25 -5 0 -11 -4 -15
-9z"/>
<path d="M10210 7975 c0 -8 7 -15 15 -15 8 0 15 7 15 15 0 8 -7 15 -15 15 -8
0 -15 -7 -15 -15z"/>
<path d="M10482 7978 c6 -18 28 -21 28 -4 0 9 -7 16 -16 16 -9 0 -14 -5 -12
-12z"/>
<path d="M10488 7933 c7 -3 16 -2 19 1 4 3 -2 6 -13 5 -11 0 -14 -3 -6 -6z"/>
<path d="M11315 8228 c-11 -6 -23 -16 -27 -22 -4 -6 -8 -863 -8 -1903 l0
-1893 -40 0 -40 0 0 -70 0 -70 40 0 40 0 0 -964 0 -965 22 -15 c19 -13 58 -16
225 -16 190 0 204 1 223 20 20 20 20 33 20 980 l0 960 50 0 51 0 -3 68 -3 67
-47 3 -48 3 0 1894 0 1894 -26 20 c-25 20 -39 21 -218 21 -123 -1 -198 -5
-211 -12z m217 -1654 l52 -26 -34 -18 c-72 -36 -75 -35 -76 20 0 28 1 50 3 50
2 0 27 -12 55 -26z m21 -119 l-28 -25 30 -25 30 -25 -57 0 c-32 0 -58 4 -58
10 0 6 10 10 21 10 18 0 19 2 9 15 -10 12 -10 18 0 30 10 13 9 15 -9 15 -11 0
-21 5 -21 10 0 6 25 10 56 10 l55 0 -28 -25z m9 -112 c18 -17 23 -39 12 -67
-9 -24 -26 -19 -24 7 4 43 1 48 -27 45 -25 -3 -28 -7 -25 -36 3 -44 -22 -38
-26 5 -5 54 50 83 90 46z m-48 -115 c13 -18 16 -19 16 -5 0 9 5 17 11 17 6 0
9 -12 7 -27 -3 -24 -8 -28 -40 -31 -36 -3 -38 -2 -38 26 0 47 19 56 44 20z
m36 -93 c0 -27 -15 -34 -24 -10 -3 8 -17 15 -31 15 -14 0 -25 5 -25 10 0 6 18
10 40 10 36 0 40 -2 40 -25z m20 -49 c0 -18 -22 -26 -49 -19 -12 3 -28 0 -36
-7 -12 -10 -15 -9 -15 8 0 24 12 30 63 31 25 1 37 -3 37 -13z m-30 -61 c15
-18 10 -45 -12 -59 -33 -20 -69 20 -54 60 7 18 50 18 66 -1z m40 -114 c0 -38
-18 -49 -26 -16 -7 30 -24 33 -24 5 0 -11 -4 -20 -10 -20 -5 0 -10 7 -10 16 0
9 -9 18 -20 21 -39 10 -19 23 35 23 54 0 55 0 55 -29z m-32 -76 c0 -29 -4 -30
-24 -10 -9 8 -24 15 -35 15 -10 0 -19 5 -19 10 0 6 17 10 39 10 34 0 39 -3 39
-25z m-8 -50 c16 -19 3 -55 -21 -55 -14 0 -19 8 -20 28 l-2 27 -4 -28 c-2 -15
-9 -25 -14 -22 -10 7 -12 48 -2 58 12 12 50 7 63 -8z m0 -90 c16 -19 3 -55
-21 -55 -14 0 -19 8 -20 28 l-2 27 -4 -28 c-2 -15 -9 -25 -14 -22 -10 7 -12
48 -2 58 12 12 50 7 63 -8z m-35 -91 c23 -15 25 -15 25 0 0 9 5 16 10 16 6 0
10 -16 10 -36 0 -36 0 -36 -25 -20 -30 20 -35 20 -35 1 0 -8 -4 -15 -10 -15
-5 0 -10 16 -10 35 0 40 2 41 35 19z m33 -76 c18 -18 14 -46 -8 -58 -15 -8
-21 -8 -24 2 -13 39 -14 42 -15 20 -1 -26 -21 -20 -21 7 0 21 19 41 40 41 9 0
21 -5 28 -12z m42 -157 c0 -38 -16 -49 -67 -48 -43 2 -58 19 -28 31 8 3 15 10
15 16 0 5 -7 10 -15 10 -8 0 -15 5 -15 10 0 6 25 10 55 10 54 0 55 -1 55 -29z
m-60 -95 l9 -21 0 23 c1 12 6 22 12 22 6 0 9 -12 7 -27 -3 -24 -8 -28 -40 -31
-36 -3 -38 -2 -38 27 0 45 33 50 50 7z m60 -68 c0 -4 -25 -8 -55 -8 -31 0 -55
4 -55 10 0 6 23 10 55 9 30 -1 55 -6 55 -11z m-32 -55 c0 -16 -5 -34 -10 -40
-15 -19 -68 -17 -68 2 0 10 10 15 30 15 17 0 30 5 30 10 0 6 -13 13 -30 17
-43 8 -37 23 9 23 35 0 39 -2 39 -27z m30 -80 c2 -7 -3 -13 -11 -13 -9 0 -17
-10 -19 -21 -7 -50 -69 -49 -76 0 -7 43 4 52 55 49 26 -2 48 -9 51 -15z m-38
-98 c15 -18 6 -61 -16 -69 -24 -9 -54 12 -54 37 0 43 44 63 70 32z m10 -95 c0
-6 -7 -13 -16 -17 -15 -6 -15 -8 2 -20 18 -14 18 -15 1 -24 -18 -10 -18 -11 0
-24 29 -21 8 -28 -33 -10 -37 16 -38 17 -20 31 19 14 19 14 1 28 -18 13 -17
14 11 29 34 19 54 21 54 7z m30 -173 c0 -8 -12 -20 -27 -27 l-28 -12 23 -11
c12 -5 22 -13 22 -17 0 -4 -10 -12 -22 -17 l-23 -11 28 -12 c15 -7 27 -17 27
-22 0 -14 -29 -9 -72 13 l-42 21 30 16 29 15 -27 9 c-16 6 -28 13 -28 16 0 7
86 49 103 51 4 1 7 -5 7 -12z m-45 -163 c20 -20 16 -53 -7 -68 -40 -24 -80 44
-42 71 23 17 29 16 49 -3z m11 -111 c4 -23 -10 -31 -21 -13 -3 6 -17 10 -31
10 -24 0 -31 10 -17 24 4 4 21 6 37 4 21 -2 30 -9 32 -25z m-56 -179 c0 -8 -4
-12 -10 -9 -5 3 -10 10 -10 16 0 5 5 9 10 9 6 0 10 -7 10 -16z m60 5 c0 -12
-36 -30 -44 -22 -14 14 -4 31 19 31 14 0 25 -4 25 -9z m-60 -56 c0 -15 1 -15
14 2 16 23 46 14 46 -15 0 -11 -4 -20 -10 -20 -5 0 -10 7 -10 16 0 13 -4 11
-18 -6 -11 -13 -24 -20 -30 -16 -15 9 -16 56 -2 56 6 0 10 -8 10 -17z m70 -63
c13 -8 12 -11 -5 -24 -11 -8 -21 -10 -23 -5 -5 12 -42 12 -42 -1 0 -5 -4 -10
-10 -10 -5 0 -10 9 -10 19 0 15 8 21 33 24 17 2 34 4 37 5 3 1 12 -3 20 -8z
m-22 -62 c18 -18 14 -46 -8 -58 -15 -8 -21 -8 -24 2 -13 39 -14 42 -15 20 -1
-26 -21 -20 -21 7 0 21 19 41 40 41 9 0 21 -5 28 -12z m10 -103 c0 -29 -4 -30
-24 -10 -9 8 -24 15 -35 15 -10 0 -19 5 -19 10 0 6 17 10 39 10 34 0 39 -3 39
-25z"/>
<path d="M11494 6009 c-10 -17 13 -36 27 -22 12 12 4 33 -11 33 -5 0 -12 -5
-16 -11z"/>
<path d="M11530 5365 c0 -8 5 -15 10 -15 6 0 10 7 10 15 0 8 -4 15 -10 15 -5
0 -10 -7 -10 -15z"/>
<path d="M11492 5043 c2 -10 10 -18 18 -18 22 0 18 29 -3 33 -14 3 -18 -1 -15
-15z"/>
<path d="M11490 4944 c0 -9 7 -14 17 -12 25 5 28 28 4 28 -12 0 -21 -6 -21
-16z"/>
<path d="M11490 4516 c0 -10 9 -16 21 -16 24 0 21 23 -4 28 -10 2 -17 -3 -17
-12z"/>
<path d="M7305 8218 c-11 -6 -25 -19 -32 -27 -10 -13 -12 -434 -13 -1898 l0
-1882 -27 -3 c-27 -3 -28 -5 -31 -70 l-3 -68 31 0 30 0 0 -963 0 -964 23 -21
c22 -21 33 -22 180 -22 144 0 159 2 177 20 20 20 20 33 20 1270 0 827 3 1250
10 1250 6 0 10 30 10 70 0 40 -4 70 -10 70 -7 0 -10 540 -10 1600 l0 1601 -25
24 c-23 24 -28 25 -167 25 -89 0 -151 -5 -163 -12z"/>
<path d="M5496 8198 c-13 -19 -16 -58 -16 -223 0 -165 3 -204 16 -223 l15 -22
784 0 784 0 20 26 c20 25 21 40 21 219 0 179 -1 194 -21 219 l-20 26 -784 0
-784 0 -15 -22z m410 -209 c1 -14 4 -31 7 -36 10 -17 -19 -35 -50 -31 -26 3
-28 7 -31 51 l-3 48 38 -3 c33 -3 38 -6 39 -29z m149 12 c3 -10 3 -26 -1 -35
-3 -9 0 -23 7 -32 11 -14 10 -15 -11 -12 -19 2 -26 11 -30 33 -8 39 -1 65 15
65 8 0 16 -8 20 -19z m56 12 c1 -5 3 -27 3 -51 2 -34 -1 -42 -13 -40 -17 3
-30 51 -23 81 4 17 31 24 33 10z m364 -45 c1 -50 -9 -60 -31 -30 -13 16 -13
16 -14 0 0 -10 -7 -18 -15 -18 -11 0 -15 12 -15 51 l0 50 38 -3 37 -3 0 -47z
m44 2 c1 -39 -2 -50 -14 -50 -12 0 -15 11 -14 50 1 31 7 50 14 50 7 0 13 -19
14 -50z m131 34 c0 -8 4 -13 9 -10 5 4 16 3 25 0 18 -7 23 -74 6 -74 -5 0 -10
11 -10 25 0 16 -6 25 -15 25 -9 0 -15 -9 -15 -25 0 -14 -4 -25 -10 -25 -5 0
-10 23 -10 50 0 28 5 50 10 50 6 0 10 -7 10 -16z m95 -1 c10 -13 10 -22 1 -36
-8 -15 -8 -21 2 -24 19 -7 14 -23 -7 -23 -14 0 -20 9 -23 33 -4 35 0 67 9 67
3 0 11 -8 18 -17z m-751 -19 c19 -19 20 -36 4 -52 -36 -36 -96 11 -62 49 21
23 37 24 58 3z m209 -4 c14 -19 15 -20 19 -3 4 15 14 18 54 17 27 -1 52 -2 57
-3 11 -2 8 -71 -3 -71 -5 0 -10 11 -10 25 0 14 -4 25 -10 25 -5 0 -10 -11 -10
-25 0 -16 -6 -25 -15 -25 -9 0 -15 9 -15 25 0 14 -4 25 -10 25 -5 0 -10 -11
-10 -25 0 -16 -6 -25 -15 -25 -8 0 -15 8 -15 18 -1 16 -1 16 -11 0 -18 -31
-79 -17 -79 18 0 17 28 44 45 44 8 0 20 -9 28 -20z m405 -35 c-3 -48 -4 -50
-35 -53 -24 -2 -33 1 -33 11 0 10 7 14 23 10 20 -4 20 -4 -3 9 -49 26 -31 78
26 74 23 -1 25 -4 22 -51z"/>
<path d="M5860 7990 c0 -5 5 -10 10 -10 6 0 10 5 10 10 0 6 -4 10 -10 10 -5 0
-10 -4 -10 -10z"/>
<path d="M5860 7950 c0 -5 4 -10 9 -10 6 0 13 5 16 10 3 6 -1 10 -9 10 -9 0
-16 -4 -16 -10z"/>
<path d="M6430 7990 c0 -5 5 -10 10 -10 6 0 10 5 10 10 0 6 -4 10 -10 10 -5 0
-10 -4 -10 -10z"/>
<path d="M5950 7955 c0 -8 7 -15 15 -15 8 0 15 7 15 15 0 8 -7 15 -15 15 -8 0
-15 -7 -15 -15z"/>
<path d="M6160 7955 c0 -8 7 -15 15 -15 8 0 15 7 15 15 0 8 -7 15 -15 15 -8 0
-15 -7 -15 -15z"/>
<path d="M6560 7955 c0 -9 5 -15 11 -13 6 2 11 8 11 13 0 5 -5 11 -11 13 -6 2
-11 -4 -11 -13z"/>
<path d="M7790 8198 c-19 -20 -20 -34 -20 -221 0 -110 4 -206 10 -217 21 -39
49 -40 810 -40 761 0 789 1 810 40 6 11 10 108 10 219 0 188 -1 202 -20 221
-20 20 -33 20 -800 20 l-779 0 -21 -22z m1016 -228 c-10 -48 -26 -68 -26 -32
0 9 -3 26 -6 38 -6 21 21 58 35 50 4 -3 3 -28 -3 -56z m-426 40 c0 -5 -4 -10
-10 -10 -5 0 -10 -18 -10 -40 0 -29 -4 -40 -15 -40 -11 0 -15 11 -15 40 0 22
-4 40 -10 40 -5 0 -10 5 -10 10 0 6 16 10 35 10 19 0 35 -4 35 -10z m270 -30
c0 -29 4 -40 15 -40 8 0 15 -4 15 -10 0 -5 -13 -10 -30 -10 -29 0 -30 1 -30
50 0 38 4 50 15 50 11 0 15 -11 15 -40z m205 23 c10 -13 10 -22 1 -36 -8 -15
-8 -21 2 -24 19 -7 14 -23 -7 -23 -14 0 -20 9 -23 33 -4 35 0 67 9 67 3 0 11
-8 18 -17z m-404 -13 c39 -21 13 -75 -33 -68 -30 4 -38 46 -12 65 21 16 20 16
45 3z m101 1 c4 0 10 -10 13 -21 8 -25 -10 -50 -36 -50 -11 0 -19 -7 -19 -15
0 -8 -7 -15 -15 -15 -11 0 -15 12 -15 48 0 27 2 51 5 53 4 4 46 4 67 0z m196
-3 c20 -20 13 -38 -15 -39 l-28 -1 30 -8 c24 -5 27 -8 13 -14 -28 -12 -53 -2
-56 22 -6 41 30 66 56 40z"/>
<path d="M8412 7958 c6 -18 28 -21 28 -4 0 9 -7 16 -16 16 -9 0 -14 -5 -12
-12z"/>
<path d="M8510 7955 c0 -8 7 -15 15 -15 8 0 15 7 15 15 0 8 -7 15 -15 15 -8 0
-15 -7 -15 -15z"/>
<path d="M3709 8181 c-23 -19 -24 -24 -27 -203 -4 -203 3 -248 43 -266 19 -9
228 -12 784 -12 752 0 759 0 785 21 l26 20 0 210 c0 196 -1 210 -20 229 -20
20 -33 20 -794 20 -747 0 -775 -1 -797 -19z m1147 -197 c-3 -8 -1 -14 4 -14 6
0 10 7 10 15 0 20 10 19 25 -2 10 -13 10 -22 1 -36 -8 -15 -8 -21 2 -24 19 -7
14 -23 -8 -23 -16 0 -20 7 -20 31 0 38 -24 35 -28 -4 -5 -38 -22 -34 -23 6 -2
45 1 61 14 69 16 9 29 -1 23 -18z m-685 9 c0 -5 1 -26 2 -48 2 -39 1 -40 -35
-43 l-38 -3 0 50 0 51 35 0 c19 0 35 -3 36 -7z m143 -8 c3 -8 10 -15 16 -15 5
0 10 7 10 15 0 21 28 19 35 -4 3 -10 3 -26 -1 -35 -3 -9 0 -23 7 -32 11 -14
10 -15 -11 -12 -19 2 -26 10 -28 31 -2 15 -8 27 -13 27 -15 0 -24 -33 -11 -38
19 -6 14 -22 -7 -22 -13 0 -20 10 -24 36 -9 52 11 89 27 49z m376 -25 c0 -29
4 -40 15 -40 8 0 15 -4 15 -10 0 -5 -13 -10 -30 -10 -29 0 -30 1 -30 50 0 38
4 50 15 50 11 0 15 -11 15 -40z m-436 7 c11 -8 17 -23 14 -38 -2 -19 -10 -25
-35 -27 -28 -3 -33 0 -39 24 -5 20 -2 31 11 41 23 16 27 16 49 0z m210 -3 c19
-19 20 -36 4 -52 -36 -36 -96 11 -62 49 21 23 37 24 58 3z m134 3 c18 -12 16
-67 -3 -67 -9 0 -15 9 -15 25 0 14 -4 25 -10 25 -5 0 -10 -11 -10 -25 0 -14
-4 -25 -10 -25 -5 0 -10 9 -10 19 0 11 -4 23 -10 26 -6 4 -10 -5 -10 -19 0
-16 -6 -26 -15 -26 -23 0 -21 67 3 72 27 6 76 3 90 -5z m190 1 c20 -20 13 -38
-15 -39 l-28 -1 30 -8 c24 -5 27 -8 13 -14 -28 -12 -53 -2 -56 22 -6 41 30 66
56 40z"/>
<path d="M4130 7970 c0 -5 5 -10 10 -10 6 0 10 5 10 10 0 6 -4 10 -10 10 -5 0
-10 -4 -10 -10z"/>
<path d="M4130 7930 c0 -5 5 -10 10 -10 6 0 10 5 10 10 0 6 -4 10 -10 10 -5 0
-10 -4 -10 -10z"/>
<path d="M4215 7941 c-7 -12 12 -24 25 -16 11 7 4 25 -10 25 -5 0 -11 -4 -15
-9z"/>
<path d="M4420 7935 c0 -8 7 -15 15 -15 8 0 15 7 15 15 0 8 -7 15 -15 15 -8 0
-15 -7 -15 -15z"/>
<path d="M14341 8124 c0 -11 3 -14 6 -6 3 7 2 16 -1 19 -3 4 -6 -2 -5 -13z"/>
<path d="M13470 7955 c0 -30 5 -55 10 -55 6 0 10 16 10 35 0 19 5 35 10 35 6
0 10 -15 10 -34 0 -19 4 -37 9 -40 9 -6 19 67 13 97 -4 21 -22 22 -22 2 0 -8
-4 -15 -10 -15 -5 0 -10 7 -10 15 0 8 -4 15 -10 15 -5 0 -10 -25 -10 -55z"/>
<path d="M14837 7964 c-4 -4 -7 -36 -7 -71 l0 -63 80 0 80 0 0 30 c0 44 -53
97 -105 105 -22 3 -44 3 -48 -1z"/>
<path d="M14304 7953 c10 -10 386 -11 386 -1 0 4 -88 8 -197 8 -108 0 -193 -3
-189 -7z"/>
<path d="M12630 7880 l0 -70 65 0 65 0 0 70 0 70 -65 0 -65 0 0 -70z"/>
<path d="M12431 7891 c-16 -22 -21 -44 -21 -90 l0 -61 65 0 65 0 0 37 c0 27
-10 49 -41 90 -23 29 -43 53 -45 53 -1 0 -12 -13 -23 -29z"/>
<path d="M14310 7910 c0 -5 7 -10 15 -10 8 0 15 5 15 10 0 6 -7 10 -15 10 -8
0 -15 -4 -15 -10z"/>
<path d="M14650 7910 c0 -5 9 -10 20 -10 11 0 20 5 20 10 0 6 -9 10 -20 10
-11 0 -20 -4 -20 -10z"/>
<path d="M14860 7635 l0 -65 65 0 65 0 0 65 0 65 -65 0 -65 0 0 -65z"/>
<path d="M12410 7540 l0 -70 65 0 65 0 0 70 0 70 -65 0 -65 0 0 -70z"/>
<path d="M9155 7538 c-3 -7 -6 -47 -7 -88 l-3 -75 -55 -7 c-77 -11 -100 -39
-100 -119 l0 -59 -34 0 c-53 0 -53 -23 -1 -96 25 -35 52 -64 60 -64 12 0 70
69 99 118 12 19 -13 42 -45 42 -28 0 -29 1 -29 53 0 29 5 58 12 65 7 7 32 12
55 12 33 0 50 6 68 25 23 22 25 32 25 115 0 84 -1 90 -20 90 -11 0 -23 -6 -25
-12z"/>
<path d="M8478 7453 c-3 -85 -4 -88 -28 -91 -59 -8 -100 -24 -112 -45 -7 -12
-15 -49 -18 -82 -5 -59 -6 -60 -37 -63 -17 -2 -34 -9 -36 -17 -8 -19 82 -137
101 -133 22 4 103 125 96 143 -4 9 -19 15 -40 15 l-34 0 0 49 c0 61 18 81 69
81 28 0 45 7 65 26 24 25 26 33 26 115 0 88 0 89 -25 89 -24 0 -24 -2 -27 -87z"/>
<path d="M8820 7466 c0 -88 -12 -106 -70 -106 -63 0 -88 -31 -92 -110 l-3 -65
-35 -5 c-20 -3 -36 -11 -38 -20 -3 -17 83 -140 98 -140 15 0 100 121 100 142
0 14 -8 18 -35 18 l-36 0 3 63 c3 58 5 62 28 65 109 14 130 39 130 157 0 73
-1 75 -25 75 -24 0 -25 -2 -25 -74z"/>
<path d="M8150 7453 c0 -43 -5 -85 -10 -93 -5 -8 -32 -19 -61 -25 -72 -14 -95
-49 -98 -147 -1 -21 -6 -27 -27 -30 -52 -6 -52 -31 0 -92 26 -31 52 -56 56
-56 24 0 105 113 96 135 -3 9 -18 15 -36 15 l-31 0 3 57 3 57 54 12 c83 18 95
37 99 149 l4 95 -26 0 c-26 0 -26 -1 -26 -77z"/>
<path d="M9710 7430 c0 -94 2 -103 25 -125 13 -14 36 -25 50 -25 52 0 65 -16
65 -75 l0 -55 -35 0 c-26 0 -35 -4 -35 -17 0 -25 78 -123 98 -123 22 0 106
106 98 125 -3 9 -19 15 -41 15 l-35 0 0 59 c0 69 -23 106 -73 116 -71 14 -67
8 -67 111 0 94 0 94 -25 94 l-25 0 0 -100z"/>
<path d="M10067 7524 c-4 -4 -7 -52 -7 -106 0 -92 2 -101 25 -123 16 -17 35
-25 58 -25 45 0 57 -15 57 -71 0 -46 -1 -48 -32 -51 -51 -5 -47 -33 12 -98
l50 -55 39 44 c56 63 69 90 51 101 -8 6 -27 10 -42 10 -27 0 -28 1 -28 59 0
54 -3 62 -31 85 -17 14 -43 26 -59 26 -15 0 -32 6 -38 13 -6 7 -12 53 -14 102
-2 72 -6 90 -18 93 -9 1 -19 0 -23 -4z"/>
<path d="M10410 7430 c0 -94 2 -103 25 -125 15 -15 36 -25 54 -25 54 0 61 -8
61 -66 0 -47 -3 -54 -19 -54 -61 0 -65 -24 -13 -90 58 -76 65 -75 128 12 40
54 39 78 -4 78 -28 0 -29 2 -35 63 -8 73 -36 107 -91 107 -49 0 -56 14 -56
112 0 87 0 88 -25 88 l-25 0 0 -100z"/>
<path d="M10760 7440 c0 -83 2 -93 25 -115 18 -18 35 -25 65 -25 46 0 51 -7
53 -76 2 -47 2 -48 -35 -57 -50 -12 -49 -29 8 -99 54 -68 61 -67 119 16 42 62
41 83 -6 88 l-32 3 -2 62 c-2 78 -28 113 -85 113 -52 0 -60 13 -60 102 0 77 0
78 -25 78 -25 0 -25 -1 -25 -90z"/>
<path d="M4410 7443 c0 -43 -4 -84 -9 -92 -5 -7 -29 -16 -55 -18 -71 -8 -96
-39 -96 -119 0 -61 -1 -64 -24 -64 -34 0 -56 -10 -56 -25 0 -19 89 -125 105
-125 16 0 95 108 95 131 0 20 -21 30 -50 22 -20 -5 -21 -3 -18 58 3 60 5 64
28 67 107 11 130 40 130 162 0 79 0 80 -25 80 -25 0 -25 -2 -25 -77z"/>
<path d="M4740 7435 c0 -94 7 -86 -81 -100 -54 -8 -72 -35 -77 -110 -4 -63 -5
-64 -36 -67 -20 -2 -32 -9 -34 -20 -4 -22 76 -138 94 -138 18 0 105 120 102
140 -2 9 -18 17 -38 20 -33 5 -35 7 -38 47 -4 56 11 83 47 83 41 0 90 19 101
40 6 10 10 57 10 104 0 85 0 86 -25 86 -25 0 -25 -1 -25 -85z"/>
<path d="M5080 7446 c0 -87 -12 -106 -69 -106 -24 0 -49 -8 -65 -21 -23 -18
-26 -27 -26 -84 l0 -64 -31 -3 c-55 -5 -57 -27 -8 -96 24 -34 52 -62 61 -62
19 0 98 104 98 131 0 18 -19 29 -51 29 -18 0 -20 6 -17 57 l3 58 55 8 c82 11
94 28 98 137 l4 90 -26 0 c-26 0 -26 -1 -26 -74z"/>
<path d="M4077 7504 c-4 -4 -7 -45 -7 -90 0 -91 -8 -104 -65 -104 -60 0 -95
-47 -95 -129 0 -49 -1 -50 -32 -53 -20 -2 -34 -9 -36 -19 -4 -21 75 -119 96
-119 18 1 102 104 102 125 0 15 -22 25 -56 25 -22 0 -24 4 -24 43 0 56 15 73
70 80 68 9 90 39 92 130 0 40 1 81 2 92 1 20 -32 33 -47 19z"/>
<path d="M5633 7495 c-3 -9 -3 -54 -1 -100 5 -98 25 -130 87 -141 52 -9 61
-21 61 -75 l0 -48 -37 -3 c-20 -2 -38 -8 -40 -14 -5 -15 85 -134 102 -134 7 0
34 28 59 61 51 67 49 89 -5 89 -28 0 -29 1 -29 54 0 70 -30 110 -89 120 -52 8
-61 26 -61 125 0 75 -2 81 -20 81 -11 0 -23 -7 -27 -15z"/>
<path d="M6334 7495 c-10 -24 2 -178 15 -203 11 -20 51 -38 101 -44 23 -3 25
-8 28 -60 l3 -58 -36 0 c-28 0 -35 -4 -35 -19 0 -28 78 -123 98 -119 9 2 36
29 60 60 38 48 43 60 32 73 -7 8 -25 15 -41 15 -29 0 -29 1 -29 58 0 71 -23
98 -91 110 l-44 7 -5 95 c-5 89 -6 95 -28 98 -13 2 -25 -3 -28 -13z"/>
<path d="M6690 7417 c0 -85 2 -96 23 -115 15 -14 36 -22 58 -22 48 0 59 -15
59 -81 l0 -58 -32 -3 c-21 -2 -34 -9 -36 -20 -4 -21 75 -128 94 -128 15 0 104
116 104 136 0 14 -23 24 -56 24 -23 0 -24 3 -24 65 0 87 -19 107 -110 117 -24
3 -25 5 -28 91 -3 85 -3 87 -27 87 -25 0 -25 -1 -25 -93z"/>
<path d="M5987 7494 c-4 -4 -7 -41 -6 -83 2 -123 16 -149 90 -165 l54 -13 0
-54 c0 -53 0 -54 -32 -57 -17 -2 -34 -9 -36 -16 -7 -18 82 -128 100 -124 9 2
36 29 61 61 49 62 48 79 -5 81 -27 1 -28 3 -33 62 -6 76 -26 101 -87 110 -55
8 -65 29 -62 129 2 63 0 70 -17 73 -11 2 -23 0 -27 -4z"/>
<path d="M14860 7370 l0 -70 65 0 65 0 0 70 0 70 -65 0 -65 0 0 -70z"/>
<path d="M12410 7275 l0 -65 65 0 65 0 0 65 0 65 -65 0 -65 0 0 -65z"/>
<path d="M14860 7105 l0 -65 65 0 65 0 0 65 0 65 -65 0 -65 0 0 -65z"/>
<path d="M13597 7124 c-13 -14 -7 -33 13 -39 11 -3 20 -15 20 -26 0 -16 -7
-19 -41 -19 -32 0 -42 -4 -46 -19 -4 -17 -16 -20 -100 -23 -89 -3 -96 -5 -119
-31 -23 -27 -24 -35 -24 -168 0 -127 2 -141 21 -160 11 -11 33 -25 49 -31 18
-6 30 -18 32 -31 3 -19 10 -22 55 -25 48 -3 54 -1 65 22 l11 26 139 0 138 0
10 -25 c9 -22 15 -25 65 -25 50 0 55 2 61 25 4 16 18 31 40 40 52 21 64 57 64
187 0 171 -23 198 -169 198 -70 0 -79 2 -84 20 -4 16 -14 20 -46 20 -34 0 -41
3 -41 19 0 11 9 23 21 26 12 4 19 14 17 23 -3 14 -17 18 -74 20 -38 1 -73 0
-77 -4z m110 -21 c-20 -2 -52 -2 -70 0 -17 2 0 4 38 4 39 0 53 -2 32 -4z m-7
-43 c0 -15 -7 -20 -25 -20 -18 0 -25 5 -25 20 0 15 7 20 25 20 18 0 25 -5 25
-20z m88 -47 c3 -10 -24 -13 -112 -13 -105 0 -136 6 -119 24 13 13 226 2 231
-11z m-378 -167 c0 -79 4 -137 10 -141 6 -4 10 43 10 134 l0 141 240 0 240 0
0 -140 c0 -87 4 -140 10 -140 6 0 10 53 10 140 l0 140 24 0 c13 0 35 -9 50
-21 26 -20 26 -22 26 -149 0 -71 -3 -136 -6 -145 -6 -14 -63 -51 -68 -43 -1 2
-6 16 -11 32 -6 16 -15 31 -22 33 -15 5 -53 -55 -52 -82 0 -13 7 -5 19 23 26
58 42 54 38 -10 l-3 -53 -45 0 c-43 0 -45 1 -43 28 l2 27 -169 0 -169 0 2 -27
c2 -27 0 -28 -43 -28 l-45 0 -3 53 c-4 63 12 69 36 12 9 -22 20 -40 24 -40 10
0 -21 83 -34 91 -20 13 -38 -2 -38 -32 0 -32 -9 -35 -43 -17 -42 22 -46 38
-47 171 0 123 1 129 25 152 13 14 36 25 50 25 l25 0 0 -134z"/>
<path d="M13620 6831 l-5 -65 -43 57 c-23 31 -47 57 -52 57 -6 0 -10 -33 -10
-75 0 -88 18 -102 22 -17 l3 57 45 -59 45 -60 3 42 c2 23 2 61 0 85 -3 36 -5
33 -8 -22z"/>
<path d="M13673 6805 c0 -44 2 -63 4 -42 4 37 5 37 49 37 44 0 44 0 44 -36 0
-21 4 -33 10 -29 6 3 10 37 10 76 0 39 -4 69 -10 69 -5 0 -10 -13 -10 -30 0
-29 -2 -30 -44 -30 -43 0 -45 1 -49 33 -2 17 -4 -4 -4 -48z"/>
<path d="M13807 6773 c-14 -13 -6 -21 15 -15 16 4 20 2 15 -10 -3 -9 -1 -20 5
-26 8 -8 6 -13 -6 -18 -11 -4 -22 -1 -27 7 -7 11 -9 11 -9 -3 0 -22 15 -31 40
-23 36 11 22 95 -15 95 -7 0 -15 -3 -18 -7z"/>
<path d="M12410 7045 l0 -35 -202 0 c-194 0 -205 -1 -255 -25 -40 -18 -60 -36
-83 -72 l-30 -48 2 -547 c3 -534 3 -547 24 -574 11 -15 37 -42 58 -58 l38 -31
220 -3 c208 -3 220 -4 225 -23 5 -16 14 -19 69 -19 57 0 64 2 64 20 0 19 7 20
255 20 203 0 262 3 284 14 42 22 98 90 110 133 16 57 15 1013 -1 1067 -16 53
-84 121 -134 135 -23 6 -139 11 -276 11 l-238 0 0 35 0 35 -65 0 -65 0 0 -35z
m632 -55 c49 -14 93 -52 121 -104 22 -41 22 -44 22 -562 l0 -521 -30 -48 c-20
-32 -45 -56 -74 -72 l-44 -23 -519 0 c-419 0 -525 3 -551 14 -39 17 -92 71
-106 109 -7 19 -11 207 -11 551 l0 522 29 46 c30 47 50 63 106 85 39 15 1002
18 1057 3z"/>
<path d="M14416 6995 c-49 -17 -93 -59 -117 -110 -17 -37 -19 -75 -19 -551 0
-365 3 -521 12 -545 17 -50 48 -88 94 -115 l41 -24 532 0 c503 0 534 1 569 19
43 22 73 53 96 98 15 30 16 88 14 571 l-3 539 -29 41 c-18 26 -47 51 -79 67
l-51 25 -510 0 c-408 -1 -519 -4 -550 -15z m1101 -20 c32 -16 61 -41 79 -67
l29 -41 3 -526 2 -526 -22 -44 c-13 -25 -40 -59 -61 -75 l-39 -31 -536 -2
-537 -3 -40 23 c-23 13 -52 43 -70 71 l-30 49 0 516 c0 284 3 528 8 543 11 40
66 98 112 119 37 17 78 19 546 19 l505 0 51 -25z"/>
<path d="M9575 6808 c-45 -26 -44 -22 -45 -479 0 -426 0 -437 21 -463 l20 -26
779 0 779 0 20 26 c21 26 21 37 21 455 0 292 -4 436 -11 452 -6 14 -22 30 -36
36 -35 16 -1520 15 -1548 -1z m463 -67 c7 -21 12 -40 12 -43 0 -3 -20 -5 -45
-5 -49 0 -48 -1 -24 65 14 36 44 28 57 -17z m52 -6 c0 -33 -4 -45 -15 -45 -11
0 -15 12 -15 45 0 33 4 45 15 45 11 0 15 -12 15 -45z m87 -2 c1 -46 -11 -55
-33 -25 -13 16 -13 16 -14 0 0 -10 -7 -18 -15 -18 -11 0 -15 12 -15 46 l0 45
38 -3 c36 -3 37 -4 39 -45z m121 35 c35 -35 -14 -102 -57 -78 -21 11 -27 43
-15 74 7 19 55 21 72 4z m66 -10 l16 -22 0 22 c0 13 6 22 15 22 11 0 15 -12
15 -45 0 -36 -3 -45 -18 -45 -9 0 -25 12 -34 28 l-17 27 -1 -27 c0 -16 -4 -28
-10 -28 -5 0 -10 20 -10 45 0 51 18 60 44 23z m161 12 c10 -16 -5 -34 -18 -21
-18 18 -27 13 -27 -14 0 -16 6 -25 15 -25 8 0 15 5 15 11 0 6 7 9 15 5 10 -3
15 1 15 12 0 26 20 42 51 42 28 0 39 -15 39 -55 0 -40 -59 -55 -82 -22 -4 6
-13 4 -23 -6 -42 -43 -92 7 -69 67 7 18 59 22 69 6z m145 -35 c0 -33 -4 -45
-15 -45 -11 0 -15 12 -15 45 0 33 4 45 15 45 11 0 15 -12 15 -45z m40 10 c0
-24 5 -35 15 -35 8 0 15 -4 15 -10 0 -5 -13 -10 -30 -10 -29 0 -30 2 -30 45 0
33 4 45 15 45 10 0 15 -11 15 -35z"/>
<path d="M10130 6750 c0 -5 5 -10 10 -10 6 0 10 5 10 10 0 6 -4 10 -10 10 -5
0 -10 -4 -10 -10z"/>
<path d="M10250 6735 c0 -16 6 -25 15 -25 9 0 15 9 15 25 0 16 -6 25 -15 25
-9 0 -15 -9 -15 -25z"/>
<path d="M10570 6735 c0 -16 6 -25 15 -25 9 0 15 9 15 25 0 16 -6 25 -15 25
-9 0 -15 -9 -15 -25z"/>
<path d="M5502 6777 c-22 -23 -22 -25 -22 -464 0 -419 1 -442 19 -464 l19 -24
770 -3 770 -2 29 24 28 24 3 434 c2 418 2 434 -18 466 l-20 32 -778 0 -779 0
-21 -23z m477 -39 c24 -66 25 -65 -24 -65 -25 0 -45 2 -45 5 0 3 5 22 12 43
13 45 43 53 57 17z m51 -23 c0 -25 -4 -45 -10 -45 -5 0 -10 20 -10 45 0 25 5
45 10 45 6 0 10 -20 10 -45z m91 38 c7 -49 4 -83 -7 -83 -6 0 -14 7 -18 15 -3
8 -10 15 -16 15 -5 0 -10 -7 -10 -15 0 -8 -4 -15 -10 -15 -5 0 -10 20 -10 45
0 45 0 45 35 45 19 0 35 -3 36 -7z m127 -35 c4 -48 -26 -68 -64 -43 -26 17
-30 35 -13 66 8 15 19 19 42 17 29 -3 32 -7 35 -40z m65 20 l16 -23 0 23 c1
13 7 22 16 22 11 0 15 -12 15 -45 0 -37 -3 -45 -19 -45 -10 0 -26 10 -34 23
l-16 22 0 -22 c-1 -14 -7 -23 -16 -23 -11 0 -15 12 -15 45 0 37 3 45 19 45 10
0 26 -10 34 -22z m165 4 c3 -9 -5 -12 -24 -10 -20 2 -29 -2 -32 -15 -4 -19 30
-37 36 -19 5 17 22 15 22 -3 0 -22 -36 -38 -59 -26 -23 13 -31 40 -20 70 7 18
15 22 41 19 17 -2 33 -9 36 -16z m92 -2 c22 -42 -19 -92 -59 -71 -23 13 -31
40 -20 69 11 30 64 31 79 2z m40 -25 c0 -25 -4 -45 -10 -45 -5 0 -10 20 -10
45 0 25 5 45 10 45 6 0 10 -20 10 -45z m40 10 c0 -28 4 -35 20 -35 11 0 20 -4
20 -10 0 -5 -13 -10 -30 -10 -29 0 -30 2 -30 45 0 25 5 45 10 45 6 0 10 -16
10 -35z"/>
<path d="M6070 6730 c0 -5 7 -10 15 -10 8 0 15 5 15 10 0 6 -7 10 -15 10 -8 0
-15 -4 -15 -10z"/>
<path d="M6193 6724 c-8 -20 13 -42 27 -28 12 12 3 44 -11 44 -5 0 -12 -7 -16
-16z"/>
<path d="M6513 6724 c-8 -21 13 -42 28 -27 13 13 5 43 -11 43 -6 0 -13 -7 -17
-16z"/>
<path d="M7795 6775 l-25 -24 0 -428 c0 -235 3 -438 6 -451 15 -53 3 -52 814
-52 796 0 796 0 814 45 3 9 6 212 6 451 l0 435 -25 24 -24 25 -771 0 -771 0
-24 -25z m483 -54 c7 -21 12 -40 12 -43 0 -3 -20 -5 -45 -5 -49 0 -48 -1 -24
65 14 36 44 28 57 -17z m52 -6 c0 -33 -4 -45 -15 -45 -11 0 -15 12 -15 45 0
33 4 45 15 45 11 0 15 -12 15 -45z m87 -2 c1 -46 -11 -55 -33 -25 -13 16 -13
16 -14 0 0 -10 -7 -18 -15 -18 -11 0 -15 12 -15 46 l0 45 38 -3 c36 -3 37 -4
39 -45z m121 35 c35 -35 -14 -102 -57 -78 -21 11 -27 43 -15 74 7 19 55 21 72
4z m70 -10 l11 -23 0 23 c1 13 7 22 16 22 11 0 15 -12 15 -45 0 -53 -17 -59
-50 -17 l-21 27 4 -27 c3 -19 0 -28 -9 -28 -10 0 -14 14 -14 45 0 37 3 45 18
45 11 0 24 -10 30 -22z m157 12 c10 -16 -5 -34 -18 -21 -18 18 -27 13 -27 -14
0 -16 6 -25 15 -25 8 0 15 5 15 11 0 6 7 9 15 5 10 -3 15 1 15 12 0 26 20 42
51 42 28 0 39 -15 39 -55 0 -40 -59 -55 -82 -22 -4 6 -13 4 -23 -6 -42 -43
-92 7 -69 67 7 18 59 22 69 6z m145 -35 c0 -33 -4 -45 -15 -45 -11 0 -15 12
-15 45 0 33 4 45 15 45 11 0 15 -12 15 -45z m40 10 c0 -24 5 -35 15 -35 8 0
15 -4 15 -10 0 -5 -13 -10 -30 -10 -29 0 -30 2 -30 45 0 33 4 45 15 45 10 0
15 -11 15 -35z"/>
<path d="M8370 6730 c0 -5 5 -10 10 -10 6 0 10 5 10 10 0 6 -4 10 -10 10 -5 0
-10 -4 -10 -10z"/>
<path d="M8490 6715 c0 -16 6 -25 15 -25 9 0 15 9 15 25 0 16 -6 25 -15 25 -9
0 -15 -9 -15 -25z"/>
<path d="M8810 6715 c0 -16 6 -25 15 -25 9 0 15 9 15 25 0 16 -6 25 -15 25 -9
0 -15 -9 -15 -25z"/>
<path d="M3710 6758 c-20 -21 -20 -33 -20 -469 0 -448 0 -448 22 -469 22 -20
31 -20 789 -20 760 0 767 0 793 21 l26 20 0 448 0 448 -23 21 -23 22 -772 0
-771 0 -21 -22z m483 -60 l15 -43 1 43 c1 30 5 42 16 42 11 0 15 -12 15 -44
l0 -45 -64 2 -63 2 14 42 c20 58 46 58 66 1z m134 -5 c1 -32 -2 -43 -13 -43
-8 0 -14 7 -14 15 0 8 -4 15 -10 15 -5 0 -10 -7 -10 -15 0 -8 -7 -15 -15 -15
-11 0 -15 12 -15 46 l0 45 38 -3 c36 -3 37 -4 39 -45z m127 31 c19 -49 -10
-92 -51 -77 -33 12 -45 57 -21 81 17 17 65 15 72 -4z m68 -11 l17 -28 1 28 c0
15 5 27 10 27 6 0 10 -20 10 -45 0 -51 -18 -60 -44 -23 l-16 22 0 -22 c0 -13
-6 -22 -15 -22 -11 0 -15 12 -15 45 0 36 3 45 18 45 9 0 25 -12 34 -27z m164
16 c3 -6 0 -15 -7 -20 -8 -4 -16 -3 -20 3 -8 13 -29 1 -29 -17 0 -37 50 -21
69 23 9 19 18 23 44 20 29 -3 32 -6 35 -40 4 -46 -26 -69 -61 -45 -19 12 -25
12 -44 0 -21 -14 -26 -14 -48 1 -27 18 -31 36 -15 67 12 21 64 27 76 8z m134
-34 c0 -33 -4 -45 -15 -45 -11 0 -15 12 -15 45 0 33 4 45 15 45 11 0 15 -12
15 -45z m40 10 c0 -28 4 -35 20 -35 11 0 20 -4 20 -10 0 -5 -16 -10 -35 -10
-35 0 -35 0 -35 45 0 33 4 45 15 45 10 0 15 -11 15 -35z"/>
<path d="M4280 6710 c0 -5 5 -10 10 -10 6 0 10 5 10 10 0 6 -4 10 -10 10 -5 0
-10 -4 -10 -10z"/>
<path d="M4400 6695 c0 -16 6 -25 15 -25 9 0 15 9 15 25 0 16 -6 25 -15 25 -9
0 -15 -9 -15 -25z"/>
<path d="M4723 6704 c-8 -20 13 -42 27 -28 12 12 3 44 -11 44 -5 0 -12 -7 -16
-16z"/>
<path d="M7780 5690 c0 -117 10 -134 85 -145 53 -9 65 -24 65 -89 0 -42 -2
-46 -24 -46 -36 0 -56 -10 -56 -29 0 -27 89 -143 107 -139 21 4 105 127 101
147 -2 11 -16 17 -41 19 l-37 3 0 64 c0 82 -22 111 -95 122 l-50 8 -3 93 c-3
90 -3 92 -27 92 -25 0 -25 0 -25 -100z"/>
<path d="M8140 5696 c0 -93 0 -95 31 -120 19 -16 43 -26 63 -26 45 0 56 -16
56 -82 0 -57 0 -58 -29 -58 -16 0 -34 -7 -41 -15 -11 -13 -6 -26 31 -80 24
-35 51 -67 59 -70 10 -4 26 7 47 32 72 85 80 133 23 133 -29 0 -30 2 -30 43 0
99 -35 147 -109 147 -41 0 -51 23 -51 114 0 74 -1 76 -25 76 -25 0 -25 0 -25
-94z"/>
<path d="M8500 5711 c0 -43 5 -92 11 -110 12 -34 53 -61 93 -61 41 0 57 -26
54 -84 l-3 -51 -37 -3 c-46 -4 -49 -21 -12 -77 37 -55 65 -85 80 -85 16 0 104
113 104 133 0 17 -21 27 -55 27 -21 0 -23 5 -27 71 -3 63 -7 74 -31 95 -16 13
-39 24 -53 24 -57 0 -64 13 -64 110 l0 90 -30 0 -30 0 0 -79z"/>
<path d="M10730 5711 c0 -93 -11 -111 -70 -111 -27 0 -48 -8 -69 -26 -29 -24
-31 -30 -31 -94 l0 -69 -37 -3 c-53 -4 -53 -27 -2 -96 47 -63 57 -72 73 -66
21 8 99 133 93 148 -3 8 -21 16 -39 18 -32 3 -33 4 -36 56 -4 64 8 82 55 82
41 0 89 23 103 49 5 11 10 58 10 105 0 85 0 86 -25 86 -25 0 -25 -1 -25 -79z"/>
<path d="M11080 5711 c0 -95 -11 -111 -75 -111 -69 0 -88 -23 -93 -109 -4 -62
-7 -71 -24 -71 -27 0 -58 -18 -58 -33 0 -23 90 -137 108 -137 21 1 104 115
100 138 -2 11 -16 19 -38 22 -34 5 -35 7 -38 52 -4 69 8 84 68 90 34 4 59 13
75 28 23 22 25 31 25 117 0 93 0 93 -25 93 -25 0 -25 -1 -25 -79z"/>
<path d="M8870 5686 c0 -84 3 -98 23 -121 14 -16 37 -28 62 -32 58 -8 65 -18
65 -84 l0 -59 -34 0 c-20 0 -36 -6 -39 -14 -6 -16 70 -133 93 -142 9 -3 27 9
48 33 80 90 83 109 21 122 l-34 7 -3 66 c-3 80 -28 112 -93 121 -23 3 -46 11
-50 19 -5 7 -9 50 -9 96 0 81 0 82 -25 82 -25 0 -25 0 -25 -94z"/>
<path d="M10027 5773 c-4 -3 -7 -46 -7 -95 0 -86 -1 -89 -26 -98 -14 -6 -38
-10 -53 -10 -53 0 -91 -56 -91 -135 0 -42 -1 -44 -32 -47 -24 -2 -34 -8 -36
-23 -3 -24 84 -138 101 -132 18 5 108 128 104 141 -2 6 -20 12 -40 14 l-37 3
0 53 c0 62 8 71 69 79 29 4 53 14 70 31 24 24 26 34 29 126 l4 100 -24 0 c-14
0 -28 -3 -31 -7z"/>
<path d="M10375 5768 c-3 -7 -6 -49 -7 -92 l-3 -79 -59 -12 c-76 -15 -94 -38
-98 -125 l-3 -65 -35 -5 c-22 -3 -36 -11 -38 -22 -3 -17 68 -116 94 -131 9 -5
26 9 55 45 73 92 74 117 7 118 -27 0 -28 2 -28 54 0 62 8 71 71 80 76 11 93
38 97 152 l4 94 -26 0 c-15 0 -29 -6 -31 -12z"/>
<path d="M3727 5734 c-9 -9 -9 -176 -1 -199 9 -21 56 -45 92 -45 40 0 52 -17
52 -76 0 -52 0 -52 -37 -61 -21 -5 -39 -16 -41 -24 -4 -21 84 -139 103 -139
18 0 105 117 105 141 0 19 -20 29 -56 29 -23 0 -24 3 -24 65 0 82 -25 115 -88
115 -22 0 -44 6 -50 13 -6 7 -12 51 -14 97 -2 67 -6 85 -18 88 -9 1 -19 0 -23
-4z"/>
<path d="M4080 5651 c0 -82 2 -92 26 -120 18 -22 35 -31 56 -31 56 0 68 -14
68 -80 0 -60 0 -60 -30 -60 -54 0 -55 -28 -3 -103 27 -39 54 -67 64 -67 10 0
37 29 65 71 47 68 48 71 29 85 -10 8 -29 14 -42 14 -21 0 -23 5 -23 49 0 70
-16 107 -55 125 -18 9 -45 16 -59 16 -35 0 -46 26 -46 114 0 74 -1 76 -25 76
-25 0 -25 -1 -25 -89z"/>
<path d="M4450 5640 c0 -96 1 -102 26 -125 15 -14 39 -25 53 -25 15 0 37 -7
49 -16 18 -12 22 -25 22 -70 l0 -54 -35 0 c-52 0 -54 -22 -9 -87 50 -73 63
-85 79 -75 20 10 95 113 95 128 0 16 -31 34 -59 34 -19 0 -21 6 -21 64 0 80
-23 113 -85 123 -62 9 -65 15 -65 114 0 88 0 89 -25 89 l-25 0 0 -100z"/>
<path d="M6670 5656 c0 -55 -4 -87 -12 -93 -7 -6 -35 -13 -63 -16 -71 -7 -95
-38 -95 -122 l0 -64 -31 -3 c-57 -6 -58 -28 -4 -102 27 -36 54 -66 61 -66 18
0 106 128 102 148 -2 11 -16 19 -38 22 -34 5 -35 6 -38 56 -4 63 13 84 68 84
27 0 48 8 69 26 31 25 31 27 31 120 0 94 0 94 -25 94 -25 0 -25 -1 -25 -84z"/>
<path d="M7020 5657 c0 -51 -5 -88 -12 -95 -7 -7 -31 -12 -54 -12 -31 0 -51
-7 -71 -24 -24 -21 -29 -33 -33 -93 -5 -68 -5 -68 -37 -71 -57 -6 -52 -35 24
-129 19 -24 38 -43 44 -43 16 0 100 124 97 145 -2 14 -13 21 -38 25 l-35 5 0
57 c0 31 4 60 8 64 4 4 32 11 63 15 86 12 94 24 94 141 0 98 0 98 -25 98 -25
0 -25 -1 -25 -83z"/>
<path d="M4812 5629 c3 -96 4 -102 31 -125 15 -13 39 -24 53 -24 51 0 64 -16
64 -80 l0 -59 -32 -3 c-24 -2 -34 -8 -36 -23 -3 -25 76 -135 98 -135 21 0 113
117 106 135 -3 8 -20 15 -38 17 l-33 3 -6 69 c-5 62 -9 72 -38 98 -19 17 -43
28 -61 28 -45 0 -60 31 -60 122 0 77 0 78 -26 78 l-26 0 4 -101z"/>
<path d="M5970 5648 c0 -105 -13 -128 -71 -128 -31 0 -47 -7 -70 -29 -26 -26
-29 -37 -29 -89 l0 -59 -40 -7 c-30 -5 -40 -11 -40 -25 0 -21 85 -131 101
-131 25 0 114 122 105 145 -3 9 -18 15 -41 15 l-35 0 0 55 c0 61 13 75 72 75
74 0 100 47 96 171 -3 78 -4 84 -25 87 -22 3 -23 1 -23 -80z"/>
<path d="M6320 5646 c0 -96 -4 -102 -75 -115 -69 -13 -89 -37 -95 -119 l-5
-67 -35 -5 c-22 -3 -36 -11 -38 -22 -4 -21 83 -138 103 -138 7 0 35 30 61 66
52 74 51 99 -2 99 -28 1 -29 3 -32 52 -3 57 13 83 54 83 37 0 91 26 103 48 6
12 11 61 11 111 0 90 0 91 -25 91 -25 0 -25 -1 -25 -84z"/>
<path d="M14860 5505 l0 -65 65 0 65 0 0 65 0 65 -65 0 -65 0 0 -65z"/>
<path d="M12410 5410 l0 -70 65 0 65 0 0 70 0 70 -65 0 -65 0 0 -70z"/>
<path d="M14860 5240 l0 -70 65 0 65 0 0 70 0 70 -65 0 -65 0 0 -70z"/>
<path d="M12410 5145 l0 -65 65 0 65 0 0 65 0 65 -65 0 -65 0 0 -65z"/>
<path d="M9575 5128 c-34 -20 -44 -41 -45 -95 l0 -53 -55 0 -55 0 0 -70 0 -70
55 0 55 0 0 -315 0 -316 25 -24 24 -25 771 0 771 0 24 25 25 24 0 430 c0 294
-4 438 -11 454 -6 14 -22 30 -36 36 -35 16 -1520 15 -1548 -1z m408 -43 c5
-11 0 -13 -23 -8 -27 5 -30 3 -30 -20 0 -32 19 -45 35 -24 15 21 25 22 25 2 0
-8 -9 -19 -20 -25 -32 -17 -60 4 -60 44 0 18 3 36 7 39 12 13 61 7 66 -8z m95
-27 c2 -29 -1 -39 -17 -48 -33 -17 -61 3 -61 44 0 41 7 48 45 44 27 -3 30 -7
33 -40z m42 -3 c0 -33 -4 -45 -15 -45 -11 0 -15 12 -15 45 0 33 4 45 15 45 11
0 15 -12 15 -45z m30 10 c0 -24 5 -35 14 -35 8 0 18 -4 21 -10 4 -6 -7 -10
-24 -10 -30 0 -31 1 -31 45 0 25 5 45 10 45 6 0 10 -16 10 -35z m150 20 c0
-18 -12 -19 -27 -4 -7 7 -13 8 -17 0 -4 -6 4 -13 18 -17 32 -8 42 -35 20 -51
-22 -16 -26 -16 -50 1 -10 8 -16 18 -12 22 4 4 15 1 23 -6 11 -9 19 -10 26 -3
7 7 1 14 -20 21 -48 17 -41 52 11 52 18 0 28 -5 28 -15z m42 -22 c2 -26 8 -38
18 -38 10 0 16 12 18 38 4 45 22 50 22 5 0 -37 -8 -53 -30 -60 -30 -10 -50 11
-50 52 0 51 18 52 22 3z m258 -8 c0 -33 -4 -45 -15 -45 -10 0 -15 11 -15 35 0
24 -5 35 -15 35 -10 0 -15 -11 -15 -35 0 -19 -4 -35 -10 -35 -5 0 -10 15 -10
34 0 33 -24 57 -33 33 -3 -9 -8 -9 -18 0 -16 15 -39 -1 -39 -27 0 -23 29 -35
36 -15 8 19 24 19 24 0 0 -12 -28 -35 -44 -35 -13 0 -36 34 -36 54 0 36 18 44
106 45 l84 1 0 -45z m88 3 c2 -29 -1 -39 -17 -48 -33 -17 -61 3 -61 44 0 41 7
48 45 44 27 -3 30 -7 33 -40z m61 15 l20 -28 1 28 c0 15 5 27 10 27 6 0 10
-20 10 -45 0 -55 -21 -61 -47 -12 l-18 32 -3 -32 c-5 -49 -22 -40 -22 12 0 53
17 60 49 18z"/>
<path d="M10022 5053 c2 -17 9 -28 18 -28 9 0 16 11 18 28 3 22 -1 27 -18 27
-17 0 -21 -5 -18 -27z"/>
<path d="M10632 5053 c2 -17 9 -28 18 -28 9 0 16 11 18 28 3 22 -1 27 -18 27
-17 0 -21 -5 -18 -27z"/>
<path d="M7795 5095 l-25 -24 0 -331 c0 -287 -2 -330 -15 -330 -12 0 -15 -14
-15 -70 0 -56 3 -70 15 -70 10 0 15 -10 15 -27 0 -49 12 -73 41 -88 42 -22
1516 -22 1558 0 33 16 41 33 41 81 0 31 2 34 30 34 l31 0 -3 68 c-3 65 -4 67
-30 70 l-28 3 0 330 0 330 -25 24 -24 25 -771 0 -771 0 -24 -25z m430 -26 c10
-15 -4 -24 -17 -11 -15 15 -38 -3 -38 -28 0 -23 29 -35 36 -15 8 19 24 19 24
0 0 -8 -9 -19 -19 -25 -25 -13 -27 -13 -45 6 -19 18 -21 55 -4 72 15 15 55 16
63 1z m93 -31 c2 -29 -1 -39 -17 -48 -33 -17 -61 3 -61 44 0 41 7 48 45 44 27
-3 30 -7 33 -40z m42 -3 c0 -25 -4 -45 -10 -45 -5 0 -10 20 -10 45 0 25 5 45
10 45 6 0 10 -20 10 -45z m30 10 c0 -28 4 -35 20 -35 11 0 20 -4 20 -10 0 -5
-13 -10 -30 -10 -29 0 -30 2 -30 45 0 25 5 45 10 45 6 0 10 -16 10 -35z m150
20 c0 -18 -12 -19 -27 -4 -7 7 -13 8 -17 0 -4 -6 4 -13 18 -17 32 -8 42 -35
20 -51 -22 -16 -26 -16 -50 1 -10 8 -16 18 -12 22 4 4 15 1 23 -6 11 -9 19
-10 26 -3 7 7 1 14 -20 21 -48 17 -41 52 11 52 18 0 28 -5 28 -15z m42 -22 c2
-26 8 -38 18 -38 10 0 16 12 18 38 4 45 22 50 22 5 0 -37 -8 -53 -30 -60 -30
-10 -50 11 -50 52 0 51 18 52 22 3z m258 -8 c0 -33 -4 -45 -15 -45 -10 0 -15
11 -15 35 0 24 -5 35 -15 35 -10 0 -15 -11 -15 -35 0 -19 -4 -35 -10 -35 -5 0
-10 15 -10 34 0 33 -24 57 -33 33 -3 -9 -8 -9 -18 0 -16 15 -39 -1 -39 -27 0
-23 29 -35 36 -15 8 19 24 19 24 0 0 -12 -28 -35 -44 -35 -13 0 -36 34 -36 54
0 36 18 44 106 45 l84 1 0 -45z m88 3 c2 -29 -1 -39 -17 -48 -33 -17 -61 3
-61 44 0 41 7 48 45 44 27 -3 30 -7 33 -40z m62 15 l14 -28 4 28 c6 44 22 31
22 -18 0 -52 -17 -59 -42 -17 l-17 27 -1 -27 c0 -16 -4 -28 -10 -28 -5 0 -10
20 -10 45 0 52 19 61 40 18z"/>
<path d="M8262 5033 c2 -17 9 -28 18 -28 9 0 16 11 18 28 3 22 -1 27 -18 27
-17 0 -21 -5 -18 -27z"/>
<path d="M8872 5033 c2 -17 9 -28 18 -28 9 0 16 11 18 28 3 22 -1 27 -18 27
-17 0 -21 -5 -18 -27z"/>
<path d="M3710 5078 c-13 -14 -20 -35 -20 -59 l0 -38 -67 -3 -68 -3 -3 -67 -3
-68 71 0 70 0 0 -338 0 -339 23 -21 23 -22 768 0 767 0 24 25 25 24 0 444 0
444 -23 21 -23 22 -772 0 -771 0 -21 -22z m425 -29 c10 -16 -3 -23 -18 -11
-10 9 -17 8 -25 0 -16 -16 -15 -33 3 -48 13 -11 18 -10 30 6 14 18 14 18 15
-2 0 -27 -32 -37 -59 -17 -23 16 -28 52 -9 71 15 15 55 16 63 1z m95 -3 c16
-21 9 -56 -15 -72 -41 -27 -88 39 -53 74 16 16 53 15 68 -2z m40 -31 c0 -25
-4 -45 -10 -45 -5 0 -10 20 -10 45 0 25 5 45 10 45 6 0 10 -20 10 -45z m40 10
c0 -24 5 -35 14 -35 8 0 18 -4 21 -10 4 -6 -8 -10 -29 -10 -36 0 -36 0 -36 45
0 33 4 45 15 45 10 0 15 -11 15 -35z m145 24 c10 -16 -4 -24 -17 -11 -15 15
-28 15 -28 2 0 -6 11 -15 25 -20 30 -11 33 -35 6 -50 -23 -12 -47 -5 -55 16
-6 16 10 19 19 4 8 -13 35 -13 35 -1 0 5 -10 13 -22 17 -27 8 -38 22 -31 41 6
16 59 18 68 2z m37 -26 c2 -26 8 -38 18 -38 10 0 16 12 18 38 4 49 22 48 22
-3 0 -29 -5 -42 -19 -50 -25 -13 -27 -13 -45 6 -17 17 -22 84 -7 84 6 0 11
-17 13 -37z m148 22 c0 -17 -16 -20 -25 -5 -10 16 -25 1 -25 -25 0 -32 20 -42
36 -20 16 21 28 16 18 -8 -13 -35 -66 -27 -79 13 -10 31 12 60 45 60 20 0 30
-5 30 -15z m80 5 c0 -5 -7 -10 -15 -10 -10 0 -15 -11 -15 -35 0 -19 -4 -35
-10 -35 -5 0 -10 16 -10 35 0 19 -4 35 -10 35 -5 0 -10 5 -10 10 0 6 16 10 35
10 19 0 35 -4 35 -10z m30 -35 c0 -25 -4 -45 -10 -45 -5 0 -10 20 -10 45 0 25
5 45 10 45 6 0 10 -20 10 -45z m90 31 c16 -21 9 -56 -15 -72 -41 -27 -88 39
-53 74 16 16 53 15 68 -2z m62 -13 l17 -28 1 28 c0 15 5 27 10 27 6 0 10 -20
10 -45 0 -52 -10 -56 -39 -17 l-20 27 -1 -27 c0 -16 -4 -28 -10 -28 -5 0 -10
20 -10 45 0 52 17 59 42 18z"/>
<path d="M4180 5035 c-9 -11 -11 -22 -4 -32 13 -21 25 -21 38 -1 8 14 7 21 -5
33 -14 15 -17 15 -29 0z"/>
<path d="M4790 5035 c-9 -11 -11 -22 -4 -32 13 -21 25 -21 38 -1 8 14 7 21 -5
33 -14 15 -17 15 -29 0z"/>
<path d="M5502 5077 c-14 -15 -22 -36 -22 -60 0 -34 -2 -37 -30 -37 l-30 0 0
-70 0 -70 30 0 30 0 0 -335 0 -336 25 -24 24 -25 768 0 c614 1 771 3 785 14
34 26 38 64 38 387 0 277 2 319 15 319 12 0 15 14 15 70 0 53 -3 70 -14 70 -8
0 -16 16 -20 40 -3 22 -15 49 -26 60 -20 20 -35 20 -793 20 l-774 0 -21 -23z
m428 -32 c0 -17 -16 -20 -25 -5 -10 16 -25 1 -25 -25 0 -32 20 -42 36 -20 16
21 28 16 18 -8 -13 -35 -66 -27 -79 13 -10 31 12 60 45 60 20 0 30 -5 30 -15z
m94 -1 c18 -48 -10 -93 -49 -78 -24 9 -37 51 -25 75 13 24 65 26 74 3z m36
-29 c0 -25 -4 -45 -10 -45 -5 0 -10 20 -10 45 0 25 5 45 10 45 6 0 10 -20 10
-45z m40 10 c0 -24 5 -35 14 -35 8 0 18 -4 21 -10 4 -6 -7 -10 -24 -10 -30 0
-31 1 -31 45 0 25 5 45 10 45 6 0 10 -16 10 -35z m145 24 c11 -16 -3 -23 -19
-10 -10 8 -16 9 -21 1 -3 -5 5 -14 19 -20 48 -18 27 -66 -23 -53 -21 5 -30 33
-11 33 6 0 10 -4 10 -10 0 -5 7 -10 15 -10 23 0 18 16 -10 28 -24 11 -32 31
-18 45 10 11 51 8 58 -4z m35 -10 c0 -11 5 -29 11 -40 14 -28 39 -7 39 32 0
16 5 29 11 29 12 0 7 -75 -5 -87 -11 -11 -59 -5 -67 8 -12 19 -11 79 1 79 6 0
10 -9 10 -21z m153 6 c5 -11 0 -13 -23 -8 -27 5 -30 3 -30 -20 0 -32 19 -45
35 -24 15 21 25 22 25 2 0 -8 -9 -19 -20 -25 -32 -17 -60 4 -60 44 0 18 3 36
7 39 12 13 61 7 66 -8z m107 -30 c0 -25 -4 -45 -10 -45 -5 0 -10 18 -10 40 0
31 -3 38 -15 34 -9 -4 -15 -19 -15 -40 0 -19 -4 -34 -10 -34 -5 0 -10 14 -10
31 0 19 -7 37 -17 45 -16 12 -11 13 35 14 l52 0 0 -45z m94 29 c18 -48 -10
-93 -49 -78 -24 9 -37 51 -25 75 13 24 65 26 74 3z m65 -16 l21 -33 0 33 c0
17 5 32 10 32 6 0 10 -20 10 -45 0 -55 -19 -60 -49 -12 l-21 32 0 -32 c0 -18
-4 -33 -10 -33 -5 0 -10 20 -10 45 0 55 19 60 49 13z"/>
<path d="M5974 5035 c-9 -22 0 -50 16 -50 21 0 26 51 5 59 -9 3 -18 0 -21 -9z"/>
<path d="M6584 5035 c-9 -22 0 -50 16 -50 21 0 26 51 5 59 -9 3 -18 0 -21 -9z"/>
<path d="M14860 4970 l0 -70 65 0 65 0 0 70 0 70 -65 0 -65 0 0 -70z"/>
<path d="M11814 4967 c-3 -8 -4 -39 -2 -68 l3 -54 68 -3 68 -3 -3 68 -3 68
-63 3 c-47 2 -64 -1 -68 -11z"/>
<path d="M12087 4973 c-4 -3 -7 -35 -7 -70 l0 -63 65 0 65 0 0 70 0 70 -58 0
c-32 0 -62 -3 -65 -7z"/>
<path d="M12350 4910 l0 -70 33 0 c70 0 137 35 137 73 0 12 -121 67 -147 67
-22 0 -23 -4 -23 -70z"/>
<path d="M14860 4705 l0 -65 65 0 65 0 0 65 0 65 -65 0 -65 0 0 -65z"/>
<path d="M14860 4455 l0 -55 59 -30 c70 -35 71 -33 71 71 l0 69 -65 0 -65 0 0
-55z"/>
<path d="M3557 4403 c-4 -3 -7 -35 -7 -70 0 -61 1 -63 25 -63 24 0 25 2 25 70
0 61 -2 70 -18 70 -10 0 -22 -3 -25 -7z"/>
<path d="M5340 4340 l0 -70 65 0 65 0 0 70 0 70 -65 0 -65 0 0 -70z"/>
<path d="M12000 4340 l0 -70 65 0 65 0 0 70 0 70 -65 0 -65 0 0 -70z"/>
<path d="M12270 4340 l0 -70 65 0 66 0 -3 68 -3 67 -62 3 -63 3 0 -71z"/>
<path d="M12537 4404 c-4 -4 -7 -36 -7 -71 l0 -63 70 0 71 0 -3 68 -3 67 -60
3 c-34 2 -64 0 -68 -4z"/>
<path d="M12800 4340 l0 -70 65 0 65 0 0 70 0 70 -65 0 -65 0 0 -70z"/>
<path d="M13070 4340 l0 -70 65 0 66 0 -3 68 -3 67 -62 3 -63 3 0 -71z"/>
<path d="M13337 4404 c-4 -4 -7 -36 -7 -71 l0 -63 70 0 71 0 -3 68 -3 67 -60
3 c-34 2 -64 0 -68 -4z"/>
<path d="M13600 4340 l0 -70 65 0 65 0 0 70 0 70 -65 0 -65 0 0 -70z"/>
<path d="M13867 4404 c-4 -4 -7 -36 -7 -71 l0 -63 70 0 71 0 -3 68 -3 67 -60
3 c-34 2 -64 0 -68 -4z"/>
<path d="M14137 4403 c-4 -3 -7 -35 -7 -70 l0 -63 65 0 65 0 0 70 0 70 -58 0
c-32 0 -62 -3 -65 -7z"/>
<path d="M14400 4340 l0 -70 65 0 65 0 0 70 0 70 -65 0 -65 0 0 -70z"/>
<path d="M14667 4404 c-4 -4 -7 -36 -7 -71 l0 -63 70 0 71 0 -3 68 -3 67 -60
3 c-34 2 -64 0 -68 -4z"/>
<path d="M8480 3865 c0 -83 -1 -86 -26 -95 -14 -6 -38 -10 -54 -10 -19 0 -36
-10 -54 -31 -22 -25 -26 -41 -26 -90 0 -58 0 -59 -29 -59 -54 0 -56 -21 -6
-89 25 -33 52 -61 60 -61 12 0 69 68 99 118 12 19 -13 42 -45 42 -28 0 -29 2
-29 49 0 56 9 66 69 76 25 4 54 17 68 31 21 21 23 32 23 114 0 89 0 90 -25 90
-25 0 -25 -1 -25 -85z"/>
<path d="M8820 3879 c0 -89 -10 -109 -56 -109 -41 0 -89 -22 -98 -45 -3 -9 -6
-43 -6 -76 0 -58 -1 -59 -27 -59 -16 0 -35 -5 -43 -10 -13 -8 -13 -13 3 -42
30 -56 81 -110 97 -103 21 8 91 116 88 135 -2 9 -16 16 -36 18 l-33 3 3 62 3
62 55 8 c82 11 94 28 98 137 l4 90 -26 0 c-26 0 -26 -1 -26 -71z"/>
<path d="M9150 3870 c0 -89 -8 -100 -73 -100 -58 0 -80 -27 -85 -103 -4 -66
-4 -66 -36 -69 -22 -2 -32 -9 -34 -23 -4 -27 74 -135 96 -135 10 0 37 29 62
66 43 63 44 66 25 80 -10 8 -29 14 -42 14 -21 0 -23 4 -23 54 0 30 5 58 10 61
6 3 31 8 56 10 30 2 55 12 70 26 22 20 24 31 24 111 0 87 0 88 -25 88 -25 0
-25 -1 -25 -80z"/>
<path d="M8150 3856 c0 -76 -2 -86 -22 -100 -12 -9 -37 -16 -54 -16 -56 0 -78
-28 -84 -107 l-5 -68 -33 -3 c-18 -2 -36 -10 -38 -17 -7 -18 76 -125 97 -125
21 0 101 106 97 128 -2 11 -15 18 -36 20 -32 3 -32 4 -32 57 0 52 2 55 28 60
117 24 132 44 132 174 0 80 0 81 -25 81 -25 0 -25 -1 -25 -84z"/>
<path d="M9710 3842 c0 -119 10 -136 85 -156 l50 -12 3 -57 3 -57 -31 0 c-18
0 -33 -6 -36 -15 -7 -17 32 -78 72 -116 l26 -24 38 44 c55 64 68 90 50 101 -8
6 -27 10 -42 10 -27 0 -28 1 -28 59 0 74 -18 99 -85 116 l-50 12 -5 94 c-5 88
-6 94 -27 97 -23 3 -23 1 -23 -96z"/>
<path d="M10410 3841 c0 -89 2 -102 23 -125 13 -15 39 -28 67 -33 l45 -9 0
-54 c0 -53 -1 -55 -28 -58 -43 -5 -42 -26 4 -87 30 -39 48 -55 62 -53 25 4
101 112 94 133 -4 9 -18 15 -35 15 -28 0 -29 2 -36 62 -7 75 -26 97 -87 105
-24 3 -47 11 -51 17 -4 6 -8 50 -8 99 0 86 0 87 -25 87 -25 0 -25 0 -25 -99z"/>
<path d="M10760 3851 c0 -108 18 -141 78 -141 52 0 60 -9 62 -65 4 -73 3 -75
-30 -75 -45 0 -47 -23 -6 -78 64 -88 72 -89 129 -6 45 64 45 88 1 92 -31 3
-32 4 -36 68 -5 78 -25 103 -89 111 -24 3 -47 11 -51 17 -4 6 -8 46 -8 89 0
75 0 77 -25 77 -25 0 -25 -1 -25 -89z"/>
<path d="M4420 3845 c0 -83 -1 -86 -26 -95 -14 -6 -37 -10 -50 -10 -15 0 -38
-12 -55 -29 -26 -26 -29 -36 -29 -90 0 -61 0 -61 -29 -61 -16 0 -34 -7 -41
-15 -11 -13 -6 -25 32 -73 24 -31 51 -58 60 -60 20 -4 98 98 98 128 0 20 -4
22 -45 24 -17 1 -20 8 -20 55 0 60 6 66 69 76 21 4 49 17 62 30 22 22 24 33
24 115 0 89 0 90 -25 90 -25 0 -25 -1 -25 -85z"/>
<path d="M4760 3866 c0 -92 -11 -116 -54 -116 -80 0 -108 -30 -112 -120 -1
-30 -6 -55 -11 -56 -4 -1 -20 -5 -35 -8 -18 -4 -28 -13 -28 -24 0 -19 85 -132
100 -132 16 0 101 122 98 139 -2 10 -17 18 -38 21 -33 5 -35 7 -38 47 -5 63 8
80 68 85 81 8 95 29 95 136 0 83 -1 87 -22 90 -22 3 -23 0 -23 -62z"/>
<path d="M5090 3850 c0 -89 -8 -100 -75 -100 -58 0 -85 -35 -85 -110 0 -59 0
-60 -29 -60 -16 0 -34 -7 -41 -15 -11 -13 -6 -26 31 -80 25 -37 51 -65 61 -65
21 0 98 101 98 129 0 20 -18 31 -51 31 -18 0 -20 6 -17 57 l3 58 55 7 c83 12
100 36 100 144 0 83 0 84 -25 84 -25 0 -25 -1 -25 -80z"/>
<path d="M10060 3831 c0 -84 3 -102 21 -125 12 -15 30 -26 44 -26 13 0 35 -4
49 -10 23 -8 26 -15 26 -59 0 -49 -1 -50 -35 -57 -45 -8 -44 -24 3 -84 39 -52
54 -63 75 -54 16 6 87 105 87 121 0 6 -15 15 -34 18 -32 7 -34 9 -39 63 -7 67
-35 100 -93 109 -21 3 -42 11 -46 17 -4 6 -8 50 -8 99 0 86 0 87 -25 87 -25 0
-25 0 -25 -99z"/>
<path d="M4090 3841 c0 -93 -17 -121 -71 -121 -64 0 -99 -47 -99 -135 0 -43
-1 -45 -30 -45 -18 0 -33 -6 -36 -15 -8 -20 73 -125 96 -125 17 0 100 103 100
125 0 14 -22 25 -51 25 -16 0 -19 7 -19 54 0 59 -1 58 71 70 20 4 47 18 60 32
21 23 24 34 24 117 0 88 -1 92 -22 95 -22 3 -23 1 -23 -77z"/>
<path d="M5643 3905 c-3 -9 -3 -54 -1 -100 5 -98 24 -128 86 -140 53 -10 62
-21 62 -76 l0 -49 -34 0 c-20 0 -36 -6 -39 -14 -6 -15 68 -121 91 -131 19 -7
23 -4 72 60 35 46 40 58 30 70 -7 8 -25 15 -41 15 -29 0 -29 1 -29 58 -1 73
-19 98 -85 115 l-50 12 -3 75 c-3 101 -8 120 -33 120 -11 0 -22 -7 -26 -15z"/>
<path d="M6350 3817 c0 -95 2 -105 23 -124 12 -12 42 -25 67 -30 l45 -9 3 -56
3 -57 -33 -3 c-20 -2 -34 -9 -36 -19 -4 -21 76 -119 97 -119 15 0 62 53 94
107 13 21 -11 43 -44 43 -29 0 -29 1 -29 58 0 70 -20 98 -77 107 -21 4 -43 8
-50 10 -8 3 -13 35 -15 97 -3 88 -4 93 -25 96 -23 3 -23 2 -23 -101z"/>
<path d="M6700 3827 c0 -85 2 -96 23 -115 15 -14 36 -22 58 -22 48 0 59 -15
59 -81 l0 -58 -32 -3 c-21 -2 -34 -9 -36 -20 -4 -19 77 -128 95 -128 24 0 115
131 101 146 -4 3 -22 9 -40 13 -32 6 -33 9 -36 56 -5 97 -17 113 -97 124 l-40
6 -3 88 c-3 85 -3 87 -27 87 -25 0 -25 -1 -25 -93z"/>
<path d="M6000 3807 c0 -95 2 -105 23 -124 12 -12 42 -25 67 -30 l45 -9 0 -54
c0 -55 0 -55 -32 -58 -22 -2 -33 -9 -33 -19 0 -22 79 -123 96 -123 17 0 106
109 101 124 -2 6 -19 13 -38 16 -34 5 -34 5 -39 67 -6 75 -25 98 -90 110 l-45
9 -5 94 c-5 89 -6 95 -27 98 -23 3 -23 2 -23 -101z"/>
<path d="M9573 3290 c-12 -5 -26 -18 -32 -29 -7 -13 -11 -166 -11 -456 l0
-436 25 -24 24 -25 771 0 771 0 24 25 25 24 0 439 c0 418 -1 441 -19 463 l-19
24 -769 2 c-431 1 -778 -2 -790 -7z m441 -71 c19 -48 17 -55 -14 -37 -18 10
-24 10 -27 1 -3 -7 -11 -13 -18 -13 -11 0 -11 8 2 45 8 25 21 45 28 45 7 0 20
-19 29 -41z m46 -4 c0 -25 -4 -45 -10 -45 -5 0 -10 20 -10 45 0 25 5 45 10 45
6 0 10 -20 10 -45z m81 38 c9 -66 -2 -109 -17 -68 -4 8 -12 15 -20 15 -8 0
-14 -7 -14 -15 0 -8 -4 -15 -10 -15 -5 0 -10 20 -10 45 0 45 0 45 35 45 19 0
35 -3 36 -7z m129 -7 c16 -21 9 -56 -15 -72 -41 -27 -88 39 -53 74 16 16 53
15 68 -2z m90 4 c0 -5 -11 -10 -25 -10 -14 0 -25 -4 -25 -10 0 -5 9 -10 20
-10 11 0 20 -4 20 -10 0 -5 -9 -10 -20 -10 -11 0 -20 -7 -20 -15 0 -8 -4 -15
-10 -15 -5 0 -10 20 -10 45 0 45 0 45 35 45 19 0 35 -4 35 -10z m75 0 c-3 -5
-15 -10 -26 -10 -10 0 -19 -4 -19 -10 0 -5 9 -10 20 -10 11 0 20 -4 20 -10 0
-5 -9 -10 -20 -10 -11 0 -20 -7 -20 -15 0 -8 -4 -15 -10 -15 -5 0 -10 20 -10
45 0 45 0 45 36 45 21 0 33 -4 29 -10z m115 -5 c0 -17 -16 -20 -25 -5 -10 16
-25 1 -25 -25 0 -48 33 -38 66 21 13 23 50 30 70 14 21 -18 17 -57 -8 -74 -20
-14 -24 -14 -45 0 -21 13 -25 13 -39 -1 -20 -20 -30 -19 -54 5 -23 23 -24 33
-10 61 13 24 70 27 70 4z m130 -30 c0 -25 -4 -45 -10 -45 -5 0 -10 20 -10 45
0 25 5 45 10 45 6 0 10 -20 10 -45z m40 10 c0 -24 5 -35 14 -35 8 0 18 -4 21
-10 4 -6 -7 -10 -24 -10 -30 0 -31 1 -31 45 0 25 5 45 10 45 6 0 10 -16 10
-35z"/>
<path d="M9980 3215 c0 -8 4 -15 10 -15 5 0 7 7 4 15 -4 8 -8 15 -10 15 -2 0
-4 -7 -4 -15z"/>
<path d="M10090 3230 c0 -5 6 -10 14 -10 8 0 18 5 21 10 3 6 -3 10 -14 10 -12
0 -21 -4 -21 -10z"/>
<path d="M10220 3235 c-9 -11 -11 -22 -4 -32 13 -21 25 -21 38 -1 8 14 7 21
-5 33 -14 15 -17 15 -29 0z"/>
<path d="M10590 3235 c-9 -11 -11 -22 -4 -32 13 -21 25 -21 38 -1 8 14 7 21
-5 33 -14 15 -17 15 -29 0z"/>
<path d="M5500 3260 c-19 -19 -20 -33 -20 -465 0 -427 1 -446 19 -464 11 -11
35 -23 53 -26 18 -3 367 -5 775 -3 l742 3 23 23 23 23 0 443 c0 422 -1 445
-19 465 l-19 21 -779 0 c-765 0 -778 0 -798 -20z m463 -62 l15 -43 1 43 c1 30
5 42 16 42 11 0 15 -12 15 -45 0 -40 -2 -45 -23 -45 -13 0 -29 6 -35 12 -10
10 -17 10 -33 0 -12 -8 -23 -12 -25 -9 -8 8 30 87 42 87 7 0 19 -19 27 -42z
m123 6 c1 -17 4 -36 8 -43 4 -6 1 -11 -8 -11 -9 0 -16 7 -16 15 0 8 -7 15 -15
15 -8 0 -15 -7 -15 -15 0 -8 -4 -15 -10 -15 -5 0 -10 21 -10 46 0 45 0 45 33
42 28 -3 32 -7 33 -34z m134 16 c14 -26 5 -57 -20 -70 -38 -20 -68 15 -56 66
8 32 60 34 76 4z m160 10 c0 -5 -11 -10 -25 -10 -14 0 -25 -4 -25 -10 0 -5 12
-10 26 -10 14 0 23 -4 19 -10 -3 -5 -15 -10 -26 -10 -10 0 -19 -7 -19 -15 0
-8 -4 -15 -10 -15 -5 0 -10 17 -10 39 0 35 -2 38 -25 33 -30 -5 -34 -22 -5
-22 11 0 20 -4 20 -10 0 -5 -9 -10 -20 -10 -11 0 -20 -7 -20 -15 0 -8 -4 -15
-10 -15 -5 0 -10 20 -10 45 l0 45 70 0 c40 0 70 -4 70 -10z m115 -1 c10 -15
-4 -24 -17 -11 -15 15 -38 -3 -38 -28 0 -23 29 -35 36 -15 8 19 24 19 24 0 0
-8 -9 -19 -19 -25 -25 -13 -27 -13 -45 6 -19 18 -21 55 -4 72 15 15 55 16 63
1z m95 -9 c14 -26 5 -57 -20 -70 -38 -20 -68 15 -56 66 8 32 60 34 76 4z m40
-25 c0 -25 -4 -45 -10 -45 -5 0 -10 20 -10 45 0 25 5 45 10 45 6 0 10 -20 10
-45z m30 10 c0 -28 4 -35 20 -35 11 0 20 -4 20 -10 0 -5 -13 -10 -30 -10 -29
0 -30 2 -30 45 0 25 5 45 10 45 6 0 10 -16 10 -35z"/>
<path d="M5927 3200 c-3 -12 0 -20 8 -20 8 0 11 8 8 20 -3 11 -7 20 -8 20 -1
0 -5 -9 -8 -20z"/>
<path d="M6040 3210 c0 -5 7 -10 15 -10 8 0 15 5 15 10 0 6 -7 10 -15 10 -8 0
-15 -4 -15 -10z"/>
<path d="M6172 3221 c-16 -10 -12 -53 5 -58 6 -2 16 4 22 15 13 24 -7 56 -27
43z"/>
<path d="M6542 3221 c-16 -10 -12 -53 5 -58 6 -2 16 4 22 15 13 24 -7 56 -27
43z"/>
<path d="M7791 3254 c-21 -26 -21 -37 -21 -455 0 -292 4 -436 11 -452 6 -14
22 -30 36 -36 17 -8 246 -11 774 -11 795 0 795 0 813 45 3 9 6 211 6 449 0
423 0 434 -21 460 l-20 26 -779 0 -779 0 -20 -26z m466 -57 c9 -21 12 -41 8
-45 -4 -4 -10 -1 -12 6 -3 6 -13 12 -23 12 -10 0 -20 -6 -23 -12 -2 -7 -7 -10
-11 -6 -4 3 -2 25 5 47 15 51 35 51 56 -2z m43 -2 c0 -25 -4 -45 -10 -45 -5 0
-10 20 -10 45 0 25 5 45 10 45 6 0 10 -20 10 -45z m87 -2 c1 -43 -9 -57 -21
-28 -3 8 -10 15 -16 15 -5 0 -10 -7 -10 -15 0 -8 -7 -15 -15 -15 -11 0 -15 12
-15 46 l0 45 38 -3 c36 -3 37 -4 39 -45z m123 33 c16 -21 9 -56 -15 -72 -41
-27 -88 39 -53 74 16 16 53 15 68 -2z m90 4 c0 -5 -11 -10 -25 -10 -14 0 -25
-4 -25 -10 0 -5 9 -10 20 -10 11 0 20 -4 20 -10 0 -5 -9 -10 -20 -10 -11 0
-20 -7 -20 -15 0 -8 -4 -15 -10 -15 -5 0 -10 20 -10 45 0 45 0 45 35 45 19 0
35 -4 35 -10z m75 0 c-3 -5 -15 -10 -26 -10 -10 0 -19 -4 -19 -10 0 -5 9 -10
20 -10 11 0 20 -4 20 -10 0 -5 -9 -10 -20 -10 -11 0 -20 -7 -20 -15 0 -8 -4
-15 -10 -15 -5 0 -10 20 -10 45 0 45 0 45 36 45 21 0 33 -4 29 -10z m115 -5
c0 -17 -16 -20 -25 -5 -10 16 -25 1 -25 -25 0 -32 20 -42 36 -20 16 21 28 16
18 -8 -13 -35 -66 -27 -79 13 -10 31 12 60 45 60 20 0 30 -5 30 -15z m94 -1
c18 -48 -10 -93 -49 -78 -24 9 -37 51 -25 75 13 24 65 26 74 3z m36 -29 c0
-25 -4 -45 -10 -45 -5 0 -10 20 -10 45 0 25 5 45 10 45 6 0 10 -20 10 -45z
m40 10 c0 -24 5 -35 14 -35 8 0 18 -4 21 -10 4 -6 -7 -10 -24 -10 -30 0 -31 1
-31 45 0 25 5 45 10 45 6 0 10 -16 10 -35z"/>
<path d="M8220 3196 c0 -9 5 -16 10 -16 6 0 10 4 10 9 0 6 -4 13 -10 16 -5 3
-10 -1 -10 -9z"/>
<path d="M8340 3210 c0 -5 7 -10 15 -10 8 0 15 5 15 10 0 6 -7 10 -15 10 -8 0
-15 -4 -15 -10z"/>
<path d="M8460 3215 c-9 -11 -11 -22 -4 -32 13 -21 25 -21 38 -1 8 14 7 21 -5
33 -14 15 -17 15 -29 0z"/>
<path d="M8834 3215 c-9 -22 0 -50 16 -50 21 0 26 51 5 59 -9 3 -18 0 -21 -9z"/>
<path d="M3710 3240 c-19 -19 -20 -33 -20 -469 l0 -450 27 -20 c26 -21 28 -21
795 -19 l770 3 19 24 c18 22 19 45 19 465 l0 443 -23 21 -23 22 -772 0 c-759
0 -772 0 -792 -20z m459 -61 c7 -23 9 -44 5 -47 -4 -4 -9 -1 -11 6 -5 14 -43
16 -43 2 0 -5 -5 -10 -11 -10 -10 0 -7 16 12 68 13 34 35 26 48 -19z m41 -4
c0 -25 -4 -45 -10 -45 -5 0 -10 20 -10 45 0 25 5 45 10 45 6 0 10 -20 10 -45z
m87 -2 c2 -42 -9 -57 -21 -28 -3 8 -10 15 -16 15 -5 0 -10 -7 -10 -15 0 -8 -4
-15 -10 -15 -5 0 -10 21 -10 46 0 45 0 45 33 42 30 -3 32 -5 34 -45z m127 31
c18 -48 -10 -93 -49 -78 -24 9 -37 51 -25 75 13 24 65 26 74 3z m86 6 c0 -5
-9 -10 -20 -10 -11 0 -20 -4 -20 -10 0 -5 9 -10 20 -10 11 0 20 -4 20 -10 0
-5 -9 -10 -20 -10 -11 0 -20 -7 -20 -15 0 -8 -7 -15 -15 -15 -11 0 -15 12 -15
45 0 45 0 45 35 45 19 0 35 -4 35 -10z m80 0 c0 -5 -11 -10 -25 -10 -14 0 -25
-4 -25 -10 0 -5 9 -10 20 -10 11 0 20 -4 20 -10 0 -5 -9 -10 -20 -10 -11 0
-20 -7 -20 -15 0 -8 -4 -15 -10 -15 -5 0 -10 20 -10 45 0 45 0 45 35 45 19 0
35 -4 35 -10z m113 -5 c5 -11 0 -13 -23 -8 -27 5 -30 3 -30 -20 0 -32 19 -45
35 -24 15 21 25 22 25 2 0 -8 -9 -19 -20 -25 -32 -17 -60 4 -60 44 0 18 3 36
7 39 12 13 61 7 66 -8z m95 -27 c2 -29 -1 -39 -17 -48 -33 -17 -61 3 -61 44 0
41 7 48 45 44 27 -3 30 -7 33 -40z m42 -3 c0 -33 -4 -45 -15 -45 -11 0 -15 12
-15 45 0 33 4 45 15 45 11 0 15 -12 15 -45z m30 10 c0 -24 5 -35 14 -35 8 0
18 -4 21 -10 4 -6 -7 -10 -24 -10 -30 0 -31 1 -31 45 0 25 5 45 10 45 6 0 10
-16 10 -35z"/>
<path d="M4136 3181 c-4 -7 -5 -15 -2 -18 9 -9 19 4 14 18 -4 11 -6 11 -12 0z"/>
<path d="M4250 3190 c0 -5 7 -10 15 -10 8 0 15 5 15 10 0 6 -7 10 -15 10 -8 0
-15 -4 -15 -10z"/>
<path d="M4374 3195 c-9 -22 0 -50 16 -50 21 0 26 51 5 59 -9 3 -18 0 -21 -9z"/>
<path d="M4742 3173 c2 -17 9 -28 18 -28 9 0 16 11 18 28 3 22 -1 27 -18 27
-17 0 -21 -5 -18 -27z"/>
<path d="M7905 2193 c-86 -45 -115 -101 -115 -223 0 -100 15 -143 67 -192 62
-59 44 -58 736 -58 l633 0 51 25 c33 17 61 41 79 68 26 38 29 51 32 143 4 111
-5 142 -57 197 -54 58 -36 57 -745 57 -574 -1 -655 -3 -681 -17z m1381 -19
c15 -11 42 -37 58 -58 28 -34 31 -46 35 -124 2 -47 -2 -102 -8 -123 -16 -52
-81 -114 -135 -128 -57 -14 -1235 -16 -1285 -1 -48 13 -93 47 -121 89 -19 29
-25 52 -28 115 -5 95 8 144 51 193 57 65 26 63 749 60 646 -2 657 -2 684 -23z"/>
<path d="M9663 2184 c-62 -36 -95 -98 -101 -188 -6 -91 10 -147 55 -197 66
-73 20 -69 750 -69 l658 0 40 23 c21 12 53 42 70 65 27 39 30 53 34 129 2 48
-2 104 -8 125 -21 69 -101 139 -158 138 -10 -1 -1 -7 21 -15 95 -33 141 -118
134 -243 -5 -93 -24 -131 -87 -179 l-43 -33 -657 0 -658 0 -46 31 c-75 50
-109 154 -87 268 16 83 65 136 150 162 l25 7 -25 1 c-14 0 -44 -11 -67 -25z"/>
<path d="M3852 2169 c-80 -40 -122 -117 -122 -224 0 -107 46 -190 124 -226 39
-17 80 -19 687 -19 l646 0 44 23 c31 16 54 39 77 77 30 50 32 61 32 142 0 134
-41 204 -139 237 -24 8 -221 11 -670 11 -627 0 -637 0 -679 -21z m1369 -12
c29 -16 54 -40 74 -72 28 -45 30 -55 30 -144 0 -92 -1 -98 -32 -143 -20 -28
-49 -54 -76 -67 -43 -21 -54 -21 -678 -21 l-635 0 -44 23 c-65 33 -99 81 -112
158 -20 125 24 228 116 270 39 17 80 19 677 19 l636 0 44 -23z"/>
<path d="M5604 2158 c-71 -49 -94 -99 -94 -207 0 -101 19 -151 71 -195 68 -58
46 -56 731 -56 l633 0 51 24 c87 41 124 109 124 230 -1 108 -37 179 -112 217
-35 18 -69 19 -696 19 l-660 0 -48 -32z m1414 -11 c63 -41 86 -94 86 -197 0
-115 -28 -170 -109 -214 -39 -21 -48 -21 -649 -24 -422 -2 -626 1 -663 8 -42
9 -65 21 -98 53 -48 47 -65 92 -65 177 0 108 37 176 115 211 38 18 76 19 691
16 l650 -2 42 -28z"/>
</g>
</svg>
